<svg width="1440" height="803" viewBox="0 0 1440 803" fill="none" xmlns="http://www.w3.org/2000/svg">
<g clip-path="url(#clip0_521_52066)">
<rect width="1440" height="803" fill="white"/>
<rect width="1440" height="803" fill="url(#paint0_linear_521_52066)"/>
<mask id="mask0_521_52066" style="mask-type:alpha" maskUnits="userSpaceOnUse" x="0" y="0" width="728" height="350">
<g clip-path="url(#clip1_521_52066)">
<path d="M49.5 0.5H0.5V49.5H49.5V0.5Z" stroke="black"/>
<path d="M98.5 0.5H50.5V49.5H98.5V0.5Z" stroke="black"/>
<path d="M148.5 0.5H99.5V49.5H148.5V0.5Z" stroke="black"/>
<path d="M198.5 0.5H149.5V49.5H198.5V0.5Z" stroke="black"/>
<path d="M247.5 0.5H199.5V49.5H247.5V0.5Z" stroke="black"/>
<path d="M297.5 0.5H248.5V49.5H297.5V0.5Z" stroke="black"/>
<path d="M347.5 0.5H298.5V49.5H347.5V0.5Z" stroke="black"/>
<path d="M396.5 0.5H348.5V49.5H396.5V0.5Z" stroke="black"/>
<path d="M446.5 0.5H397.5V49.5H446.5V0.5Z" stroke="black"/>
<path d="M496.5 0.5H447.5V49.5H496.5V0.5Z" stroke="black"/>
<path d="M545.5 0.5H497.5V49.5H545.5V0.5Z" stroke="black"/>
<path d="M595.5 0.5H546.5V49.5H595.5V0.5Z" stroke="black"/>
<path d="M645.5 0.5H596.5V49.5H645.5V0.5Z" stroke="black"/>
<path d="M694.5 0.5H646.5V49.5H694.5V0.5Z" stroke="black"/>
<path d="M744.5 0.5H695.5V49.5H744.5V0.5Z" stroke="black"/>
<path d="M49.5 50.5H0.5V99.5H49.5V50.5Z" stroke="black"/>
<path d="M98.5 50.5H50.5V99.5H98.5V50.5Z" stroke="black"/>
<path d="M148.5 50.5H99.5V99.5H148.5V50.5Z" stroke="black"/>
<path d="M198.5 50.5H149.5V99.5H198.5V50.5Z" stroke="black"/>
<path d="M247.5 50.5H199.5V99.5H247.5V50.5Z" stroke="black"/>
<path d="M297.5 50.5H248.5V99.5H297.5V50.5Z" stroke="black"/>
<path d="M347.5 50.5H298.5V99.5H347.5V50.5Z" stroke="black"/>
<path d="M396.5 50.5H348.5V99.5H396.5V50.5Z" stroke="black"/>
<path d="M446.5 50.5H397.5V99.5H446.5V50.5Z" stroke="black"/>
<path d="M496.5 50.5H447.5V99.5H496.5V50.5Z" stroke="black"/>
<path d="M545.5 50.5H497.5V99.5H545.5V50.5Z" stroke="black"/>
<path d="M595.5 50.5H546.5V99.5H595.5V50.5Z" stroke="black"/>
<path d="M645.5 50.5H596.5V99.5H645.5V50.5Z" stroke="black"/>
<path d="M694.5 50.5H646.5V99.5H694.5V50.5Z" stroke="black"/>
<path d="M744.5 50.5H695.5V99.5H744.5V50.5Z" stroke="black"/>
<path d="M49.5 100.5H0.5V149.5H49.5V100.5Z" stroke="black"/>
<path d="M98.5 100.5H50.5V149.5H98.5V100.5Z" stroke="black"/>
<path d="M148.5 100.5H99.5V149.5H148.5V100.5Z" stroke="black"/>
<path d="M198.5 100.5H149.5V149.5H198.5V100.5Z" stroke="black"/>
<path d="M247.5 100.5H199.5V149.5H247.5V100.5Z" stroke="black"/>
<path d="M297.5 100.5H248.5V149.5H297.5V100.5Z" stroke="black"/>
<path d="M347.5 100.5H298.5V149.5H347.5V100.5Z" stroke="black"/>
<path d="M396.5 100.5H348.5V149.5H396.5V100.5Z" stroke="black"/>
<path d="M446.5 100.5H397.5V149.5H446.5V100.5Z" stroke="black"/>
<path d="M496.5 100.5H447.5V149.5H496.5V100.5Z" stroke="black"/>
<path d="M545.5 100.5H497.5V149.5H545.5V100.5Z" stroke="black"/>
<path d="M595.5 100.5H546.5V149.5H595.5V100.5Z" stroke="black"/>
<path d="M645.5 100.5H596.5V149.5H645.5V100.5Z" stroke="black"/>
<path d="M694.5 100.5H646.5V149.5H694.5V100.5Z" stroke="black"/>
<path d="M744.5 100.5H695.5V149.5H744.5V100.5Z" stroke="black"/>
<path d="M49.5 150.5H0.5V199.5H49.5V150.5Z" stroke="black"/>
<path d="M98.5 150.5H50.5V199.5H98.5V150.5Z" stroke="black"/>
<path d="M148.5 150.5H99.5V199.5H148.5V150.5Z" stroke="black"/>
<path d="M198.5 150.5H149.5V199.5H198.5V150.5Z" stroke="black"/>
<path d="M247.5 150.5H199.5V199.5H247.5V150.5Z" stroke="black"/>
<path d="M297.5 150.5H248.5V199.5H297.5V150.5Z" stroke="black"/>
<path d="M347.5 150.5H298.5V199.5H347.5V150.5Z" stroke="black"/>
<path d="M396.5 150.5H348.5V199.5H396.5V150.5Z" stroke="black"/>
<path d="M446.5 150.5H397.5V199.5H446.5V150.5Z" stroke="black"/>
<path d="M496.5 150.5H447.5V199.5H496.5V150.5Z" stroke="black"/>
<path d="M545.5 150.5H497.5V199.5H545.5V150.5Z" stroke="black"/>
<path d="M595.5 150.5H546.5V199.5H595.5V150.5Z" stroke="black"/>
<path d="M645.5 150.5H596.5V199.5H645.5V150.5Z" stroke="black"/>
<path d="M694.5 150.5H646.5V199.5H694.5V150.5Z" stroke="black"/>
<path d="M744.5 150.5H695.5V199.5H744.5V150.5Z" stroke="black"/>
<path d="M49.5 200.5H0.5V249.5H49.5V200.5Z" stroke="black"/>
<path d="M98.5 200.5H50.5V249.5H98.5V200.5Z" stroke="black"/>
<path d="M148.5 200.5H99.5V249.5H148.5V200.5Z" stroke="black"/>
<path d="M198.5 200.5H149.5V249.5H198.5V200.5Z" stroke="black"/>
<path d="M247.5 200.5H199.5V249.5H247.5V200.5Z" stroke="black"/>
<path d="M297.5 200.5H248.5V249.5H297.5V200.5Z" stroke="black"/>
<path d="M347.5 200.5H298.5V249.5H347.5V200.5Z" stroke="black"/>
<path d="M396.5 200.5H348.5V249.5H396.5V200.5Z" stroke="black"/>
<path d="M446.5 200.5H397.5V249.5H446.5V200.5Z" stroke="black"/>
<path d="M496.5 200.5H447.5V249.5H496.5V200.5Z" stroke="black"/>
<path d="M545.5 200.5H497.5V249.5H545.5V200.5Z" stroke="black"/>
<path d="M595.5 200.5H546.5V249.5H595.5V200.5Z" stroke="black"/>
<path d="M645.5 200.5H596.5V249.5H645.5V200.5Z" stroke="black"/>
<path d="M694.5 200.5H646.5V249.5H694.5V200.5Z" stroke="black"/>
<path d="M744.5 200.5H695.5V249.5H744.5V200.5Z" stroke="black"/>
<path d="M49.5 250.5H0.5V299.5H49.5V250.5Z" stroke="black"/>
<path d="M98.5 250.5H50.5V299.5H98.5V250.5Z" stroke="black"/>
<path d="M148.5 250.5H99.5V299.5H148.5V250.5Z" stroke="black"/>
<path d="M198.5 250.5H149.5V299.5H198.5V250.5Z" stroke="black"/>
<path d="M247.5 250.5H199.5V299.5H247.5V250.5Z" stroke="black"/>
<path d="M297.5 250.5H248.5V299.5H297.5V250.5Z" stroke="black"/>
<path d="M347.5 250.5H298.5V299.5H347.5V250.5Z" stroke="black"/>
<path d="M396.5 250.5H348.5V299.5H396.5V250.5Z" stroke="black"/>
<path d="M446.5 250.5H397.5V299.5H446.5V250.5Z" stroke="black"/>
<path d="M496.5 250.5H447.5V299.5H496.5V250.5Z" stroke="black"/>
<path d="M545.5 250.5H497.5V299.5H545.5V250.5Z" stroke="black"/>
<path d="M595.5 250.5H546.5V299.5H595.5V250.5Z" stroke="black"/>
<path d="M645.5 250.5H596.5V299.5H645.5V250.5Z" stroke="black"/>
<path d="M694.5 250.5H646.5V299.5H694.5V250.5Z" stroke="black"/>
<path d="M744.5 250.5H695.5V299.5H744.5V250.5Z" stroke="black"/>
<path d="M49.5 300.5H0.5V349.5H49.5V300.5Z" stroke="black"/>
<path d="M98.5 300.5H50.5V349.5H98.5V300.5Z" stroke="black"/>
<path d="M148.5 300.5H99.5V349.5H148.5V300.5Z" stroke="black"/>
<path d="M198.5 300.5H149.5V349.5H198.5V300.5Z" stroke="black"/>
<path d="M247.5 300.5H199.5V349.5H247.5V300.5Z" stroke="black"/>
<path d="M297.5 300.5H248.5V349.5H297.5V300.5Z" stroke="black"/>
<path d="M347.5 300.5H298.5V349.5H347.5V300.5Z" stroke="black"/>
<path d="M396.5 300.5H348.5V349.5H396.5V300.5Z" stroke="black"/>
<path d="M446.5 300.5H397.5V349.5H446.5V300.5Z" stroke="black"/>
<path d="M496.5 300.5H447.5V349.5H496.5V300.5Z" stroke="black"/>
<path d="M545.5 300.5H497.5V349.5H545.5V300.5Z" stroke="black"/>
<path d="M595.5 300.5H546.5V349.5H595.5V300.5Z" stroke="black"/>
<path d="M645.5 300.5H596.5V349.5H645.5V300.5Z" stroke="black"/>
<path d="M694.5 300.5H646.5V349.5H694.5V300.5Z" stroke="black"/>
<path d="M744.5 300.5H695.5V349.5H744.5V300.5Z" stroke="black"/>
</g>
</mask>
<g mask="url(#mask0_521_52066)">
<rect width="728" height="738" fill="url(#paint1_linear_521_52066)"/>
</g>
<g opacity="0.2" filter="url(#filter0_f_521_52066)">
<ellipse cx="299.368" cy="343.542" rx="340.046" ry="101.248" transform="rotate(-120.392 299.368 343.542)" fill="url(#paint2_linear_521_52066)"/>
</g>
<g opacity="0.2" filter="url(#filter1_f_521_52066)">
<ellipse cx="-10.0025" cy="368.601" rx="280.059" ry="65.2824" transform="rotate(-120.392 -10.0025 368.601)" fill="#1364FF"/>
</g>
</g>
<defs>
<filter id="filter0_f_521_52066" x="-93.6055" y="-154.265" width="785.947" height="995.613" filterUnits="userSpaceOnUse" color-interpolation-filters="sRGB">
<feFlood flood-opacity="0" result="BackgroundImageFix"/>
<feBlend mode="normal" in="SourceGraphic" in2="BackgroundImageFix" result="shape"/>
<feGaussianBlur stdDeviation="100" result="effect1_foregroundBlur_521_52066"/>
</filter>
<filter id="filter1_f_521_52066" x="-312.509" y="-25.2497" width="605.013" height="787.702" filterUnits="userSpaceOnUse" color-interpolation-filters="sRGB">
<feFlood flood-opacity="0" result="BackgroundImageFix"/>
<feBlend mode="normal" in="SourceGraphic" in2="BackgroundImageFix" result="shape"/>
<feGaussianBlur stdDeviation="75" result="effect1_foregroundBlur_521_52066"/>
</filter>
<linearGradient id="paint0_linear_521_52066" x1="720" y1="0" x2="720" y2="803" gradientUnits="userSpaceOnUse">
<stop stop-color="#F8FAFF"/>
<stop offset="1" stop-color="#F8FAFF" stop-opacity="0"/>
</linearGradient>
<linearGradient id="paint1_linear_521_52066" x1="0" y1="0" x2="175" y2="369" gradientUnits="userSpaceOnUse">
<stop stop-color="#E9EFFF"/>
<stop offset="1" stop-color="#E9EFFF" stop-opacity="0"/>
</linearGradient>
<linearGradient id="paint2_linear_521_52066" x1="-40.6776" y1="342.853" x2="639.414" y2="342.853" gradientUnits="userSpaceOnUse">
<stop stop-color="#635BFF"/>
<stop offset="1" stop-color="#EA1C70"/>
</linearGradient>
<clipPath id="clip0_521_52066">
<rect width="1440" height="803" fill="white"/>
</clipPath>
<clipPath id="clip1_521_52066">
<rect width="728" height="350" fill="white"/>
</clipPath>
</defs>
</svg>
