<svg width="82" height="16" viewBox="0 0 82 16" fill="none" xmlns="http://www.w3.org/2000/svg">
<path d="M74.0904 9.58695C65.7153 10.3289 57.3403 10.2361 48.9918 10.3686C39.8349 10.5011 30.678 10.7793 21.5343 11.0045C15.3458 11.1635 9.15729 11.3755 2.96877 11.5345C2.23993 11.5477 1.49784 11.4152 0.768995 11.296C0.305187 11.2298 -0.0128526 10.9383 0.000399046 10.4348C0.000399046 9.99765 0.331689 9.73268 0.702735 9.66644C1.63035 9.49421 2.58447 9.29549 3.52534 9.28224C11.039 9.22924 18.5527 8.95103 26.0664 8.51383C35.104 7.98389 44.1284 7.4672 53.1793 7.25523C58.7847 7.12274 64.3902 6.89752 69.9956 6.71204C72.2219 6.63255 74.4349 6.84453 76.6479 7.1095C73.6133 5.53294 70.3534 4.5923 67.1068 3.62517C65.9936 3.29396 64.854 3.04224 63.7276 2.72428C62.8265 2.47256 62.0976 1.99561 62.3759 0.935738C62.6277 -0.0578928 63.5023 -0.110883 64.3107 0.101092C69.3198 1.46568 74.3289 2.80377 79.0995 4.89701C79.5368 5.08249 79.9609 5.32096 80.3452 5.58593C82.6244 7.14924 82.5449 9.38822 80.1331 10.7263C77.4563 12.2101 74.4879 12.8593 71.5593 13.5482C67.7958 14.4359 64.0589 15.4427 60.2027 15.8534C59.7786 15.8932 59.3678 15.9727 58.9437 15.9859C58.5859 15.9992 58.1486 16.0787 57.9764 15.6415C57.7643 15.085 58.2282 14.8863 58.5992 14.7008C60.8785 13.5482 63.2903 12.7666 65.7286 12.0247C68.5114 11.1768 71.3075 10.3686 74.0904 9.5472V9.58695Z" fill="#AAAAAA"/>
</svg>
