<svg width="20" height="16" viewBox="0 0 20 16" fill="none" xmlns="http://www.w3.org/2000/svg">
<path d="M8.94527 1.06006C8.69523 0.810098 8.35616 0.669678 8.0026 0.669678C7.64905 0.669678 7.30997 0.810098 7.05994 1.06006L1.05994 7.06006C0.809977 7.3101 0.669556 7.64917 0.669556 8.00273C0.669556 8.35628 0.809977 8.69536 1.05994 8.94539L7.05994 14.9454C7.31141 15.1883 7.64821 15.3227 7.9978 15.3196C8.3474 15.3166 8.68182 15.1764 8.92903 14.9292C9.17624 14.6819 9.31646 14.3475 9.3195 13.9979C9.32254 13.6483 9.18815 13.3115 8.94527 13.0601L5.33594 9.33606H18.0026C18.3562 9.33606 18.6954 9.19558 18.9454 8.94554C19.1955 8.69549 19.3359 8.35635 19.3359 8.00273C19.3359 7.64911 19.1955 7.30997 18.9454 7.05992C18.6954 6.80987 18.3562 6.66939 18.0026 6.66939H5.33594L8.94527 2.94539C9.19523 2.69536 9.33565 2.35628 9.33565 2.00273C9.33565 1.64917 9.19523 1.3101 8.94527 1.06006Z" fill="#86898E"/>
</svg>
