<svg width="1440" height="350" viewBox="0 0 1440 350" fill="none" xmlns="http://www.w3.org/2000/svg">
<g clip-path="url(#clip0_521_53178)">
<rect width="1440" height="350" fill="white"/>
<mask id="mask0_521_53178" style="mask-type:alpha" maskUnits="userSpaceOnUse" x="0" y="-7" width="1440" height="350">
<g clip-path="url(#clip1_521_53178)">
<path d="M49.5 342.5H0.5V293.5H49.5V342.5Z" stroke="black"/>
<path d="M98.5 342.5H50.5V293.5H98.5V342.5Z" stroke="black"/>
<path d="M148.5 342.5H99.5V293.5H148.5V342.5Z" stroke="black"/>
<path d="M198.5 342.5H149.5V293.5H198.5V342.5Z" stroke="black"/>
<path d="M247.5 342.5H199.5V293.5H247.5V342.5Z" stroke="black"/>
<path d="M297.5 342.5H248.5V293.5H297.5V342.5Z" stroke="black"/>
<path d="M347.5 342.5H298.5V293.5H347.5V342.5Z" stroke="black"/>
<path d="M396.5 342.5H348.5V293.5H396.5V342.5Z" stroke="black"/>
<path d="M446.5 342.5H397.5V293.5H446.5V342.5Z" stroke="black"/>
<path d="M496.5 342.5H447.5V293.5H496.5V342.5Z" stroke="black"/>
<path d="M545.5 342.5H497.5V293.5H545.5V342.5Z" stroke="black"/>
<path d="M595.5 342.5H546.5V293.5H595.5V342.5Z" stroke="black"/>
<path d="M645.5 342.5H596.5V293.5H645.5V342.5Z" stroke="black"/>
<path d="M694.5 342.5H646.5V293.5H694.5V342.5Z" stroke="black"/>
<path d="M744.5 342.5H695.5V293.5H744.5V342.5Z" stroke="black"/>
<path d="M793.5 342.5H745.5V293.5H793.5V342.5Z" stroke="black"/>
<path d="M843.5 342.5H794.5V293.5H843.5V342.5Z" stroke="black"/>
<path d="M893.5 342.5H844.5V293.5H893.5V342.5Z" stroke="black"/>
<path d="M942.5 342.5H894.5V293.5H942.5V342.5Z" stroke="black"/>
<path d="M992.5 342.5H943.5V293.5H992.5V342.5Z" stroke="black"/>
<path d="M1042.5 342.5H993.5V293.5H1042.5V342.5Z" stroke="black"/>
<path d="M1091.5 342.5H1043.5V293.5H1091.5V342.5Z" stroke="black"/>
<path d="M1141.5 342.5H1092.5V293.5H1141.5V342.5Z" stroke="black"/>
<path d="M1191.5 342.5H1142.5V293.5H1191.5V342.5Z" stroke="black"/>
<path d="M1240.5 342.5H1192.5V293.5H1240.5V342.5Z" stroke="black"/>
<path d="M1290.5 342.5H1241.5V293.5H1290.5V342.5Z" stroke="black"/>
<path d="M1340.5 342.5H1291.5V293.5H1340.5V342.5Z" stroke="black"/>
<path d="M1389.5 342.5H1341.5V293.5H1389.5V342.5Z" stroke="black"/>
<path d="M1439.5 342.5H1390.5V293.5H1439.5V342.5Z" stroke="black"/>
<path d="M49.5 292.5H0.5V243.5H49.5V292.5Z" stroke="black"/>
<path d="M98.5 292.5H50.5V243.5H98.5V292.5Z" stroke="black"/>
<path d="M148.5 292.5H99.5V243.5H148.5V292.5Z" stroke="black"/>
<path d="M198.5 292.5H149.5V243.5H198.5V292.5Z" stroke="black"/>
<path d="M247.5 292.5H199.5V243.5H247.5V292.5Z" stroke="black"/>
<path d="M297.5 292.5H248.5V243.5H297.5V292.5Z" stroke="black"/>
<path d="M347.5 292.5H298.5V243.5H347.5V292.5Z" stroke="black"/>
<path d="M396.5 292.5H348.5V243.5H396.5V292.5Z" stroke="black"/>
<path d="M446.5 292.5H397.5V243.5H446.5V292.5Z" stroke="black"/>
<path d="M496.5 292.5H447.5V243.5H496.5V292.5Z" stroke="black"/>
<path d="M545.5 292.5H497.5V243.5H545.5V292.5Z" stroke="black"/>
<path d="M595.5 292.5H546.5V243.5H595.5V292.5Z" stroke="black"/>
<path d="M645.5 292.5H596.5V243.5H645.5V292.5Z" stroke="black"/>
<path d="M694.5 292.5H646.5V243.5H694.5V292.5Z" stroke="black"/>
<path d="M744.5 292.5H695.5V243.5H744.5V292.5Z" stroke="black"/>
<path d="M793.5 292.5H745.5V243.5H793.5V292.5Z" stroke="black"/>
<path d="M843.5 292.5H794.5V243.5H843.5V292.5Z" stroke="black"/>
<path d="M893.5 292.5H844.5V243.5H893.5V292.5Z" stroke="black"/>
<path d="M942.5 292.5H894.5V243.5H942.5V292.5Z" stroke="black"/>
<path d="M992.5 292.5H943.5V243.5H992.5V292.5Z" stroke="black"/>
<path d="M1042.5 292.5H993.5V243.5H1042.5V292.5Z" stroke="black"/>
<path d="M1091.5 292.5H1043.5V243.5H1091.5V292.5Z" stroke="black"/>
<path d="M1141.5 292.5H1092.5V243.5H1141.5V292.5Z" stroke="black"/>
<path d="M1191.5 292.5H1142.5V243.5H1191.5V292.5Z" stroke="black"/>
<path d="M1240.5 292.5H1192.5V243.5H1240.5V292.5Z" stroke="black"/>
<path d="M1290.5 292.5H1241.5V243.5H1290.5V292.5Z" stroke="black"/>
<path d="M1340.5 292.5H1291.5V243.5H1340.5V292.5Z" stroke="black"/>
<path d="M1389.5 292.5H1341.5V243.5H1389.5V292.5Z" stroke="black"/>
<path d="M1439.5 292.5H1390.5V243.5H1439.5V292.5Z" stroke="black"/>
<path d="M49.5 242.5H0.5V193.5H49.5V242.5Z" stroke="black"/>
<path d="M98.5 242.5H50.5V193.5H98.5V242.5Z" stroke="black"/>
<path d="M148.5 242.5H99.5V193.5H148.5V242.5Z" stroke="black"/>
<path d="M198.5 242.5H149.5V193.5H198.5V242.5Z" stroke="black"/>
<path d="M247.5 242.5H199.5V193.5H247.5V242.5Z" stroke="black"/>
<path d="M297.5 242.5H248.5V193.5H297.5V242.5Z" stroke="black"/>
<path d="M347.5 242.5H298.5V193.5H347.5V242.5Z" stroke="black"/>
<path d="M396.5 242.5H348.5V193.5H396.5V242.5Z" stroke="black"/>
<path d="M446.5 242.5H397.5V193.5H446.5V242.5Z" stroke="black"/>
<path d="M496.5 242.5H447.5V193.5H496.5V242.5Z" stroke="black"/>
<path d="M545.5 242.5H497.5V193.5H545.5V242.5Z" stroke="black"/>
<path d="M595.5 242.5H546.5V193.5H595.5V242.5Z" stroke="black"/>
<path d="M645.5 242.5H596.5V193.5H645.5V242.5Z" stroke="black"/>
<path d="M694.5 242.5H646.5V193.5H694.5V242.5Z" stroke="black"/>
<path d="M744.5 242.5H695.5V193.5H744.5V242.5Z" stroke="black"/>
<path d="M793.5 242.5H745.5V193.5H793.5V242.5Z" stroke="black"/>
<path d="M843.5 242.5H794.5V193.5H843.5V242.5Z" stroke="black"/>
<path d="M893.5 242.5H844.5V193.5H893.5V242.5Z" stroke="black"/>
<path d="M942.5 242.5H894.5V193.5H942.5V242.5Z" stroke="black"/>
<path d="M992.5 242.5H943.5V193.5H992.5V242.5Z" stroke="black"/>
<path d="M1042.5 242.5H993.5V193.5H1042.5V242.5Z" stroke="black"/>
<path d="M1091.5 242.5H1043.5V193.5H1091.5V242.5Z" stroke="black"/>
<path d="M1141.5 242.5H1092.5V193.5H1141.5V242.5Z" stroke="black"/>
<path d="M1191.5 242.5H1142.5V193.5H1191.5V242.5Z" stroke="black"/>
<path d="M1240.5 242.5H1192.5V193.5H1240.5V242.5Z" stroke="black"/>
<path d="M1290.5 242.5H1241.5V193.5H1290.5V242.5Z" stroke="black"/>
<path d="M1340.5 242.5H1291.5V193.5H1340.5V242.5Z" stroke="black"/>
<path d="M1389.5 242.5H1341.5V193.5H1389.5V242.5Z" stroke="black"/>
<path d="M1439.5 242.5H1390.5V193.5H1439.5V242.5Z" stroke="black"/>
<path d="M49.5 192.5H0.5V143.5H49.5V192.5Z" stroke="black"/>
<path d="M98.5 192.5H50.5V143.5H98.5V192.5Z" stroke="black"/>
<path d="M148.5 192.5H99.5V143.5H148.5V192.5Z" stroke="black"/>
<path d="M198.5 192.5H149.5V143.5H198.5V192.5Z" stroke="black"/>
<path d="M247.5 192.5H199.5V143.5H247.5V192.5Z" stroke="black"/>
<path d="M297.5 192.5H248.5V143.5H297.5V192.5Z" stroke="black"/>
<path d="M347.5 192.5H298.5V143.5H347.5V192.5Z" stroke="black"/>
<path d="M396.5 192.5H348.5V143.5H396.5V192.5Z" stroke="black"/>
<path d="M446.5 192.5H397.5V143.5H446.5V192.5Z" stroke="black"/>
<path d="M496.5 192.5H447.5V143.5H496.5V192.5Z" stroke="black"/>
<path d="M545.5 192.5H497.5V143.5H545.5V192.5Z" stroke="black"/>
<path d="M595.5 192.5H546.5V143.5H595.5V192.5Z" stroke="black"/>
<path d="M645.5 192.5H596.5V143.5H645.5V192.5Z" stroke="black"/>
<path d="M694.5 192.5H646.5V143.5H694.5V192.5Z" stroke="black"/>
<path d="M744.5 192.5H695.5V143.5H744.5V192.5Z" stroke="black"/>
<path d="M793.5 192.5H745.5V143.5H793.5V192.5Z" stroke="black"/>
<path d="M843.5 192.5H794.5V143.5H843.5V192.5Z" stroke="black"/>
<path d="M893.5 192.5H844.5V143.5H893.5V192.5Z" stroke="black"/>
<path d="M942.5 192.5H894.5V143.5H942.5V192.5Z" stroke="black"/>
<path d="M992.5 192.5H943.5V143.5H992.5V192.5Z" stroke="black"/>
<path d="M1042.5 192.5H993.5V143.5H1042.5V192.5Z" stroke="black"/>
<path d="M1091.5 192.5H1043.5V143.5H1091.5V192.5Z" stroke="black"/>
<path d="M1141.5 192.5H1092.5V143.5H1141.5V192.5Z" stroke="black"/>
<path d="M1191.5 192.5H1142.5V143.5H1191.5V192.5Z" stroke="black"/>
<path d="M1240.5 192.5H1192.5V143.5H1240.5V192.5Z" stroke="black"/>
<path d="M1290.5 192.5H1241.5V143.5H1290.5V192.5Z" stroke="black"/>
<path d="M1340.5 192.5H1291.5V143.5H1340.5V192.5Z" stroke="black"/>
<path d="M1389.5 192.5H1341.5V143.5H1389.5V192.5Z" stroke="black"/>
<path d="M1439.5 192.5H1390.5V143.5H1439.5V192.5Z" stroke="black"/>
<path d="M49.5 142.5H0.5V93.5H49.5V142.5Z" stroke="black"/>
<path d="M98.5 142.5H50.5V93.5H98.5V142.5Z" stroke="black"/>
<path d="M148.5 142.5H99.5V93.5H148.5V142.5Z" stroke="black"/>
<path d="M198.5 142.5H149.5V93.5H198.5V142.5Z" stroke="black"/>
<path d="M247.5 142.5H199.5V93.5H247.5V142.5Z" stroke="black"/>
<path d="M297.5 142.5H248.5V93.5H297.5V142.5Z" stroke="black"/>
<path d="M347.5 142.5H298.5V93.5H347.5V142.5Z" stroke="black"/>
<path d="M396.5 142.5H348.5V93.5H396.5V142.5Z" stroke="black"/>
<path d="M446.5 142.5H397.5V93.5H446.5V142.5Z" stroke="black"/>
<path d="M496.5 142.5H447.5V93.5H496.5V142.5Z" stroke="black"/>
<path d="M545.5 142.5H497.5V93.5H545.5V142.5Z" stroke="black"/>
<path d="M595.5 142.5H546.5V93.5H595.5V142.5Z" stroke="black"/>
<path d="M645.5 142.5H596.5V93.5H645.5V142.5Z" stroke="black"/>
<path d="M694.5 142.5H646.5V93.5H694.5V142.5Z" stroke="black"/>
<path d="M744.5 142.5H695.5V93.5H744.5V142.5Z" stroke="black"/>
<path d="M793.5 142.5H745.5V93.5H793.5V142.5Z" stroke="black"/>
<path d="M843.5 142.5H794.5V93.5H843.5V142.5Z" stroke="black"/>
<path d="M893.5 142.5H844.5V93.5H893.5V142.5Z" stroke="black"/>
<path d="M942.5 142.5H894.5V93.5H942.5V142.5Z" stroke="black"/>
<path d="M992.5 142.5H943.5V93.5H992.5V142.5Z" stroke="black"/>
<path d="M1042.5 142.5H993.5V93.5H1042.5V142.5Z" stroke="black"/>
<path d="M1091.5 142.5H1043.5V93.5H1091.5V142.5Z" stroke="black"/>
<path d="M1141.5 142.5H1092.5V93.5H1141.5V142.5Z" stroke="black"/>
<path d="M1191.5 142.5H1142.5V93.5H1191.5V142.5Z" stroke="black"/>
<path d="M1240.5 142.5H1192.5V93.5H1240.5V142.5Z" stroke="black"/>
<path d="M1290.5 142.5H1241.5V93.5H1290.5V142.5Z" stroke="black"/>
<path d="M1340.5 142.5H1291.5V93.5H1340.5V142.5Z" stroke="black"/>
<path d="M1389.5 142.5H1341.5V93.5H1389.5V142.5Z" stroke="black"/>
<path d="M1439.5 142.5H1390.5V93.5H1439.5V142.5Z" stroke="black"/>
<path d="M49.5 92.5H0.5V43.5H49.5V92.5Z" stroke="black"/>
<path d="M98.5 92.5H50.5V43.5H98.5V92.5Z" stroke="black"/>
<path d="M148.5 92.5H99.5V43.5H148.5V92.5Z" stroke="black"/>
<path d="M198.5 92.5H149.5V43.5H198.5V92.5Z" stroke="black"/>
<path d="M247.5 92.5H199.5V43.5H247.5V92.5Z" stroke="black"/>
<path d="M297.5 92.5H248.5V43.5H297.5V92.5Z" stroke="black"/>
<path d="M347.5 92.5H298.5V43.5H347.5V92.5Z" stroke="black"/>
<path d="M396.5 92.5H348.5V43.5H396.5V92.5Z" stroke="black"/>
<path d="M446.5 92.5H397.5V43.5H446.5V92.5Z" stroke="black"/>
<path d="M496.5 92.5H447.5V43.5H496.5V92.5Z" stroke="black"/>
<path d="M545.5 92.5H497.5V43.5H545.5V92.5Z" stroke="black"/>
<path d="M595.5 92.5H546.5V43.5H595.5V92.5Z" stroke="black"/>
<path d="M645.5 92.5H596.5V43.5H645.5V92.5Z" stroke="black"/>
<path d="M694.5 92.5H646.5V43.5H694.5V92.5Z" stroke="black"/>
<path d="M744.5 92.5H695.5V43.5H744.5V92.5Z" stroke="black"/>
<path d="M793.5 92.5H745.5V43.5H793.5V92.5Z" stroke="black"/>
<path d="M843.5 92.5H794.5V43.5H843.5V92.5Z" stroke="black"/>
<path d="M893.5 92.5H844.5V43.5H893.5V92.5Z" stroke="black"/>
<path d="M942.5 92.5H894.5V43.5H942.5V92.5Z" stroke="black"/>
<path d="M992.5 92.5H943.5V43.5H992.5V92.5Z" stroke="black"/>
<path d="M1042.5 92.5H993.5V43.5H1042.5V92.5Z" stroke="black"/>
<path d="M1091.5 92.5H1043.5V43.5H1091.5V92.5Z" stroke="black"/>
<path d="M1141.5 92.5H1092.5V43.5H1141.5V92.5Z" stroke="black"/>
<path d="M1191.5 92.5H1142.5V43.5H1191.5V92.5Z" stroke="black"/>
<path d="M1240.5 92.5H1192.5V43.5H1240.5V92.5Z" stroke="black"/>
<path d="M1290.5 92.5H1241.5V43.5H1290.5V92.5Z" stroke="black"/>
<path d="M1340.5 92.5H1291.5V43.5H1340.5V92.5Z" stroke="black"/>
<path d="M1389.5 92.5H1341.5V43.5H1389.5V92.5Z" stroke="black"/>
<path d="M1439.5 92.5H1390.5V43.5H1439.5V92.5Z" stroke="black"/>
<path d="M49.5 42.5H0.5V-6.5H49.5V42.5Z" stroke="black"/>
<path d="M98.5 42.5H50.5V-6.5H98.5V42.5Z" stroke="black"/>
<path d="M148.5 42.5H99.5V-6.5H148.5V42.5Z" stroke="black"/>
<path d="M198.5 42.5H149.5V-6.5H198.5V42.5Z" stroke="black"/>
<path d="M247.5 42.5H199.5V-6.5H247.5V42.5Z" stroke="black"/>
<path d="M297.5 42.5H248.5V-6.5H297.5V42.5Z" stroke="black"/>
<path d="M347.5 42.5H298.5V-6.5H347.5V42.5Z" stroke="black"/>
<path d="M396.5 42.5H348.5V-6.5H396.5V42.5Z" stroke="black"/>
<path d="M446.5 42.5H397.5V-6.5H446.5V42.5Z" stroke="black"/>
<path d="M496.5 42.5H447.5V-6.5H496.5V42.5Z" stroke="black"/>
<path d="M545.5 42.5H497.5V-6.5H545.5V42.5Z" stroke="black"/>
<path d="M595.5 42.5H546.5V-6.5H595.5V42.5Z" stroke="black"/>
<path d="M645.5 42.5H596.5V-6.5H645.5V42.5Z" stroke="black"/>
<path d="M694.5 42.5H646.5V-6.5H694.5V42.5Z" stroke="black"/>
<path d="M744.5 42.5H695.5V-6.5H744.5V42.5Z" stroke="black"/>
<path d="M793.5 42.5H745.5V-6.5H793.5V42.5Z" stroke="black"/>
<path d="M843.5 42.5H794.5V-6.5H843.5V42.5Z" stroke="black"/>
<path d="M893.5 42.5H844.5V-6.5H893.5V42.5Z" stroke="black"/>
<path d="M942.5 42.5H894.5V-6.5H942.5V42.5Z" stroke="black"/>
<path d="M992.5 42.5H943.5V-6.5H992.5V42.5Z" stroke="black"/>
<path d="M1042.5 42.5H993.5V-6.5H1042.5V42.5Z" stroke="black"/>
<path d="M1091.5 42.5H1043.5V-6.5H1091.5V42.5Z" stroke="black"/>
<path d="M1141.5 42.5H1092.5V-6.5H1141.5V42.5Z" stroke="black"/>
<path d="M1191.5 42.5H1142.5V-6.5H1191.5V42.5Z" stroke="black"/>
<path d="M1240.5 42.5H1192.5V-6.5H1240.5V42.5Z" stroke="black"/>
<path d="M1290.5 42.5H1241.5V-6.5H1290.5V42.5Z" stroke="black"/>
<path d="M1340.5 42.5H1291.5V-6.5H1340.5V42.5Z" stroke="black"/>
<path d="M1389.5 42.5H1341.5V-6.5H1389.5V42.5Z" stroke="black"/>
<path d="M1439.5 42.5H1390.5V-6.5H1439.5V42.5Z" stroke="black"/>
</g>
</mask>
<g mask="url(#mask0_521_53178)">
<rect width="1440" height="348" transform="matrix(1 0 0 -1 0 343)" fill="url(#paint0_linear_521_53178)"/>
</g>
<g opacity="0.6">
<g opacity="0.12" filter="url(#filter0_f_521_53178)">
<ellipse cx="1302" cy="63.264" rx="477.682" ry="101.248" transform="rotate(-120.392 1302 63.264)" fill="url(#paint1_linear_521_53178)"/>
</g>
<g opacity="0.12" filter="url(#filter1_f_521_53178)">
<ellipse cx="1175.5" cy="351.51" rx="259.813" ry="65.2824" transform="rotate(-120.392 1175.5 351.51)" fill="#1364FF"/>
</g>
</g>
</g>
<defs>
<filter id="filter0_f_521_53178" x="844.969" y="-551.993" width="914.064" height="1230.51" filterUnits="userSpaceOnUse" color-interpolation-filters="sRGB">
<feFlood flood-opacity="0" result="BackgroundImageFix"/>
<feBlend mode="normal" in="SourceGraphic" in2="BackgroundImageFix" result="shape"/>
<feGaussianBlur stdDeviation="100" result="effect1_foregroundBlur_521_53178"/>
</filter>
<filter id="filter1_f_521_53178" x="882.471" y="-25.0518" width="586.066" height="753.123" filterUnits="userSpaceOnUse" color-interpolation-filters="sRGB">
<feFlood flood-opacity="0" result="BackgroundImageFix"/>
<feBlend mode="normal" in="SourceGraphic" in2="BackgroundImageFix" result="shape"/>
<feGaussianBlur stdDeviation="75" result="effect1_foregroundBlur_521_53178"/>
</filter>
<linearGradient id="paint0_linear_521_53178" x1="720" y1="0" x2="720" y2="336" gradientUnits="userSpaceOnUse">
<stop stop-color="#F0F4FF"/>
<stop offset="1" stop-color="#F0F4FF" stop-opacity="0.3"/>
</linearGradient>
<linearGradient id="paint1_linear_521_53178" x1="824.318" y1="62.5752" x2="1779.68" y2="62.5752" gradientUnits="userSpaceOnUse">
<stop stop-color="#635BFF"/>
<stop offset="1" stop-color="#EA1C70"/>
</linearGradient>
<clipPath id="clip0_521_53178">
<rect width="1440" height="350" fill="white"/>
</clipPath>
<clipPath id="clip1_521_53178">
<rect width="1440" height="350" fill="white" transform="matrix(1 0 0 -1 0 343)"/>
</clipPath>
</defs>
</svg>
