<svg width="1288" height="548" viewBox="0 0 1288 548" fill="none" xmlns="http://www.w3.org/2000/svg">
<g clip-path="url(#clip0_521_36925)">
<rect width="1288" height="548" fill="#020D20"/>
<mask id="mask0_521_36925" style="mask-type:alpha" maskUnits="userSpaceOnUse" x="0" y="200" width="1288" height="350">
<g clip-path="url(#clip1_521_36925)">
<path d="M44.2731 549.5H0.445312V500.5H44.2731V549.5Z" stroke="black"/>
<path d="M88.1052 549.5H45.1719V500.5H88.1052V549.5Z" stroke="black"/>
<path d="M132.828 549.5H89V500.5H132.828V549.5Z" stroke="black"/>
<path d="M177.547 549.5H133.719V500.5H177.547V549.5Z" stroke="black"/>
<path d="M221.375 549.5H178.441V500.5H221.375V549.5Z" stroke="black"/>
<path d="M266.097 549.5H222.27V500.5H266.097V549.5Z" stroke="black"/>
<path d="M310.82 549.5H266.992V500.5H310.82V549.5Z" stroke="black"/>
<path d="M354.648 549.5H311.715V500.5H354.648V549.5Z" stroke="black"/>
<path d="M399.367 549.5H355.539V500.5H399.367V549.5Z" stroke="black"/>
<path d="M444.093 549.5H400.266V500.5H444.093V549.5Z" stroke="black"/>
<path d="M487.918 549.5H444.984V500.5H487.918V549.5Z" stroke="black"/>
<path d="M532.64 549.5H488.812V500.5H532.64V549.5Z" stroke="black"/>
<path d="M577.363 549.5H533.535V500.5H577.363V549.5Z" stroke="black"/>
<path d="M621.191 549.5H578.258V500.5H621.191V549.5Z" stroke="black"/>
<path d="M665.914 549.5H622.086V500.5H665.914V549.5Z" stroke="black"/>
<path d="M709.742 549.5H666.809V500.5H709.742V549.5Z" stroke="black"/>
<path d="M754.464 549.5H710.637V500.5H754.464V549.5Z" stroke="black"/>
<path d="M799.187 549.5H755.359V500.5H799.187V549.5Z" stroke="black"/>
<path d="M843.011 549.5H800.078V500.5H843.011V549.5Z" stroke="black"/>
<path d="M887.738 549.5H843.91V500.5H887.738V549.5Z" stroke="black"/>
<path d="M932.461 549.5H888.633V500.5H932.461V549.5Z" stroke="black"/>
<path d="M976.285 549.5H933.352V500.5H976.285V549.5Z" stroke="black"/>
<path d="M1021.01 549.5H977.18V500.5H1021.01V549.5Z" stroke="black"/>
<path d="M1065.73 549.5H1021.9V500.5H1065.73V549.5Z" stroke="black"/>
<path d="M1109.56 549.5H1066.62V500.5H1109.56V549.5Z" stroke="black"/>
<path d="M1154.28 549.5H1110.45V500.5H1154.28V549.5Z" stroke="black"/>
<path d="M1199 549.5H1155.18V500.5H1199V549.5Z" stroke="black"/>
<path d="M1242.83 549.5H1199.9V500.5H1242.83V549.5Z" stroke="black"/>
<path d="M1287.55 549.5H1243.73V500.5H1287.55V549.5Z" stroke="black"/>
<path d="M44.2731 499.5H0.445312V450.5H44.2731V499.5Z" stroke="black"/>
<path d="M88.1052 499.5H45.1719V450.5H88.1052V499.5Z" stroke="black"/>
<path d="M132.828 499.5H89V450.5H132.828V499.5Z" stroke="black"/>
<path d="M177.547 499.5H133.719V450.5H177.547V499.5Z" stroke="black"/>
<path d="M221.375 499.5H178.441V450.5H221.375V499.5Z" stroke="black"/>
<path d="M266.097 499.5H222.27V450.5H266.097V499.5Z" stroke="black"/>
<path d="M310.82 499.5H266.992V450.5H310.82V499.5Z" stroke="black"/>
<path d="M354.648 499.5H311.715V450.5H354.648V499.5Z" stroke="black"/>
<path d="M399.367 499.5H355.539V450.5H399.367V499.5Z" stroke="black"/>
<path d="M444.093 499.5H400.266V450.5H444.093V499.5Z" stroke="black"/>
<path d="M487.918 499.5H444.984V450.5H487.918V499.5Z" stroke="black"/>
<path d="M532.64 499.5H488.812V450.5H532.64V499.5Z" stroke="black"/>
<path d="M577.363 499.5H533.535V450.5H577.363V499.5Z" stroke="black"/>
<path d="M621.191 499.5H578.258V450.5H621.191V499.5Z" stroke="black"/>
<path d="M665.914 499.5H622.086V450.5H665.914V499.5Z" stroke="black"/>
<path d="M709.742 499.5H666.809V450.5H709.742V499.5Z" stroke="black"/>
<path d="M754.464 499.5H710.637V450.5H754.464V499.5Z" stroke="black"/>
<path d="M799.187 499.5H755.359V450.5H799.187V499.5Z" stroke="black"/>
<path d="M843.011 499.5H800.078V450.5H843.011V499.5Z" stroke="black"/>
<path d="M887.738 499.5H843.91V450.5H887.738V499.5Z" stroke="black"/>
<path d="M932.461 499.5H888.633V450.5H932.461V499.5Z" stroke="black"/>
<path d="M976.285 499.5H933.352V450.5H976.285V499.5Z" stroke="black"/>
<path d="M1021.01 499.5H977.18V450.5H1021.01V499.5Z" stroke="black"/>
<path d="M1065.73 499.5H1021.9V450.5H1065.73V499.5Z" stroke="black"/>
<path d="M1109.56 499.5H1066.62V450.5H1109.56V499.5Z" stroke="black"/>
<path d="M1154.28 499.5H1110.45V450.5H1154.28V499.5Z" stroke="black"/>
<path d="M1199 499.5H1155.18V450.5H1199V499.5Z" stroke="black"/>
<path d="M1242.83 499.5H1199.9V450.5H1242.83V499.5Z" stroke="black"/>
<path d="M1287.55 499.5H1243.73V450.5H1287.55V499.5Z" stroke="black"/>
<path d="M44.2731 449.5H0.445312V400.5H44.2731V449.5Z" stroke="black"/>
<path d="M88.1052 449.5H45.1719V400.5H88.1052V449.5Z" stroke="black"/>
<path d="M132.828 449.5H89V400.5H132.828V449.5Z" stroke="black"/>
<path d="M177.547 449.5H133.719V400.5H177.547V449.5Z" stroke="black"/>
<path d="M221.375 449.5H178.441V400.5H221.375V449.5Z" stroke="black"/>
<path d="M266.097 449.5H222.27V400.5H266.097V449.5Z" stroke="black"/>
<path d="M310.82 449.5H266.992V400.5H310.82V449.5Z" stroke="black"/>
<path d="M354.648 449.5H311.715V400.5H354.648V449.5Z" stroke="black"/>
<path d="M399.367 449.5H355.539V400.5H399.367V449.5Z" stroke="black"/>
<path d="M444.093 449.5H400.266V400.5H444.093V449.5Z" stroke="black"/>
<path d="M487.918 449.5H444.984V400.5H487.918V449.5Z" stroke="black"/>
<path d="M532.64 449.5H488.812V400.5H532.64V449.5Z" stroke="black"/>
<path d="M577.363 449.5H533.535V400.5H577.363V449.5Z" stroke="black"/>
<path d="M621.191 449.5H578.258V400.5H621.191V449.5Z" stroke="black"/>
<path d="M665.914 449.5H622.086V400.5H665.914V449.5Z" stroke="black"/>
<path d="M709.742 449.5H666.809V400.5H709.742V449.5Z" stroke="black"/>
<path d="M754.464 449.5H710.637V400.5H754.464V449.5Z" stroke="black"/>
<path d="M799.187 449.5H755.359V400.5H799.187V449.5Z" stroke="black"/>
<path d="M843.011 449.5H800.078V400.5H843.011V449.5Z" stroke="black"/>
<path d="M887.738 449.5H843.91V400.5H887.738V449.5Z" stroke="black"/>
<path d="M932.461 449.5H888.633V400.5H932.461V449.5Z" stroke="black"/>
<path d="M976.285 449.5H933.352V400.5H976.285V449.5Z" stroke="black"/>
<path d="M1021.01 449.5H977.18V400.5H1021.01V449.5Z" stroke="black"/>
<path d="M1065.73 449.5H1021.9V400.5H1065.73V449.5Z" stroke="black"/>
<path d="M1109.56 449.5H1066.62V400.5H1109.56V449.5Z" stroke="black"/>
<path d="M1154.28 449.5H1110.45V400.5H1154.28V449.5Z" stroke="black"/>
<path d="M1199 449.5H1155.18V400.5H1199V449.5Z" stroke="black"/>
<path d="M1242.83 449.5H1199.9V400.5H1242.83V449.5Z" stroke="black"/>
<path d="M1287.55 449.5H1243.73V400.5H1287.55V449.5Z" stroke="black"/>
<path d="M44.2731 399.5H0.445312V350.5H44.2731V399.5Z" stroke="black"/>
<path d="M88.1052 399.5H45.1719V350.5H88.1052V399.5Z" stroke="black"/>
<path d="M132.828 399.5H89V350.5H132.828V399.5Z" stroke="black"/>
<path d="M177.547 399.5H133.719V350.5H177.547V399.5Z" stroke="black"/>
<path d="M221.375 399.5H178.441V350.5H221.375V399.5Z" stroke="black"/>
<path d="M266.097 399.5H222.27V350.5H266.097V399.5Z" stroke="black"/>
<path d="M310.82 399.5H266.992V350.5H310.82V399.5Z" stroke="black"/>
<path d="M354.648 399.5H311.715V350.5H354.648V399.5Z" stroke="black"/>
<path d="M399.367 399.5H355.539V350.5H399.367V399.5Z" stroke="black"/>
<path d="M444.093 399.5H400.266V350.5H444.093V399.5Z" stroke="black"/>
<path d="M487.918 399.5H444.984V350.5H487.918V399.5Z" stroke="black"/>
<path d="M532.64 399.5H488.812V350.5H532.64V399.5Z" stroke="black"/>
<path d="M577.363 399.5H533.535V350.5H577.363V399.5Z" stroke="black"/>
<path d="M621.191 399.5H578.258V350.5H621.191V399.5Z" stroke="black"/>
<path d="M665.914 399.5H622.086V350.5H665.914V399.5Z" stroke="black"/>
<path d="M709.742 399.5H666.809V350.5H709.742V399.5Z" stroke="black"/>
<path d="M754.464 399.5H710.637V350.5H754.464V399.5Z" stroke="black"/>
<path d="M799.187 399.5H755.359V350.5H799.187V399.5Z" stroke="black"/>
<path d="M843.011 399.5H800.078V350.5H843.011V399.5Z" stroke="black"/>
<path d="M887.738 399.5H843.91V350.5H887.738V399.5Z" stroke="black"/>
<path d="M932.461 399.5H888.633V350.5H932.461V399.5Z" stroke="black"/>
<path d="M976.285 399.5H933.352V350.5H976.285V399.5Z" stroke="black"/>
<path d="M1021.01 399.5H977.18V350.5H1021.01V399.5Z" stroke="black"/>
<path d="M1065.73 399.5H1021.9V350.5H1065.73V399.5Z" stroke="black"/>
<path d="M1109.56 399.5H1066.62V350.5H1109.56V399.5Z" stroke="black"/>
<path d="M1154.28 399.5H1110.45V350.5H1154.28V399.5Z" stroke="black"/>
<path d="M1199 399.5H1155.18V350.5H1199V399.5Z" stroke="black"/>
<path d="M1242.83 399.5H1199.9V350.5H1242.83V399.5Z" stroke="black"/>
<path d="M1287.55 399.5H1243.73V350.5H1287.55V399.5Z" stroke="black"/>
<path d="M44.2731 349.5H0.445312V300.5H44.2731V349.5Z" stroke="black"/>
<path d="M88.1052 349.5H45.1719V300.5H88.1052V349.5Z" stroke="black"/>
<path d="M132.828 349.5H89V300.5H132.828V349.5Z" stroke="black"/>
<path d="M177.547 349.5H133.719V300.5H177.547V349.5Z" stroke="black"/>
<path d="M221.375 349.5H178.441V300.5H221.375V349.5Z" stroke="black"/>
<path d="M266.097 349.5H222.27V300.5H266.097V349.5Z" stroke="black"/>
<path d="M310.82 349.5H266.992V300.5H310.82V349.5Z" stroke="black"/>
<path d="M354.648 349.5H311.715V300.5H354.648V349.5Z" stroke="black"/>
<path d="M399.367 349.5H355.539V300.5H399.367V349.5Z" stroke="black"/>
<path d="M444.093 349.5H400.266V300.5H444.093V349.5Z" stroke="black"/>
<path d="M487.918 349.5H444.984V300.5H487.918V349.5Z" stroke="black"/>
<path d="M532.64 349.5H488.812V300.5H532.64V349.5Z" stroke="black"/>
<path d="M577.363 349.5H533.535V300.5H577.363V349.5Z" stroke="black"/>
<path d="M621.191 349.5H578.258V300.5H621.191V349.5Z" stroke="black"/>
<path d="M665.914 349.5H622.086V300.5H665.914V349.5Z" stroke="black"/>
<path d="M709.742 349.5H666.809V300.5H709.742V349.5Z" stroke="black"/>
<path d="M754.464 349.5H710.637V300.5H754.464V349.5Z" stroke="black"/>
<path d="M799.187 349.5H755.359V300.5H799.187V349.5Z" stroke="black"/>
<path d="M843.011 349.5H800.078V300.5H843.011V349.5Z" stroke="black"/>
<path d="M887.738 349.5H843.91V300.5H887.738V349.5Z" stroke="black"/>
<path d="M932.461 349.5H888.633V300.5H932.461V349.5Z" stroke="black"/>
<path d="M976.285 349.5H933.352V300.5H976.285V349.5Z" stroke="black"/>
<path d="M1021.01 349.5H977.18V300.5H1021.01V349.5Z" stroke="black"/>
<path d="M1065.73 349.5H1021.9V300.5H1065.73V349.5Z" stroke="black"/>
<path d="M1109.56 349.5H1066.62V300.5H1109.56V349.5Z" stroke="black"/>
<path d="M1154.28 349.5H1110.45V300.5H1154.28V349.5Z" stroke="black"/>
<path d="M1199 349.5H1155.18V300.5H1199V349.5Z" stroke="black"/>
<path d="M1242.83 349.5H1199.9V300.5H1242.83V349.5Z" stroke="black"/>
<path d="M1287.55 349.5H1243.73V300.5H1287.55V349.5Z" stroke="black"/>
<path d="M44.2731 299.5H0.445312V250.5H44.2731V299.5Z" stroke="black"/>
<path d="M88.1052 299.5H45.1719V250.5H88.1052V299.5Z" stroke="black"/>
<path d="M132.828 299.5H89V250.5H132.828V299.5Z" stroke="black"/>
<path d="M177.547 299.5H133.719V250.5H177.547V299.5Z" stroke="black"/>
<path d="M221.375 299.5H178.441V250.5H221.375V299.5Z" stroke="black"/>
<path d="M266.097 299.5H222.27V250.5H266.097V299.5Z" stroke="black"/>
<path d="M310.82 299.5H266.992V250.5H310.82V299.5Z" stroke="black"/>
<path d="M354.648 299.5H311.715V250.5H354.648V299.5Z" stroke="black"/>
<path d="M399.367 299.5H355.539V250.5H399.367V299.5Z" stroke="black"/>
<path d="M444.093 299.5H400.266V250.5H444.093V299.5Z" stroke="black"/>
<path d="M487.918 299.5H444.984V250.5H487.918V299.5Z" stroke="black"/>
<path d="M532.64 299.5H488.812V250.5H532.64V299.5Z" stroke="black"/>
<path d="M577.363 299.5H533.535V250.5H577.363V299.5Z" stroke="black"/>
<path d="M621.191 299.5H578.258V250.5H621.191V299.5Z" stroke="black"/>
<path d="M665.914 299.5H622.086V250.5H665.914V299.5Z" stroke="black"/>
<path d="M709.742 299.5H666.809V250.5H709.742V299.5Z" stroke="black"/>
<path d="M754.464 299.5H710.637V250.5H754.464V299.5Z" stroke="black"/>
<path d="M799.187 299.5H755.359V250.5H799.187V299.5Z" stroke="black"/>
<path d="M843.011 299.5H800.078V250.5H843.011V299.5Z" stroke="black"/>
<path d="M887.738 299.5H843.91V250.5H887.738V299.5Z" stroke="black"/>
<path d="M932.461 299.5H888.633V250.5H932.461V299.5Z" stroke="black"/>
<path d="M976.285 299.5H933.352V250.5H976.285V299.5Z" stroke="black"/>
<path d="M1021.01 299.5H977.18V250.5H1021.01V299.5Z" stroke="black"/>
<path d="M1065.73 299.5H1021.9V250.5H1065.73V299.5Z" stroke="black"/>
<path d="M1109.56 299.5H1066.62V250.5H1109.56V299.5Z" stroke="black"/>
<path d="M1154.28 299.5H1110.45V250.5H1154.28V299.5Z" stroke="black"/>
<path d="M1199 299.5H1155.18V250.5H1199V299.5Z" stroke="black"/>
<path d="M1242.83 299.5H1199.9V250.5H1242.83V299.5Z" stroke="black"/>
<path d="M1287.55 299.5H1243.73V250.5H1287.55V299.5Z" stroke="black"/>
<path d="M44.2731 249.5H0.445312V200.5H44.2731V249.5Z" stroke="black"/>
<path d="M88.1052 249.5H45.1719V200.5H88.1052V249.5Z" stroke="black"/>
<path d="M132.828 249.5H89V200.5H132.828V249.5Z" stroke="black"/>
<path d="M177.547 249.5H133.719V200.5H177.547V249.5Z" stroke="black"/>
<path d="M221.375 249.5H178.441V200.5H221.375V249.5Z" stroke="black"/>
<path d="M266.097 249.5H222.27V200.5H266.097V249.5Z" stroke="black"/>
<path d="M310.82 249.5H266.992V200.5H310.82V249.5Z" stroke="black"/>
<path d="M354.648 249.5H311.715V200.5H354.648V249.5Z" stroke="black"/>
<path d="M399.367 249.5H355.539V200.5H399.367V249.5Z" stroke="black"/>
<path d="M444.093 249.5H400.266V200.5H444.093V249.5Z" stroke="black"/>
<path d="M487.918 249.5H444.984V200.5H487.918V249.5Z" stroke="black"/>
<path d="M532.64 249.5H488.812V200.5H532.64V249.5Z" stroke="black"/>
<path d="M577.363 249.5H533.535V200.5H577.363V249.5Z" stroke="black"/>
<path d="M621.191 249.5H578.258V200.5H621.191V249.5Z" stroke="black"/>
<path d="M665.914 249.5H622.086V200.5H665.914V249.5Z" stroke="black"/>
<path d="M709.742 249.5H666.809V200.5H709.742V249.5Z" stroke="black"/>
<path d="M754.464 249.5H710.637V200.5H754.464V249.5Z" stroke="black"/>
<path d="M799.187 249.5H755.359V200.5H799.187V249.5Z" stroke="black"/>
<path d="M843.011 249.5H800.078V200.5H843.011V249.5Z" stroke="black"/>
<path d="M887.738 249.5H843.91V200.5H887.738V249.5Z" stroke="black"/>
<path d="M932.461 249.5H888.633V200.5H932.461V249.5Z" stroke="black"/>
<path d="M976.285 249.5H933.352V200.5H976.285V249.5Z" stroke="black"/>
<path d="M1021.01 249.5H977.18V200.5H1021.01V249.5Z" stroke="black"/>
<path d="M1065.73 249.5H1021.9V200.5H1065.73V249.5Z" stroke="black"/>
<path d="M1109.56 249.5H1066.62V200.5H1109.56V249.5Z" stroke="black"/>
<path d="M1154.28 249.5H1110.45V200.5H1154.28V249.5Z" stroke="black"/>
<path d="M1199 249.5H1155.18V200.5H1199V249.5Z" stroke="black"/>
<path d="M1242.83 249.5H1199.9V200.5H1242.83V249.5Z" stroke="black"/>
<path d="M1287.55 249.5H1243.73V200.5H1287.55V249.5Z" stroke="black"/>
</g>
</mask>
<g mask="url(#mask0_521_36925)">
<rect width="1288" height="544.869" transform="matrix(1 0 0 -1 0 746.303)" fill="url(#paint0_linear_521_36925)"/>
</g>
<g opacity="0.35" filter="url(#filter0_f_521_36925)">
<ellipse cx="1210.37" cy="294.541" rx="340.046" ry="101.248" transform="rotate(-120.392 1210.37 294.541)" fill="url(#paint1_linear_521_36925)"/>
</g>
<g opacity="0.25" filter="url(#filter1_f_521_36925)">
<ellipse cx="1004" cy="446.602" rx="280.059" ry="65.2824" transform="rotate(-120.392 1004 446.602)" fill="#1364FF"/>
</g>
</g>
<defs>
<filter id="filter0_f_521_36925" x="817.395" y="-203.266" width="785.947" height="995.614" filterUnits="userSpaceOnUse" color-interpolation-filters="sRGB">
<feFlood flood-opacity="0" result="BackgroundImageFix"/>
<feBlend mode="normal" in="SourceGraphic" in2="BackgroundImageFix" result="shape"/>
<feGaussianBlur stdDeviation="100" result="effect1_foregroundBlur_521_36925"/>
</filter>
<filter id="filter1_f_521_36925" x="701.491" y="52.7507" width="605.013" height="787.702" filterUnits="userSpaceOnUse" color-interpolation-filters="sRGB">
<feFlood flood-opacity="0" result="BackgroundImageFix"/>
<feBlend mode="normal" in="SourceGraphic" in2="BackgroundImageFix" result="shape"/>
<feGaussianBlur stdDeviation="75" result="effect1_foregroundBlur_521_36925"/>
</filter>
<linearGradient id="paint0_linear_521_36925" x1="1269.19" y1="0.000115034" x2="776.664" y2="453.785" gradientUnits="userSpaceOnUse">
<stop stop-color="#111B2D"/>
<stop offset="1" stop-color="#111B2D" stop-opacity="0"/>
</linearGradient>
<linearGradient id="paint1_linear_521_36925" x1="870.322" y1="293.852" x2="1550.41" y2="293.852" gradientUnits="userSpaceOnUse">
<stop stop-color="#635BFF"/>
<stop offset="1" stop-color="#EA1C70"/>
</linearGradient>
<clipPath id="clip0_521_36925">
<rect width="1288" height="548" fill="white"/>
</clipPath>
<clipPath id="clip1_521_36925">
<rect width="1288" height="350" fill="white" transform="matrix(1 0 0 -1 0 550)"/>
</clipPath>
</defs>
</svg>
