<svg width="1440" height="800" viewBox="0 0 1440 800" fill="none" xmlns="http://www.w3.org/2000/svg">
<g clip-path="url(#clip0_521_49724)">
<rect width="1440" height="800" fill="white"/>
<rect x="0.5" y="0.5" width="49" height="49" stroke="#FCFCFC"/>
<rect x="50.5" y="0.5" width="48" height="49" stroke="#FCFCFC"/>
<rect x="99.5" y="0.5" width="49" height="49" stroke="#FCFCFC"/>
<rect x="149.5" y="0.5" width="49" height="49" stroke="#FCFCFC"/>
<rect x="199.5" y="0.5" width="48" height="49" stroke="#FCFCFC"/>
<rect x="248.5" y="0.5" width="49" height="49" stroke="#FCFCFC"/>
<rect x="298.5" y="0.5" width="49" height="49" stroke="#FCFCFC"/>
<rect x="348.5" y="0.5" width="48" height="49" stroke="#FCFCFC"/>
<rect x="397.5" y="0.5" width="49" height="49" stroke="#FCFCFC"/>
<rect x="447.5" y="0.5" width="49" height="49" stroke="#FCFCFC"/>
<rect x="497.5" y="0.5" width="48" height="49" stroke="#FCFCFC"/>
<rect x="546.5" y="0.5" width="49" height="49" stroke="#FCFCFC"/>
<rect x="596.5" y="0.5" width="49" height="49" stroke="#FCFCFC"/>
<rect x="646.5" y="0.5" width="48" height="49" stroke="#FCFCFC"/>
<rect x="695.5" y="0.5" width="49" height="49" stroke="#FCFCFC"/>
<rect x="745.5" y="0.5" width="48" height="49" stroke="#FCFCFC"/>
<rect x="794.5" y="0.5" width="49" height="49" stroke="#FCFCFC"/>
<rect x="844.5" y="0.5" width="49" height="49" stroke="#FCFCFC"/>
<rect x="894.5" y="0.5" width="48" height="49" stroke="#FCFCFC"/>
<rect x="943.5" y="0.5" width="49" height="49" stroke="#FCFCFC"/>
<rect x="993.5" y="0.5" width="49" height="49" stroke="#FCFCFC"/>
<rect x="1043.5" y="0.5" width="48" height="49" stroke="#FCFCFC"/>
<rect x="1092.5" y="0.5" width="49" height="49" stroke="#FCFCFC"/>
<rect x="1142.5" y="0.5" width="49" height="49" stroke="#FCFCFC"/>
<rect x="1192.5" y="0.5" width="48" height="49" stroke="#FCFCFC"/>
<rect x="1241.5" y="0.5" width="49" height="49" stroke="#FCFCFC"/>
<rect x="1291.5" y="0.5" width="49" height="49" stroke="#FCFCFC"/>
<rect x="1341.5" y="0.5" width="48" height="49" stroke="#FCFCFC"/>
<rect x="1390.5" y="0.5" width="49" height="49" stroke="#FCFCFC"/>
<rect x="0.5" y="50.5" width="49" height="49" stroke="#FCFCFC"/>
<rect x="50.5" y="50.5" width="48" height="49" stroke="#FCFCFC"/>
<rect x="99.5" y="50.5" width="49" height="49" stroke="#FCFCFC"/>
<rect x="149.5" y="50.5" width="49" height="49" stroke="#FCFCFC"/>
<rect x="199.5" y="50.5" width="48" height="49" stroke="#FCFCFC"/>
<rect x="248.5" y="50.5" width="49" height="49" stroke="#FCFCFC"/>
<rect x="298.5" y="50.5" width="49" height="49" stroke="#FCFCFC"/>
<rect x="348.5" y="50.5" width="48" height="49" stroke="#FCFCFC"/>
<rect x="397.5" y="50.5" width="49" height="49" stroke="#FCFCFC"/>
<rect x="447.5" y="50.5" width="49" height="49" stroke="#FCFCFC"/>
<rect x="497.5" y="50.5" width="48" height="49" stroke="#FCFCFC"/>
<rect x="546.5" y="50.5" width="49" height="49" stroke="#FCFCFC"/>
<rect x="596.5" y="50.5" width="49" height="49" stroke="#FCFCFC"/>
<rect x="646.5" y="50.5" width="48" height="49" stroke="#FCFCFC"/>
<rect x="695.5" y="50.5" width="49" height="49" stroke="#FCFCFC"/>
<rect x="745.5" y="50.5" width="48" height="49" stroke="#FCFCFC"/>
<rect x="794.5" y="50.5" width="49" height="49" stroke="#FCFCFC"/>
<rect x="844.5" y="50.5" width="49" height="49" stroke="#FCFCFC"/>
<rect x="894.5" y="50.5" width="48" height="49" stroke="#FCFCFC"/>
<rect x="943.5" y="50.5" width="49" height="49" stroke="#FCFCFC"/>
<rect x="993.5" y="50.5" width="49" height="49" stroke="#FCFCFC"/>
<rect x="1043.5" y="50.5" width="48" height="49" stroke="#FCFCFC"/>
<rect x="1092.5" y="50.5" width="49" height="49" stroke="#FCFCFC"/>
<rect x="1142.5" y="50.5" width="49" height="49" stroke="#FCFCFC"/>
<rect x="1192.5" y="50.5" width="48" height="49" stroke="#FCFCFC"/>
<rect x="1241.5" y="50.5" width="49" height="49" stroke="#FCFCFC"/>
<rect x="1291.5" y="50.5" width="49" height="49" stroke="#FCFCFC"/>
<rect x="1341.5" y="50.5" width="48" height="49" stroke="#FCFCFC"/>
<rect x="1390.5" y="50.5" width="49" height="49" stroke="#FCFCFC"/>
<rect x="0.5" y="100.5" width="49" height="49" stroke="#FCFCFC"/>
<rect x="50.5" y="100.5" width="48" height="49" stroke="#FCFCFC"/>
<rect x="99.5" y="100.5" width="49" height="49" stroke="#FCFCFC"/>
<rect x="149.5" y="100.5" width="49" height="49" stroke="#FCFCFC"/>
<rect x="199.5" y="100.5" width="48" height="49" stroke="#FCFCFC"/>
<rect x="248.5" y="100.5" width="49" height="49" stroke="#FCFCFC"/>
<rect x="298.5" y="100.5" width="49" height="49" stroke="#FCFCFC"/>
<rect x="348.5" y="100.5" width="48" height="49" stroke="#FCFCFC"/>
<rect x="397.5" y="100.5" width="49" height="49" stroke="#FCFCFC"/>
<rect x="447.5" y="100.5" width="49" height="49" stroke="#FCFCFC"/>
<rect x="497.5" y="100.5" width="48" height="49" stroke="#FCFCFC"/>
<rect x="546.5" y="100.5" width="49" height="49" stroke="#FCFCFC"/>
<rect x="596.5" y="100.5" width="49" height="49" stroke="#FCFCFC"/>
<rect x="646.5" y="100.5" width="48" height="49" stroke="#FCFCFC"/>
<rect x="695.5" y="100.5" width="49" height="49" stroke="#FCFCFC"/>
<rect x="745.5" y="100.5" width="48" height="49" stroke="#FCFCFC"/>
<rect x="794.5" y="100.5" width="49" height="49" stroke="#FCFCFC"/>
<rect x="844.5" y="100.5" width="49" height="49" stroke="#FCFCFC"/>
<rect x="894.5" y="100.5" width="48" height="49" stroke="#FCFCFC"/>
<rect x="943.5" y="100.5" width="49" height="49" stroke="#FCFCFC"/>
<rect x="993.5" y="100.5" width="49" height="49" stroke="#FCFCFC"/>
<rect x="1043.5" y="100.5" width="48" height="49" stroke="#FCFCFC"/>
<rect x="1092.5" y="100.5" width="49" height="49" stroke="#FCFCFC"/>
<rect x="1142.5" y="100.5" width="49" height="49" stroke="#FCFCFC"/>
<rect x="1192.5" y="100.5" width="48" height="49" stroke="#FCFCFC"/>
<rect x="1241.5" y="100.5" width="49" height="49" stroke="#FCFCFC"/>
<rect x="1291.5" y="100.5" width="49" height="49" stroke="#FCFCFC"/>
<rect x="1341.5" y="100.5" width="48" height="49" stroke="#FCFCFC"/>
<rect x="1390.5" y="100.5" width="49" height="49" stroke="#FCFCFC"/>
<rect x="0.5" y="150.5" width="49" height="49" stroke="#FCFCFC"/>
<rect x="50.5" y="150.5" width="48" height="49" stroke="#FCFCFC"/>
<rect x="99.5" y="150.5" width="49" height="49" stroke="#FCFCFC"/>
<rect x="149.5" y="150.5" width="49" height="49" stroke="#FCFCFC"/>
<rect x="199.5" y="150.5" width="48" height="49" stroke="#FCFCFC"/>
<rect x="248.5" y="150.5" width="49" height="49" stroke="#FCFCFC"/>
<rect x="298.5" y="150.5" width="49" height="49" stroke="#FCFCFC"/>
<rect x="348.5" y="150.5" width="48" height="49" stroke="#FCFCFC"/>
<rect x="397.5" y="150.5" width="49" height="49" stroke="#FCFCFC"/>
<rect x="447.5" y="150.5" width="49" height="49" stroke="#FCFCFC"/>
<rect x="497.5" y="150.5" width="48" height="49" stroke="#FCFCFC"/>
<rect x="546.5" y="150.5" width="49" height="49" stroke="#FCFCFC"/>
<rect x="596.5" y="150.5" width="49" height="49" stroke="#FCFCFC"/>
<rect x="646.5" y="150.5" width="48" height="49" stroke="#FCFCFC"/>
<rect x="695.5" y="150.5" width="49" height="49" stroke="#FCFCFC"/>
<rect x="745.5" y="150.5" width="48" height="49" stroke="#FCFCFC"/>
<rect x="794.5" y="150.5" width="49" height="49" stroke="#FCFCFC"/>
<rect x="844.5" y="150.5" width="49" height="49" stroke="#FCFCFC"/>
<rect x="894.5" y="150.5" width="48" height="49" stroke="#FCFCFC"/>
<rect x="943.5" y="150.5" width="49" height="49" stroke="#FCFCFC"/>
<rect x="993.5" y="150.5" width="49" height="49" stroke="#FCFCFC"/>
<rect x="1043.5" y="150.5" width="48" height="49" stroke="#FCFCFC"/>
<rect x="1092.5" y="150.5" width="49" height="49" stroke="#FCFCFC"/>
<rect x="1142.5" y="150.5" width="49" height="49" stroke="#FCFCFC"/>
<rect x="1192.5" y="150.5" width="48" height="49" stroke="#FCFCFC"/>
<rect x="1241.5" y="150.5" width="49" height="49" stroke="#FCFCFC"/>
<rect x="1291.5" y="150.5" width="49" height="49" stroke="#FCFCFC"/>
<rect x="1341.5" y="150.5" width="48" height="49" stroke="#FCFCFC"/>
<rect x="1390.5" y="150.5" width="49" height="49" stroke="#FCFCFC"/>
<rect x="0.5" y="200.5" width="49" height="49" stroke="#FCFCFC"/>
<rect x="50.5" y="200.5" width="48" height="49" stroke="#FCFCFC"/>
<rect x="99.5" y="200.5" width="49" height="49" stroke="#FCFCFC"/>
<rect x="149.5" y="200.5" width="49" height="49" stroke="#FCFCFC"/>
<rect x="199.5" y="200.5" width="48" height="49" stroke="#FCFCFC"/>
<rect x="248.5" y="200.5" width="49" height="49" stroke="#FCFCFC"/>
<rect x="298.5" y="200.5" width="49" height="49" stroke="#FCFCFC"/>
<rect x="348.5" y="200.5" width="48" height="49" stroke="#FCFCFC"/>
<rect x="397.5" y="200.5" width="49" height="49" stroke="#FCFCFC"/>
<rect x="447.5" y="200.5" width="49" height="49" stroke="#FCFCFC"/>
<rect x="497.5" y="200.5" width="48" height="49" stroke="#FCFCFC"/>
<rect x="546.5" y="200.5" width="49" height="49" stroke="#FCFCFC"/>
<rect x="596.5" y="200.5" width="49" height="49" stroke="#FCFCFC"/>
<rect x="646.5" y="200.5" width="48" height="49" stroke="#FCFCFC"/>
<rect x="695.5" y="200.5" width="49" height="49" stroke="#FCFCFC"/>
<rect x="745.5" y="200.5" width="48" height="49" stroke="#FCFCFC"/>
<rect x="794.5" y="200.5" width="49" height="49" stroke="#FCFCFC"/>
<rect x="844.5" y="200.5" width="49" height="49" stroke="#FCFCFC"/>
<rect x="894.5" y="200.5" width="48" height="49" stroke="#FCFCFC"/>
<rect x="943.5" y="200.5" width="49" height="49" stroke="#FCFCFC"/>
<rect x="993.5" y="200.5" width="49" height="49" stroke="#FCFCFC"/>
<rect x="1043.5" y="200.5" width="48" height="49" stroke="#FCFCFC"/>
<rect x="1092.5" y="200.5" width="49" height="49" stroke="#FCFCFC"/>
<rect x="1142.5" y="200.5" width="49" height="49" stroke="#FCFCFC"/>
<rect x="1192.5" y="200.5" width="48" height="49" stroke="#FCFCFC"/>
<rect x="1341.5" y="200.5" width="48" height="49" stroke="#FCFCFC"/>
<rect x="1390.5" y="200.5" width="49" height="49" stroke="#FCFCFC"/>
<rect x="0.5" y="250.5" width="49" height="49" stroke="#FCFCFC"/>
<rect x="50.5" y="250.5" width="48" height="49" stroke="#FCFCFC"/>
<rect x="99.5" y="250.5" width="49" height="49" stroke="#FCFCFC"/>
<rect x="149.5" y="250.5" width="49" height="49" stroke="#FCFCFC"/>
<rect x="199.5" y="250.5" width="48" height="49" stroke="#FCFCFC"/>
<rect x="248.5" y="250.5" width="49" height="49" stroke="#FCFCFC"/>
<rect x="298.5" y="250.5" width="49" height="49" stroke="#FCFCFC"/>
<rect x="348.5" y="250.5" width="48" height="49" stroke="#FCFCFC"/>
<rect x="397.5" y="250.5" width="49" height="49" stroke="#FCFCFC"/>
<rect x="447.5" y="250.5" width="49" height="49" stroke="#FCFCFC"/>
<rect x="497.5" y="250.5" width="48" height="49" stroke="#FCFCFC"/>
<rect x="546.5" y="250.5" width="49" height="49" stroke="#FCFCFC"/>
<rect x="596.5" y="250.5" width="49" height="49" stroke="#FCFCFC"/>
<rect x="646.5" y="250.5" width="48" height="49" stroke="#FCFCFC"/>
<rect x="695.5" y="250.5" width="49" height="49" stroke="#FCFCFC"/>
<rect x="745.5" y="250.5" width="48" height="49" stroke="#FCFCFC"/>
<rect x="794.5" y="250.5" width="49" height="49" stroke="#FCFCFC"/>
<rect x="844.5" y="250.5" width="49" height="49" stroke="#FCFCFC"/>
<rect x="894.5" y="250.5" width="48" height="49" stroke="#FCFCFC"/>
<rect x="943.5" y="250.5" width="49" height="49" stroke="#FCFCFC"/>
<rect x="993.5" y="250.5" width="49" height="49" stroke="#FCFCFC"/>
<rect x="1043.5" y="250.5" width="48" height="49" stroke="#FCFCFC"/>
<rect x="1092.5" y="250.5" width="49" height="49" stroke="#FCFCFC"/>
<rect x="1142.5" y="250.5" width="49" height="49" stroke="#FCFCFC"/>
<rect x="1192.5" y="250.5" width="48" height="49" stroke="#FCFCFC"/>
<rect x="1241.5" y="250.5" width="49" height="49" stroke="#FCFCFC"/>
<rect x="1291.5" y="250.5" width="49" height="49" stroke="#FCFCFC"/>
<rect x="1341.5" y="250.5" width="48" height="49" stroke="#FCFCFC"/>
<rect x="1390.5" y="250.5" width="49" height="49" stroke="#FCFCFC"/>
<rect x="0.5" y="300.5" width="49" height="49" stroke="#FCFCFC"/>
<rect x="50.5" y="300.5" width="48" height="49" stroke="#FCFCFC"/>
<rect x="99.5" y="300.5" width="49" height="49" stroke="#FCFCFC"/>
<rect x="149.5" y="300.5" width="49" height="49" stroke="#FCFCFC"/>
<rect x="199.5" y="300.5" width="48" height="49" stroke="#FCFCFC"/>
<rect x="248.5" y="300.5" width="49" height="49" stroke="#FCFCFC"/>
<rect x="298.5" y="300.5" width="49" height="49" stroke="#FCFCFC"/>
<rect x="348.5" y="300.5" width="48" height="49" stroke="#FCFCFC"/>
<rect x="397.5" y="300.5" width="49" height="49" stroke="#FCFCFC"/>
<rect x="447.5" y="300.5" width="49" height="49" stroke="#FCFCFC"/>
<rect x="497.5" y="300.5" width="48" height="49" stroke="#FCFCFC"/>
<rect x="546.5" y="300.5" width="49" height="49" stroke="#FCFCFC"/>
<rect x="596.5" y="300.5" width="49" height="49" stroke="#FCFCFC"/>
<rect x="646.5" y="300.5" width="48" height="49" stroke="#FCFCFC"/>
<rect x="695.5" y="300.5" width="49" height="49" stroke="#FCFCFC"/>
<rect x="745.5" y="300.5" width="48" height="49" stroke="#FCFCFC"/>
<rect x="794.5" y="300.5" width="49" height="49" stroke="#FCFCFC"/>
<rect x="844.5" y="300.5" width="49" height="49" stroke="#FCFCFC"/>
<rect x="894.5" y="300.5" width="48" height="49" stroke="#FCFCFC"/>
<rect x="943.5" y="300.5" width="49" height="49" stroke="#FCFCFC"/>
<rect x="993.5" y="300.5" width="49" height="49" stroke="#FCFCFC"/>
<rect x="1043.5" y="300.5" width="48" height="49" stroke="#FCFCFC"/>
<rect x="1092.5" y="300.5" width="49" height="49" stroke="#FCFCFC"/>
<rect x="1142.5" y="300.5" width="49" height="49" stroke="#FCFCFC"/>
<rect x="1192.5" y="300.5" width="48" height="49" stroke="#FCFCFC"/>
<rect x="1241.5" y="300.5" width="49" height="49" stroke="#FCFCFC"/>
<rect x="1291.5" y="300.5" width="49" height="49" stroke="#FCFCFC"/>
<rect x="1341.5" y="300.5" width="48" height="49" stroke="#FCFCFC"/>
<rect x="1390.5" y="300.5" width="49" height="49" stroke="#FCFCFC"/>
<rect x="0.5" y="350.5" width="49" height="49" stroke="#FCFCFC"/>
<rect x="50.5" y="350.5" width="48" height="49" stroke="#FCFCFC"/>
<rect x="99.5" y="350.5" width="49" height="49" stroke="#FCFCFC"/>
<rect x="149.5" y="350.5" width="49" height="49" stroke="#FCFCFC"/>
<rect x="199.5" y="350.5" width="48" height="49" stroke="#FCFCFC"/>
<rect x="248.5" y="350.5" width="49" height="49" stroke="#FCFCFC"/>
<rect x="298.5" y="350.5" width="49" height="49" stroke="#FCFCFC"/>
<rect x="348.5" y="350.5" width="48" height="49" stroke="#FCFCFC"/>
<rect x="397.5" y="350.5" width="49" height="49" stroke="#FCFCFC"/>
<rect x="447.5" y="350.5" width="49" height="49" stroke="#FCFCFC"/>
<rect x="497.5" y="350.5" width="48" height="49" stroke="#FCFCFC"/>
<rect x="546.5" y="350.5" width="49" height="49" stroke="#FCFCFC"/>
<rect x="596.5" y="350.5" width="49" height="49" stroke="#FCFCFC"/>
<rect x="646.5" y="350.5" width="48" height="49" stroke="#FCFCFC"/>
<rect x="695.5" y="350.5" width="49" height="49" stroke="#FCFCFC"/>
<rect x="745.5" y="350.5" width="48" height="49" stroke="#FCFCFC"/>
<rect x="794.5" y="350.5" width="49" height="49" stroke="#FCFCFC"/>
<rect x="844.5" y="350.5" width="49" height="49" stroke="#FCFCFC"/>
<rect x="894.5" y="350.5" width="48" height="49" stroke="#FCFCFC"/>
<rect x="943.5" y="350.5" width="49" height="49" stroke="#FCFCFC"/>
<rect x="993.5" y="350.5" width="49" height="49" stroke="#FCFCFC"/>
<rect x="1043.5" y="350.5" width="48" height="49" stroke="#FCFCFC"/>
<rect x="1092.5" y="350.5" width="49" height="49" stroke="#FCFCFC"/>
<rect x="1142.5" y="350.5" width="49" height="49" stroke="#FCFCFC"/>
<rect x="1192.5" y="350.5" width="48" height="49" stroke="#FCFCFC"/>
<rect x="1241.5" y="350.5" width="49" height="49" stroke="#FCFCFC"/>
<rect x="1291.5" y="350.5" width="49" height="49" stroke="#FCFCFC"/>
<rect x="1341.5" y="350.5" width="48" height="49" stroke="#FCFCFC"/>
<rect x="1390.5" y="350.5" width="49" height="49" stroke="#FCFCFC"/>
<rect x="0.5" y="400.5" width="49" height="49" stroke="#FCFCFC"/>
<rect x="50.5" y="400.5" width="48" height="49" stroke="#FCFCFC"/>
<rect x="99.5" y="400.5" width="49" height="49" stroke="#FCFCFC"/>
<rect x="149.5" y="400.5" width="49" height="49" stroke="#FCFCFC"/>
<rect x="199.5" y="400.5" width="48" height="49" stroke="#FCFCFC"/>
<rect x="248.5" y="400.5" width="49" height="49" stroke="#FCFCFC"/>
<rect x="298.5" y="400.5" width="49" height="49" stroke="#FCFCFC"/>
<rect x="348.5" y="400.5" width="48" height="49" stroke="#FCFCFC"/>
<rect x="397.5" y="400.5" width="49" height="49" stroke="#FCFCFC"/>
<rect x="447.5" y="400.5" width="49" height="49" stroke="#FCFCFC"/>
<rect x="497.5" y="400.5" width="48" height="49" stroke="#FCFCFC"/>
<rect x="546.5" y="400.5" width="49" height="49" stroke="#FCFCFC"/>
<rect x="596.5" y="400.5" width="49" height="49" stroke="#FCFCFC"/>
<rect x="646.5" y="400.5" width="48" height="49" stroke="#FCFCFC"/>
<rect x="695.5" y="400.5" width="49" height="49" stroke="#FCFCFC"/>
<rect x="745.5" y="400.5" width="48" height="49" stroke="#FCFCFC"/>
<rect x="794.5" y="400.5" width="49" height="49" stroke="#FCFCFC"/>
<rect x="844.5" y="400.5" width="49" height="49" stroke="#FCFCFC"/>
<rect x="894.5" y="400.5" width="48" height="49" stroke="#FCFCFC"/>
<rect x="943.5" y="400.5" width="49" height="49" stroke="#FCFCFC"/>
<rect x="993.5" y="400.5" width="49" height="49" stroke="#FCFCFC"/>
<rect x="1043.5" y="400.5" width="48" height="49" stroke="#FCFCFC"/>
<rect x="1092.5" y="400.5" width="49" height="49" stroke="#FCFCFC"/>
<rect x="1142.5" y="400.5" width="49" height="49" stroke="#FCFCFC"/>
<rect x="1192.5" y="400.5" width="48" height="49" stroke="#FCFCFC"/>
<rect x="1241.5" y="400.5" width="49" height="49" stroke="#FCFCFC"/>
<rect x="1291.5" y="400.5" width="49" height="49" stroke="#FCFCFC"/>
<rect x="1341.5" y="400.5" width="48" height="49" stroke="#FCFCFC"/>
<rect x="1390.5" y="400.5" width="49" height="49" stroke="#FCFCFC"/>
<rect x="0.5" y="450.5" width="49" height="49" stroke="#FCFCFC"/>
<rect x="50.5" y="450.5" width="48" height="49" stroke="#FCFCFC"/>
<rect x="99.5" y="450.5" width="49" height="49" stroke="#FCFCFC"/>
<rect x="149.5" y="450.5" width="49" height="49" stroke="#FCFCFC"/>
<rect x="199.5" y="450.5" width="48" height="49" stroke="#FCFCFC"/>
<rect x="248.5" y="450.5" width="49" height="49" stroke="#FCFCFC"/>
<rect x="298.5" y="450.5" width="49" height="49" stroke="#FCFCFC"/>
<rect x="348.5" y="450.5" width="48" height="49" stroke="#FCFCFC"/>
<rect x="397.5" y="450.5" width="49" height="49" stroke="#FCFCFC"/>
<rect x="447.5" y="450.5" width="49" height="49" stroke="#FCFCFC"/>
<rect x="497.5" y="450.5" width="48" height="49" stroke="#FCFCFC"/>
<rect x="546.5" y="450.5" width="49" height="49" stroke="#FCFCFC"/>
<rect x="596.5" y="450.5" width="49" height="49" stroke="#FCFCFC"/>
<rect x="646.5" y="450.5" width="48" height="49" stroke="#FCFCFC"/>
<rect x="695.5" y="450.5" width="49" height="49" stroke="#FCFCFC"/>
<rect x="745.5" y="450.5" width="48" height="49" stroke="#FCFCFC"/>
<rect x="794.5" y="450.5" width="49" height="49" stroke="#FCFCFC"/>
<rect x="844.5" y="450.5" width="49" height="49" stroke="#FCFCFC"/>
<rect x="894.5" y="450.5" width="48" height="49" stroke="#FCFCFC"/>
<rect x="943.5" y="450.5" width="49" height="49" stroke="#FCFCFC"/>
<rect x="993.5" y="450.5" width="49" height="49" stroke="#FCFCFC"/>
<rect x="1043.5" y="450.5" width="48" height="49" stroke="#FCFCFC"/>
<rect x="1092.5" y="450.5" width="49" height="49" stroke="#FCFCFC"/>
<rect x="1142.5" y="450.5" width="49" height="49" stroke="#FCFCFC"/>
<rect x="1192.5" y="450.5" width="48" height="49" stroke="#FCFCFC"/>
<rect x="1241.5" y="450.5" width="49" height="49" stroke="#FCFCFC"/>
<rect x="1291.5" y="450.5" width="49" height="49" stroke="#FCFCFC"/>
<rect x="1341.5" y="450.5" width="48" height="49" stroke="#FCFCFC"/>
<rect x="1390.5" y="450.5" width="49" height="49" stroke="#FCFCFC"/>
<rect x="0.5" y="500.5" width="49" height="49" stroke="#FCFCFC"/>
<rect x="50.5" y="500.5" width="48" height="49" stroke="#FCFCFC"/>
<rect x="99.5" y="500.5" width="49" height="49" stroke="#FCFCFC"/>
<rect x="149.5" y="500.5" width="49" height="49" stroke="#FCFCFC"/>
<rect x="199.5" y="500.5" width="48" height="49" stroke="#FCFCFC"/>
<rect x="248.5" y="500.5" width="49" height="49" stroke="#FCFCFC"/>
<rect x="298.5" y="500.5" width="49" height="49" stroke="#FCFCFC"/>
<rect x="348.5" y="500.5" width="48" height="49" stroke="#FCFCFC"/>
<rect x="397.5" y="500.5" width="49" height="49" stroke="#FCFCFC"/>
<rect x="447.5" y="500.5" width="49" height="49" stroke="#FCFCFC"/>
<rect x="497.5" y="500.5" width="48" height="49" stroke="#FCFCFC"/>
<rect x="546.5" y="500.5" width="49" height="49" stroke="#FCFCFC"/>
<rect x="596.5" y="500.5" width="49" height="49" stroke="#FCFCFC"/>
<rect x="646.5" y="500.5" width="48" height="49" stroke="#FCFCFC"/>
<rect x="695.5" y="500.5" width="49" height="49" stroke="#FCFCFC"/>
<rect x="745.5" y="500.5" width="48" height="49" stroke="#FCFCFC"/>
<rect x="794.5" y="500.5" width="49" height="49" stroke="#FCFCFC"/>
<rect x="844.5" y="500.5" width="49" height="49" stroke="#FCFCFC"/>
<rect x="894.5" y="500.5" width="48" height="49" stroke="#FCFCFC"/>
<rect x="943.5" y="500.5" width="49" height="49" stroke="#FCFCFC"/>
<rect x="993.5" y="500.5" width="49" height="49" stroke="#FCFCFC"/>
<rect x="1043.5" y="500.5" width="48" height="49" stroke="#FCFCFC"/>
<rect x="1092.5" y="500.5" width="49" height="49" stroke="#FCFCFC"/>
<rect x="1142.5" y="500.5" width="49" height="49" stroke="#FCFCFC"/>
<rect x="1192.5" y="500.5" width="48" height="49" stroke="#FCFCFC"/>
<rect x="1241.5" y="500.5" width="49" height="49" stroke="#FCFCFC"/>
<rect x="1291.5" y="500.5" width="49" height="49" stroke="#FCFCFC"/>
<rect x="1341.5" y="500.5" width="48" height="49" stroke="#FCFCFC"/>
<rect x="1390.5" y="500.5" width="49" height="49" stroke="#FCFCFC"/>
<rect x="0.5" y="550.5" width="49" height="49" stroke="#FCFCFC"/>
<rect x="50.5" y="550.5" width="48" height="49" stroke="#FCFCFC"/>
<rect x="99.5" y="550.5" width="49" height="49" stroke="#FCFCFC"/>
<rect x="149.5" y="550.5" width="49" height="49" stroke="#FCFCFC"/>
<rect x="199.5" y="550.5" width="48" height="49" stroke="#FCFCFC"/>
<rect x="248.5" y="550.5" width="49" height="49" stroke="#FCFCFC"/>
<rect x="298.5" y="550.5" width="49" height="49" stroke="#FCFCFC"/>
<rect x="348.5" y="550.5" width="48" height="49" stroke="#FCFCFC"/>
<rect x="397.5" y="550.5" width="49" height="49" stroke="#FCFCFC"/>
<rect x="447.5" y="550.5" width="49" height="49" stroke="#FCFCFC"/>
<rect x="497.5" y="550.5" width="48" height="49" stroke="#FCFCFC"/>
<rect x="546.5" y="550.5" width="49" height="49" stroke="#FCFCFC"/>
<rect x="596.5" y="550.5" width="49" height="49" stroke="#FCFCFC"/>
<rect x="646.5" y="550.5" width="48" height="49" stroke="#FCFCFC"/>
<rect x="695.5" y="550.5" width="49" height="49" stroke="#FCFCFC"/>
<rect x="745.5" y="550.5" width="48" height="49" stroke="#FCFCFC"/>
<rect x="794.5" y="550.5" width="49" height="49" stroke="#FCFCFC"/>
<rect x="844.5" y="550.5" width="49" height="49" stroke="#FCFCFC"/>
<rect x="894.5" y="550.5" width="48" height="49" stroke="#FCFCFC"/>
<rect x="943.5" y="550.5" width="49" height="49" stroke="#FCFCFC"/>
<rect x="993.5" y="550.5" width="49" height="49" stroke="#FCFCFC"/>
<rect x="1043.5" y="550.5" width="48" height="49" stroke="#FCFCFC"/>
<rect x="1092.5" y="550.5" width="49" height="49" stroke="#FCFCFC"/>
<rect x="1142.5" y="550.5" width="49" height="49" stroke="#FCFCFC"/>
<rect x="1192.5" y="550.5" width="48" height="49" stroke="#FCFCFC"/>
<rect x="1241.5" y="550.5" width="49" height="49" stroke="#FCFCFC"/>
<rect x="1291.5" y="550.5" width="49" height="49" stroke="#FCFCFC"/>
<rect x="1341.5" y="550.5" width="48" height="49" stroke="#FCFCFC"/>
<rect x="1390.5" y="550.5" width="49" height="49" stroke="#FCFCFC"/>
<rect x="0.5" y="600.5" width="49" height="49" stroke="#FCFCFC"/>
<rect x="50.5" y="600.5" width="48" height="49" stroke="#FCFCFC"/>
<rect x="99.5" y="600.5" width="49" height="49" stroke="#FCFCFC"/>
<rect x="149.5" y="600.5" width="49" height="49" stroke="#FCFCFC"/>
<rect x="199.5" y="600.5" width="48" height="49" stroke="#FCFCFC"/>
<rect x="248.5" y="600.5" width="49" height="49" stroke="#FCFCFC"/>
<rect x="298.5" y="600.5" width="49" height="49" stroke="#FCFCFC"/>
<rect x="348.5" y="600.5" width="48" height="49" stroke="#FCFCFC"/>
<rect x="397.5" y="600.5" width="49" height="49" stroke="#FCFCFC"/>
<rect x="447.5" y="600.5" width="49" height="49" stroke="#FCFCFC"/>
<rect x="497.5" y="600.5" width="48" height="49" stroke="#FCFCFC"/>
<rect x="546.5" y="600.5" width="49" height="49" stroke="#FCFCFC"/>
<rect x="596.5" y="600.5" width="49" height="49" stroke="#FCFCFC"/>
<rect x="646.5" y="600.5" width="48" height="49" stroke="#FCFCFC"/>
<rect x="695.5" y="600.5" width="49" height="49" stroke="#FCFCFC"/>
<rect x="745.5" y="600.5" width="48" height="49" stroke="#FCFCFC"/>
<rect x="794.5" y="600.5" width="49" height="49" stroke="#FCFCFC"/>
<rect x="844.5" y="600.5" width="49" height="49" stroke="#FCFCFC"/>
<rect x="894.5" y="600.5" width="48" height="49" stroke="#FCFCFC"/>
<rect x="943.5" y="600.5" width="49" height="49" stroke="#FCFCFC"/>
<rect x="993.5" y="600.5" width="49" height="49" stroke="#FCFCFC"/>
<rect x="1043.5" y="600.5" width="48" height="49" stroke="#FCFCFC"/>
<rect x="1092.5" y="600.5" width="49" height="49" stroke="#FCFCFC"/>
<rect x="1142.5" y="600.5" width="49" height="49" stroke="#FCFCFC"/>
<rect x="1192.5" y="600.5" width="48" height="49" stroke="#FCFCFC"/>
<rect x="1241.5" y="600.5" width="49" height="49" stroke="#FCFCFC"/>
<rect x="1291.5" y="600.5" width="49" height="49" stroke="#FCFCFC"/>
<rect x="1341.5" y="600.5" width="48" height="49" stroke="#FCFCFC"/>
<rect x="1390.5" y="600.5" width="49" height="49" stroke="#FCFCFC"/>
<rect x="0.5" y="650.5" width="49" height="49" stroke="#FCFCFC"/>
<rect x="50.5" y="650.5" width="48" height="49" stroke="#FCFCFC"/>
<rect x="99.5" y="650.5" width="49" height="49" stroke="#FCFCFC"/>
<rect x="149.5" y="650.5" width="49" height="49" stroke="#FCFCFC"/>
<rect x="199.5" y="650.5" width="48" height="49" stroke="#FCFCFC"/>
<rect x="248.5" y="650.5" width="49" height="49" stroke="#FCFCFC"/>
<rect x="298.5" y="650.5" width="49" height="49" stroke="#FCFCFC"/>
<rect x="348.5" y="650.5" width="48" height="49" stroke="#FCFCFC"/>
<rect x="397.5" y="650.5" width="49" height="49" stroke="#FCFCFC"/>
<rect x="447.5" y="650.5" width="49" height="49" stroke="#FCFCFC"/>
<rect x="497.5" y="650.5" width="48" height="49" stroke="#FCFCFC"/>
<rect x="546.5" y="650.5" width="49" height="49" stroke="#FCFCFC"/>
<rect x="596.5" y="650.5" width="49" height="49" stroke="#FCFCFC"/>
<rect x="646.5" y="650.5" width="48" height="49" stroke="#FCFCFC"/>
<rect x="695.5" y="650.5" width="49" height="49" stroke="#FCFCFC"/>
<rect x="745.5" y="650.5" width="48" height="49" stroke="#FCFCFC"/>
<rect x="794.5" y="650.5" width="49" height="49" stroke="#FCFCFC"/>
<rect x="844.5" y="650.5" width="49" height="49" stroke="#FCFCFC"/>
<rect x="894.5" y="650.5" width="48" height="49" stroke="#FCFCFC"/>
<rect x="943.5" y="650.5" width="49" height="49" stroke="#FCFCFC"/>
<rect x="993.5" y="650.5" width="49" height="49" stroke="#FCFCFC"/>
<rect x="1043.5" y="650.5" width="48" height="49" stroke="#FCFCFC"/>
<rect x="1092.5" y="650.5" width="49" height="49" stroke="#FCFCFC"/>
<rect x="1142.5" y="650.5" width="49" height="49" stroke="#FCFCFC"/>
<rect x="1192.5" y="650.5" width="48" height="49" stroke="#FCFCFC"/>
<rect x="1241.5" y="650.5" width="49" height="49" stroke="#FCFCFC"/>
<rect x="1291.5" y="650.5" width="49" height="49" stroke="#FCFCFC"/>
<rect x="1341.5" y="650.5" width="48" height="49" stroke="#FCFCFC"/>
<rect x="1390.5" y="650.5" width="49" height="49" stroke="#FCFCFC"/>
<rect x="0.5" y="700.5" width="49" height="49" stroke="#FCFCFC"/>
<rect x="50.5" y="700.5" width="48" height="49" stroke="#FCFCFC"/>
<rect x="99.5" y="700.5" width="49" height="49" stroke="#FCFCFC"/>
<rect x="149.5" y="700.5" width="49" height="49" stroke="#FCFCFC"/>
<rect x="199.5" y="700.5" width="48" height="49" stroke="#FCFCFC"/>
<rect x="248.5" y="700.5" width="49" height="49" stroke="#FCFCFC"/>
<rect x="298.5" y="700.5" width="49" height="49" stroke="#FCFCFC"/>
<rect x="348.5" y="700.5" width="48" height="49" stroke="#FCFCFC"/>
<rect x="397.5" y="700.5" width="49" height="49" stroke="#FCFCFC"/>
<rect x="447.5" y="700.5" width="49" height="49" stroke="#FCFCFC"/>
<rect x="497.5" y="700.5" width="48" height="49" stroke="#FCFCFC"/>
<rect x="546.5" y="700.5" width="49" height="49" stroke="#FCFCFC"/>
<rect x="596.5" y="700.5" width="49" height="49" stroke="#FCFCFC"/>
<rect x="646.5" y="700.5" width="48" height="49" stroke="#FCFCFC"/>
<rect x="695.5" y="700.5" width="49" height="49" stroke="#FCFCFC"/>
<rect x="745.5" y="700.5" width="48" height="49" stroke="#FCFCFC"/>
<rect x="794.5" y="700.5" width="49" height="49" stroke="#FCFCFC"/>
<rect x="844.5" y="700.5" width="49" height="49" stroke="#FCFCFC"/>
<rect x="894.5" y="700.5" width="48" height="49" stroke="#FCFCFC"/>
<rect x="943.5" y="700.5" width="49" height="49" stroke="#FCFCFC"/>
<rect x="993.5" y="700.5" width="49" height="49" stroke="#FCFCFC"/>
<rect x="1043.5" y="700.5" width="48" height="49" stroke="#FCFCFC"/>
<rect x="1092.5" y="700.5" width="49" height="49" stroke="#FCFCFC"/>
<rect x="1142.5" y="700.5" width="49" height="49" stroke="#FCFCFC"/>
<rect x="1192.5" y="700.5" width="48" height="49" stroke="#FCFCFC"/>
<rect x="1241.5" y="700.5" width="49" height="49" stroke="#FCFCFC"/>
<rect x="1291.5" y="700.5" width="49" height="49" stroke="#FCFCFC"/>
<rect x="1341.5" y="700.5" width="48" height="49" stroke="#FCFCFC"/>
<rect x="1390.5" y="700.5" width="49" height="49" stroke="#FCFCFC"/>
<rect x="0.5" y="750.5" width="49" height="49" stroke="#FCFCFC"/>
<rect x="50.5" y="750.5" width="48" height="49" stroke="#FCFCFC"/>
<rect x="99.5" y="750.5" width="49" height="49" stroke="#FCFCFC"/>
<rect x="149.5" y="750.5" width="49" height="49" stroke="#FCFCFC"/>
<rect x="199.5" y="750.5" width="48" height="49" stroke="#FCFCFC"/>
<rect x="248.5" y="750.5" width="49" height="49" stroke="#FCFCFC"/>
<rect x="298.5" y="750.5" width="49" height="49" stroke="#FCFCFC"/>
<rect x="348.5" y="750.5" width="48" height="49" stroke="#FCFCFC"/>
<rect x="397.5" y="750.5" width="49" height="49" stroke="#FCFCFC"/>
<rect x="447.5" y="750.5" width="49" height="49" stroke="#FCFCFC"/>
<rect x="497.5" y="750.5" width="48" height="49" stroke="#FCFCFC"/>
<rect x="546.5" y="750.5" width="49" height="49" stroke="#FCFCFC"/>
<rect x="596.5" y="750.5" width="49" height="49" stroke="#FCFCFC"/>
<rect x="646.5" y="750.5" width="48" height="49" stroke="#FCFCFC"/>
<rect x="695.5" y="750.5" width="49" height="49" stroke="#FCFCFC"/>
<rect x="745.5" y="750.5" width="48" height="49" stroke="#FCFCFC"/>
<rect x="794.5" y="750.5" width="49" height="49" stroke="#FCFCFC"/>
<rect x="844.5" y="750.5" width="49" height="49" stroke="#FCFCFC"/>
<rect x="894.5" y="750.5" width="48" height="49" stroke="#FCFCFC"/>
<rect x="943.5" y="750.5" width="49" height="49" stroke="#FCFCFC"/>
<rect x="993.5" y="750.5" width="49" height="49" stroke="#FCFCFC"/>
<rect x="1043.5" y="750.5" width="48" height="49" stroke="#FCFCFC"/>
<rect x="1092.5" y="750.5" width="49" height="49" stroke="#FCFCFC"/>
<rect x="1142.5" y="750.5" width="49" height="49" stroke="#FCFCFC"/>
<rect x="1192.5" y="750.5" width="48" height="49" stroke="#FCFCFC"/>
<rect x="1241.5" y="750.5" width="49" height="49" stroke="#FCFCFC"/>
<rect x="1291.5" y="750.5" width="49" height="49" stroke="#FCFCFC"/>
<rect x="1341.5" y="750.5" width="48" height="49" stroke="#FCFCFC"/>
<rect x="1390.5" y="750.5" width="49" height="49" stroke="#FCFCFC"/>
<g opacity="0.12" filter="url(#filter0_f_521_49724)">
<ellipse cx="1602.14" cy="737.465" rx="455.1" ry="106.545" transform="rotate(-120.392 1602.14 737.465)" fill="url(#paint0_linear_521_49724)"/>
</g>
<g opacity="0.05" filter="url(#filter1_bf_521_49724)">
<ellipse cx="-27.4625" cy="400.209" rx="455.1" ry="106.545" transform="rotate(-90.3769 -27.4625 400.209)" fill="#1364FF"/>
</g>
</g>
<defs>
<filter id="filter0_f_521_49724" x="1154.17" y="141.171" width="895.943" height="1192.59" filterUnits="userSpaceOnUse" color-interpolation-filters="sRGB">
<feFlood flood-opacity="0" result="BackgroundImageFix"/>
<feBlend mode="normal" in="SourceGraphic" in2="BackgroundImageFix" result="shape"/>
<feGaussianBlur stdDeviation="100" result="effect1_foregroundBlur_521_49724"/>
</filter>
<filter id="filter1_bf_521_49724" x="-334.049" y="-254.882" width="613.172" height="1310.18" filterUnits="userSpaceOnUse" color-interpolation-filters="sRGB">
<feFlood flood-opacity="0" result="BackgroundImageFix"/>
<feGaussianBlur in="BackgroundImageFix" stdDeviation="5"/>
<feComposite in2="SourceAlpha" operator="in" result="effect1_backgroundBlur_521_49724"/>
<feBlend mode="normal" in="SourceGraphic" in2="effect1_backgroundBlur_521_49724" result="shape"/>
<feGaussianBlur stdDeviation="100" result="effect2_foregroundBlur_521_49724"/>
</filter>
<linearGradient id="paint0_linear_521_49724" x1="1147.04" y1="736.74" x2="2057.24" y2="736.74" gradientUnits="userSpaceOnUse">
<stop stop-color="#635BFF"/>
<stop offset="1" stop-color="#EA1C70"/>
</linearGradient>
<clipPath id="clip0_521_49724">
<rect width="1440" height="800" fill="white"/>
</clipPath>
</defs>
</svg>
