<svg width="81" height="241" viewBox="0 0 81 241" fill="none" xmlns="http://www.w3.org/2000/svg">
<path d="M35.6693 145.259L34.1784 145.425L35.6693 145.259ZM76.7904 240.485C77.6107 240.601 78.3695 240.03 78.4853 239.21L80.3717 225.842C80.4874 225.022 79.9163 224.263 79.096 224.147C78.2757 224.031 77.5169 224.603 77.4011 225.423L75.7243 237.305L63.842 235.628C63.0217 235.513 62.2629 236.084 62.1472 236.904C62.0314 237.724 62.6025 238.483 63.4228 238.599L76.7904 240.485ZM77 1C75.7056 0.242002 75.7053 0.242563 75.7048 0.243438C75.7044 0.244147 75.7037 0.245335 75.7028 0.246754C75.7012 0.24959 75.6988 0.253677 75.6957 0.259009C75.6895 0.269673 75.6803 0.285315 75.6684 0.305886C75.6445 0.347029 75.6091 0.40789 75.5629 0.488078C75.4703 0.648453 75.3338 0.88614 75.1565 1.198C74.8018 1.82173 74.284 2.7422 73.6283 3.93437C72.3168 6.3186 70.4532 9.79004 68.2395 14.1481C63.8128 22.8626 57.9821 35.1299 52.3656 49.3434C41.1553 77.7128 30.7043 114.064 34.1784 145.425L37.1602 145.094C33.7703 114.495 43.9846 78.7162 55.1557 50.4459C60.7298 36.3396 66.5189 24.1595 70.9142 15.5067C73.1115 11.181 74.9595 7.73879 76.2568 5.38026C76.9055 4.20103 77.4164 3.29286 77.7644 2.68077C77.9384 2.37473 78.0717 2.14272 78.1611 1.98788C78.2057 1.91046 78.2395 1.85233 78.2618 1.81389C78.273 1.79466 78.2813 1.78036 78.2868 1.77103C78.2895 1.76637 78.2915 1.76294 78.2928 1.76077C78.2934 1.75968 78.2938 1.75899 78.2941 1.75844C78.2943 1.75806 78.2944 1.758 77 1ZM34.1784 145.425C36.7324 168.479 47.1747 192.119 56.91 209.923C61.7861 218.841 66.5033 226.328 70.0025 231.587C71.7525 234.217 73.1987 236.291 74.2091 237.71C74.7143 238.419 75.1106 238.965 75.3815 239.334C75.5169 239.519 75.621 239.66 75.6917 239.755C75.7271 239.803 75.7541 239.839 75.7725 239.863C75.7817 239.876 75.7887 239.885 75.7936 239.891C75.796 239.895 75.7979 239.897 75.7992 239.899C75.7999 239.9 75.8004 239.901 75.8008 239.901C75.8012 239.902 75.8015 239.902 77 239C78.1985 238.098 78.1985 238.098 78.1984 238.098C78.1982 238.098 78.1979 238.097 78.1975 238.097C78.1966 238.096 78.1952 238.094 78.1932 238.091C78.1893 238.086 78.1832 238.078 78.1749 238.067C78.1584 238.044 78.1332 238.011 78.0998 237.966C78.0328 237.876 77.9326 237.74 77.801 237.561C77.5379 237.202 77.1497 236.667 76.6528 235.969C75.659 234.574 74.2309 232.526 72.5002 229.925C69.038 224.721 64.3682 217.31 59.5422 208.484C49.873 190.8 39.65 167.569 37.1602 145.094L34.1784 145.425Z" fill="url(#paint0_linear_521_52327)"/>
<path d="M20.2203 159.045L8.64422 160.228L8.3942 157.78L17.9524 156.804L17.4454 151.841L19.4633 151.635L20.2203 159.045Z" fill="#1364FF"/>
<path d="M19.3196 149.254L10.6053 149.73L10.4735 147.313L19.1878 146.838L19.3196 149.254ZM9.41578 148.577C9.43538 148.936 9.33304 149.251 9.10879 149.521C8.88054 149.788 8.59811 149.93 8.26149 149.949C7.92865 149.967 7.63618 149.856 7.38408 149.615C7.12799 149.371 6.99014 149.069 6.97055 148.71C6.95096 148.351 7.05528 148.038 7.28353 147.771C7.50778 147.501 7.78633 147.357 8.11917 147.339C8.45579 147.32 8.75215 147.433 9.00824 147.677C9.26034 147.918 9.39619 148.218 9.41578 148.577Z" fill="#1364FF"/>
<path d="M10.2925 136.438L19.0278 139.466L19.0351 142.193L10.3159 145.268L10.3091 142.711L16.5486 140.882L16.5484 140.791L10.2993 139.001L10.2925 136.438Z" fill="#1364FF"/>
<path d="M19.4867 130.81C19.4331 131.706 19.2055 132.467 18.8038 133.092C18.3986 133.712 17.851 134.177 17.1609 134.485C16.4671 134.792 15.6607 134.919 14.7419 134.864C13.8458 134.81 13.0697 134.589 12.4137 134.201C11.7577 133.812 11.2595 133.291 10.9191 132.637C10.579 131.979 10.4345 131.223 10.4856 130.369C10.52 129.794 10.6446 129.264 10.8595 128.78C11.0708 128.292 11.371 127.873 11.7599 127.525C12.1491 127.172 12.6278 126.909 13.196 126.734C13.7605 126.559 14.4133 126.494 15.1544 126.538L15.818 126.578L15.3781 133.934L13.8808 133.845L14.1847 128.763C13.8368 128.742 13.5241 128.799 13.2466 128.934C12.9691 129.07 12.7467 129.267 12.5794 129.526C12.4085 129.782 12.3126 130.085 12.2916 130.437C12.2696 130.804 12.3353 131.134 12.4885 131.428C12.6381 131.717 12.85 131.95 13.1241 132.126C13.3944 132.301 13.7014 132.401 14.0453 132.426L15.4689 132.511C15.8999 132.537 16.2771 132.479 16.6005 132.339C16.924 132.196 17.1797 131.981 17.3675 131.697C17.5553 131.412 17.6612 131.067 17.6854 130.663C17.7015 130.394 17.6784 130.146 17.6161 129.918C17.5538 129.691 17.4518 129.493 17.3101 129.325C17.1683 129.157 16.9903 129.025 16.7759 128.929L17.057 126.703C17.5872 126.849 18.0421 127.109 18.4219 127.485C18.7981 127.857 19.0813 128.325 19.2713 128.89C19.4578 129.452 19.5296 130.092 19.4867 130.81Z" fill="#1364FF"/>
<path d="M20.6276 117.144L20.0793 121.232L8.54617 119.686L9.09897 115.564C9.25453 114.403 9.61934 113.436 10.1934 112.661C10.7637 111.885 11.5089 111.329 12.429 110.994C13.3497 110.655 14.4088 110.566 15.6064 110.726C16.8078 110.888 17.8098 111.253 18.6123 111.823C19.4154 112.389 19.9912 113.126 20.3397 114.033C20.6887 114.935 20.7846 115.973 20.6276 117.144ZM18.317 118.514L18.5247 116.965C18.6214 116.244 18.575 115.621 18.3857 115.095C18.1931 114.565 17.8431 114.139 17.3357 113.819C16.8251 113.494 16.1399 113.275 15.2802 113.159C14.428 113.045 13.7147 113.077 13.1403 113.256C12.5665 113.432 12.119 113.748 11.7977 114.206C11.4765 114.663 11.2675 115.252 11.1709 115.973L10.9624 117.527L18.317 118.514Z" fill="#1364FF"/>
<path d="M22.5782 105.699C22.4197 106.583 22.1043 107.312 21.632 107.885C21.1566 108.454 20.5582 108.851 19.8368 109.075C19.1116 109.299 18.296 109.33 17.39 109.167C16.5064 109.009 15.7617 108.698 15.1558 108.236C14.55 107.773 14.1165 107.197 13.8553 106.507C13.5948 105.814 13.5402 105.046 13.6913 104.203C13.793 103.637 13.979 103.126 14.2493 102.67C14.5165 102.21 14.8638 101.83 15.291 101.529C15.7188 101.225 16.2252 101.019 16.81 100.913C17.3912 100.805 18.0471 100.817 18.7779 100.948L19.4322 101.066L18.131 108.319L16.6546 108.054L17.5535 103.043C17.2105 102.982 16.8932 103.002 16.6018 103.103C16.3103 103.205 16.0662 103.375 15.8696 103.613C15.6699 103.846 15.539 104.137 15.4768 104.483C15.4119 104.845 15.4383 105.181 15.5559 105.49C15.6705 105.796 15.8535 106.052 16.105 106.259C16.3529 106.465 16.6461 106.6 16.9847 106.665L18.3884 106.916C18.8134 106.993 19.1947 106.98 19.5323 106.879C19.8705 106.774 20.1496 106.592 20.3695 106.331C20.5895 106.07 20.7352 105.74 20.8068 105.341C20.8543 105.077 20.8604 104.828 20.8253 104.594C20.7902 104.361 20.7122 104.153 20.5911 103.969C20.4701 103.786 20.3088 103.634 20.1073 103.513L20.6479 101.336C21.1573 101.542 21.5785 101.855 21.9115 102.272C22.2414 102.685 22.4676 103.184 22.5899 103.768C22.7092 104.347 22.7053 104.991 22.5782 105.699Z" fill="#1364FF"/>
<path d="M23.4167 99.9958L14.8995 98.0924L15.4026 95.8411L16.9053 96.177L16.9276 96.0772C16.4682 95.7882 16.1406 95.4045 15.9448 94.926C15.749 94.4475 15.7155 93.92 15.8444 93.3433C15.9749 92.7592 16.232 92.2946 16.6158 91.9496C16.9958 91.6037 17.4488 91.4177 17.9747 91.3916L17.9945 91.3029C17.5454 91.0201 17.2256 90.6187 17.0352 90.0987C16.8419 89.5743 16.8151 88.9997 16.9547 88.3749C17.1323 87.5801 17.5297 86.9916 18.1468 86.6095C18.7611 86.2228 19.5303 86.1327 20.4545 86.3392L26.1825 87.6193L25.6559 89.9759L20.3936 88.7999C19.9205 88.6942 19.5375 88.7406 19.2447 88.9391C18.952 89.1376 18.7634 89.4254 18.6792 89.8024C18.5833 90.2313 18.6454 90.5964 18.8652 90.8978C19.0814 91.1984 19.4113 91.3982 19.8549 91.4974L25.0561 92.6597L24.5443 94.9498L19.2322 93.7627C18.8144 93.6693 18.4549 93.7151 18.1535 93.9001C17.853 94.0813 17.6593 94.366 17.5726 94.7542C17.5139 95.0166 17.5276 95.2681 17.6136 95.5085C17.6967 95.7445 17.8429 95.9499 18.0523 96.1247C18.2579 96.2988 18.5178 96.4209 18.832 96.4911L23.9446 97.6336L23.4167 99.9958Z" fill="#1364FF"/>
<path d="M27.85 81.944C27.6266 82.7979 27.2519 83.4888 26.7261 84.0168C26.1976 84.5402 25.5631 84.8851 24.8226 85.0515C24.0784 85.217 23.2739 85.1866 22.4091 84.9603C21.537 84.732 20.8189 84.364 20.2548 83.8561C19.6871 83.3473 19.3029 82.7358 19.1022 82.0216C18.8988 81.3027 18.9088 80.5164 19.1322 79.6626C19.3557 78.8088 19.7317 78.1201 20.2602 77.5967C20.786 77.0687 21.421 76.722 22.1651 76.5565C22.9057 76.3901 23.712 76.421 24.5841 76.6492C25.4489 76.8756 26.1652 77.2431 26.7329 77.7519C27.297 78.2597 27.6807 78.8731 27.8841 79.592C28.0848 80.3062 28.0735 81.0902 27.85 81.944ZM26.039 81.4583C26.1406 81.0699 26.1156 80.7168 25.9638 80.3991C25.8083 80.0804 25.5555 79.8048 25.2052 79.5722C24.856 79.3359 24.4358 79.1535 23.9448 79.025C23.4537 78.8965 22.9981 78.8497 22.5778 78.8846C22.1585 78.9158 21.8031 79.0322 21.5114 79.2339C21.2198 79.4356 21.0232 79.7307 20.9215 80.1191C20.8189 80.5112 20.8444 80.8702 20.9979 81.1962C21.1524 81.5186 21.4043 81.7979 21.7536 82.0342C22.1038 82.2668 22.5244 82.4474 23.0155 82.5759C23.5065 82.7044 23.9617 82.753 24.381 82.7218C24.8012 82.6869 25.1577 82.5668 25.4502 82.3614C25.7401 82.1515 25.9364 81.8504 26.039 81.4583Z" fill="#1364FF"/>
<defs>
<linearGradient id="paint0_linear_521_52327" x1="56" y1="1" x2="56" y2="239" gradientUnits="userSpaceOnUse">
<stop stop-color="#0B3C99" stop-opacity="0"/>
<stop offset="1" stop-color="#1364FF"/>
</linearGradient>
</defs>
</svg>
