<svg width="81" height="241" viewBox="0 0 81 241" fill="none" xmlns="http://www.w3.org/2000/svg">
<path d="M35.6693 145.259L34.1784 145.425L35.6693 145.259ZM76.7904 240.485C77.6107 240.601 78.3695 240.03 78.4853 239.21L80.3717 225.842C80.4874 225.022 79.9163 224.263 79.096 224.147C78.2757 224.031 77.5169 224.603 77.4011 225.423L75.7243 237.305L63.842 235.628C63.0217 235.513 62.2629 236.084 62.1472 236.904C62.0314 237.724 62.6025 238.483 63.4228 238.599L76.7904 240.485ZM77 1C75.7056 0.242002 75.7053 0.242563 75.7048 0.243438C75.7044 0.244147 75.7037 0.245335 75.7028 0.246754C75.7012 0.24959 75.6988 0.253677 75.6957 0.259009C75.6895 0.269673 75.6803 0.285315 75.6684 0.305886C75.6445 0.347029 75.6091 0.40789 75.5629 0.488078C75.4703 0.648453 75.3338 0.88614 75.1565 1.198C74.8018 1.82173 74.284 2.7422 73.6283 3.93437C72.3168 6.3186 70.4532 9.79005 68.2395 14.1481C63.8128 22.8626 57.9821 35.1299 52.3656 49.3434C41.1553 77.7128 30.7043 114.064 34.1784 145.425L37.1602 145.094C33.7703 114.495 43.9846 78.7162 55.1557 50.4459C60.7298 36.3396 66.5189 24.1595 70.9142 15.5067C73.1115 11.181 74.9595 7.73879 76.2568 5.38026C76.9055 4.20103 77.4164 3.29286 77.7644 2.68077C77.9384 2.37473 78.0717 2.14272 78.1611 1.98788C78.2057 1.91046 78.2395 1.85233 78.2618 1.81389C78.273 1.79466 78.2813 1.78036 78.2868 1.77103C78.2895 1.76637 78.2915 1.76294 78.2928 1.76077C78.2934 1.75968 78.2938 1.75899 78.2941 1.75844C78.2943 1.75806 78.2944 1.758 77 1ZM34.1784 145.425C36.7324 168.479 47.1747 192.119 56.91 209.923C61.7861 218.841 66.5033 226.328 70.0025 231.587C71.7525 234.217 73.1987 236.291 74.2091 237.71C74.7143 238.419 75.1106 238.965 75.3815 239.334C75.5169 239.519 75.621 239.66 75.6917 239.755C75.7271 239.803 75.7541 239.839 75.7725 239.863C75.7817 239.876 75.7887 239.885 75.7936 239.891C75.796 239.895 75.7979 239.897 75.7992 239.899C75.7999 239.9 75.8004 239.901 75.8008 239.901C75.8012 239.902 75.8015 239.902 77 239C78.1985 238.098 78.1985 238.098 78.1984 238.098C78.1982 238.098 78.1979 238.097 78.1975 238.097C78.1966 238.096 78.1952 238.094 78.1932 238.091C78.1893 238.086 78.1832 238.078 78.1749 238.067C78.1584 238.044 78.1332 238.011 78.0998 237.966C78.0328 237.876 77.9326 237.74 77.801 237.561C77.5379 237.202 77.1497 236.667 76.6528 235.969C75.659 234.574 74.2309 232.526 72.5002 229.925C69.038 224.721 64.3682 217.31 59.5422 208.484C49.873 190.8 39.65 167.569 37.1602 145.094L34.1784 145.425Z" fill="url(#paint0_linear_521_38743)"/>
<path d="M20.2194 159.046L8.64324 160.228L8.39322 157.781L17.9514 156.805L17.4445 151.842L19.4624 151.636L20.2194 159.046Z" fill="white"/>
<path d="M19.3206 149.255L10.6063 149.73L10.4745 147.313L19.1888 146.838L19.3206 149.255ZM9.41676 148.577C9.43635 148.936 9.33402 149.251 9.10976 149.521C8.88152 149.788 8.59908 149.93 8.26246 149.949C7.92962 149.967 7.63715 149.856 7.38505 149.615C7.12896 149.371 6.99112 149.07 6.97153 148.71C6.95193 148.351 7.05626 148.038 7.2845 147.772C7.50876 147.501 7.78731 147.357 8.12015 147.339C8.45677 147.321 8.75312 147.434 9.00921 147.678C9.26132 147.918 9.39716 148.218 9.41676 148.577Z" fill="white"/>
<path d="M10.2915 136.439L19.0269 139.467L19.0341 142.194L10.3149 145.268L10.3082 142.711L16.5476 140.882L16.5474 140.791L10.2983 139.001L10.2915 136.439Z" fill="white"/>
<path d="M19.4857 130.811C19.4321 131.707 19.2045 132.467 18.8028 133.092C18.3976 133.713 17.85 134.177 17.1599 134.485C16.4661 134.793 15.6598 134.919 14.7409 134.864C13.8448 134.811 13.0687 134.59 12.4127 134.201C11.7567 133.813 11.2585 133.292 10.9182 132.638C10.578 131.98 10.4335 131.224 10.4846 130.369C10.519 129.794 10.6436 129.265 10.8585 128.781C11.0699 128.292 11.37 127.874 11.7589 127.525C12.1481 127.173 12.6268 126.909 13.195 126.735C13.7595 126.56 14.4123 126.494 15.1534 126.539L15.817 126.578L15.3771 133.935L13.8798 133.845L14.1837 128.763C13.8358 128.742 13.5231 128.8 13.2456 128.935C12.9681 129.07 12.7457 129.267 12.5784 129.527C12.4076 129.782 12.3116 130.086 12.2906 130.437C12.2687 130.804 12.3343 131.134 12.4875 131.428C12.6371 131.718 12.849 131.951 13.1231 132.126C13.3934 132.302 13.7005 132.402 14.0443 132.426L15.4679 132.511C15.899 132.537 16.2762 132.48 16.5995 132.34C16.923 132.196 17.1787 131.982 17.3665 131.697C17.5543 131.412 17.6603 131.068 17.6845 130.663C17.7005 130.395 17.6774 130.147 17.6151 129.919C17.5528 129.691 17.4508 129.494 17.3091 129.326C17.1673 129.158 16.9893 129.026 16.775 128.93L17.0561 126.704C17.5862 126.849 18.0411 127.11 18.4209 127.486C18.7971 127.857 19.0803 128.326 19.2703 128.891C19.4569 129.452 19.5286 130.092 19.4857 130.811Z" fill="white"/>
<path d="M20.6256 117.145L20.0773 121.233L8.54422 119.686L9.09701 115.564C9.25258 114.404 9.61739 113.437 10.1914 112.661C10.7617 111.885 11.5069 111.33 12.4271 110.995C13.3477 110.656 14.4069 110.567 15.6045 110.727C16.8058 110.888 17.8078 111.254 18.6104 111.824C19.4134 112.39 19.9892 113.127 20.3377 114.033C20.6867 114.936 20.7827 115.973 20.6256 117.145ZM18.3151 118.515L18.5228 116.966C18.6194 116.245 18.5731 115.622 18.3838 115.096C18.1912 114.565 17.8412 114.14 17.3338 113.82C16.8231 113.495 16.138 113.275 15.2782 113.16C14.426 113.046 13.7127 113.078 13.1384 113.257C12.5645 113.432 12.117 113.749 11.7958 114.206C11.4745 114.664 11.2656 115.253 11.1689 115.974L10.9605 117.528L18.3151 118.515Z" fill="white"/>
<path d="M22.5782 105.7C22.4197 106.583 22.1043 107.312 21.632 107.885C21.1566 108.454 20.5582 108.851 19.8368 109.076C19.1116 109.3 18.296 109.33 17.39 109.168C16.5064 109.009 15.7617 108.699 15.1558 108.236C14.55 107.773 14.1165 107.197 13.8553 106.508C13.5948 105.814 13.5402 105.046 13.6913 104.204C13.793 103.637 13.979 103.126 14.2493 102.67C14.5165 102.21 14.8638 101.83 15.291 101.529C15.7188 101.225 16.2252 101.02 16.81 100.913C17.3912 100.806 18.0471 100.817 18.7779 100.949L19.4322 101.066L18.131 108.319L16.6546 108.055L17.5535 103.044C17.2105 102.982 16.8932 103.002 16.6018 103.104C16.3103 103.205 16.0662 103.375 15.8696 103.613C15.6699 103.847 15.539 104.137 15.4768 104.484C15.4119 104.845 15.4383 105.181 15.5559 105.491C15.6705 105.796 15.8535 106.052 16.105 106.259C16.3529 106.465 16.6461 106.6 16.9847 106.665L18.3884 106.917C18.8134 106.993 19.1947 106.981 19.5323 106.879C19.8705 106.775 20.1496 106.592 20.3695 106.331C20.5895 106.07 20.7352 105.741 20.8068 105.342C20.8543 105.077 20.8604 104.828 20.8253 104.595C20.7902 104.361 20.7122 104.153 20.5911 103.97C20.4701 103.786 20.3088 103.634 20.1073 103.513L20.6479 101.336C21.1573 101.543 21.5785 101.855 21.9115 102.273C22.2414 102.686 22.4676 103.184 22.5899 103.768C22.7092 104.348 22.7053 104.991 22.5782 105.7Z" fill="white"/>
<path d="M23.4147 99.9959L14.8975 98.0925L15.4006 95.8412L16.9033 96.177L16.9256 96.0772C16.4662 95.7882 16.1386 95.4045 15.9428 94.926C15.747 94.4476 15.7135 93.92 15.8424 93.3433C15.9729 92.7592 16.2301 92.2947 16.6138 91.9496C16.9939 91.6037 17.4468 91.4177 17.9728 91.3916L17.9926 91.3029C17.5435 91.0201 17.2237 90.6188 17.0332 90.0988C16.84 89.5743 16.8131 88.9997 16.9527 88.375C17.1303 87.5802 17.5277 86.9917 18.1449 86.6095C18.7592 86.2228 19.5284 86.1327 20.4526 86.3393L26.1806 87.6193L25.6539 89.976L20.3917 88.8C19.9185 88.6942 19.5355 88.7406 19.2428 88.9391C18.95 89.1376 18.7615 89.4254 18.6772 89.8025C18.5814 90.2313 18.6434 90.5964 18.8633 90.8978C19.0794 91.1984 19.4093 91.3983 19.8529 91.4974L25.0542 92.6598L24.5424 94.9499L19.2302 93.7627C18.8125 93.6694 18.4529 93.7152 18.1516 93.9001C17.851 94.0814 17.6574 94.366 17.5706 94.7542C17.512 95.0167 17.5256 95.2681 17.6116 95.5086C17.6947 95.7445 17.841 95.9499 18.0503 96.1248C18.2559 96.2988 18.5159 96.4209 18.8301 96.4912L23.9426 97.6337L23.4147 99.9959Z" fill="white"/>
<path d="M27.85 81.9441C27.6266 82.7979 27.2519 83.4888 26.7261 84.0169C26.1976 84.5403 25.5631 84.8852 24.8226 85.0516C24.0784 85.2171 23.2739 85.1866 22.4091 84.9603C21.537 84.7321 20.8189 84.364 20.2548 83.8562C19.6871 83.3474 19.3029 82.7359 19.1022 82.0217C18.8988 81.3028 18.9088 80.5165 19.1322 79.6626C19.3557 78.8088 19.7317 78.1202 20.2602 77.5968C20.786 77.0688 21.421 76.722 22.1651 76.5566C22.9057 76.3901 23.712 76.4211 24.5841 76.6493C25.4489 76.8756 26.1652 77.2432 26.7329 77.752C27.297 78.2598 27.6807 78.8732 27.8841 79.592C28.0848 80.3062 28.0735 81.0903 27.85 81.9441ZM26.039 81.4584C26.1406 81.07 26.1156 80.7169 25.9638 80.3992C25.8083 80.0805 25.5555 79.8048 25.2052 79.5722C24.856 79.336 24.4358 79.1536 23.9448 79.0251C23.4537 78.8965 22.9981 78.8497 22.5778 78.8846C22.1585 78.9159 21.8031 79.0323 21.5114 79.234C21.2198 79.4357 21.0232 79.7307 20.9215 80.1192C20.8189 80.5113 20.8444 80.8703 20.9979 81.1963C21.1524 81.5187 21.4043 81.798 21.7536 82.0342C22.1038 82.2669 22.5244 82.4474 23.0155 82.5759C23.5065 82.7044 23.9617 82.7531 24.381 82.7218C24.8012 82.687 25.1577 82.5668 25.4502 82.3615C25.7401 82.1515 25.9364 81.8505 26.039 81.4584Z" fill="white"/>
<defs>
<linearGradient id="paint0_linear_521_38743" x1="77" y1="1" x2="35" y2="93" gradientUnits="userSpaceOnUse">
<stop stop-color="#1AAB12" stop-opacity="0"/>
<stop offset="1" stop-color="#18F50C"/>
</linearGradient>
</defs>
</svg>
