<svg width="29" height="28" viewBox="0 0 29 28" fill="none" xmlns="http://www.w3.org/2000/svg">
<mask id="path-1-outside-1_206_13777" maskUnits="userSpaceOnUse" x="0.929688" y="0.330078" width="27" height="27" fill="black">
<rect fill="white" x="0.929688" y="0.330078" width="27" height="27"/>
<path fill-rule="evenodd" clip-rule="evenodd" d="M21.7349 11.406C21.0966 12.0437 20.4101 12.5951 19.7059 13.072H19.7066L18.7527 19.4081L16.8976 21.2632L16.1703 20.5359L15.4213 15.1564C13.2875 15.8731 11.6597 16.0253 11.6597 16.0253C11.6597 16.0253 11.8119 14.3968 12.5286 12.2637L7.14909 11.5147L6.42181 10.7874L8.27691 8.93229L14.613 7.97839C15.0893 7.27416 15.6406 6.58773 16.279 5.94938C20.337 1.89135 26.3549 1.33008 26.3549 1.33008C26.3549 1.33008 25.793 7.34795 21.7349 11.406ZM1.92969 25.7539C1.92969 25.7539 10.0754 20.1181 10.7684 19.4251C11.4614 18.7321 11.4614 17.6082 10.7684 16.9152C10.0754 16.2221 8.95152 16.2221 8.2585 16.9152C7.56547 17.6082 1.92969 25.7539 1.92969 25.7539Z"/>
</mask>
<path fill-rule="evenodd" clip-rule="evenodd" d="M21.7349 11.406C21.0966 12.0437 20.4101 12.5951 19.7059 13.072H19.7066L18.7527 19.4081L16.8976 21.2632L16.1703 20.5359L15.4213 15.1564C13.2875 15.8731 11.6597 16.0253 11.6597 16.0253C11.6597 16.0253 11.8119 14.3968 12.5286 12.2637L7.14909 11.5147L6.42181 10.7874L8.27691 8.93229L14.613 7.97839C15.0893 7.27416 15.6406 6.58773 16.279 5.94938C20.337 1.89135 26.3549 1.33008 26.3549 1.33008C26.3549 1.33008 25.793 7.34795 21.7349 11.406ZM1.92969 25.7539C1.92969 25.7539 10.0754 20.1181 10.7684 19.4251C11.4614 18.7321 11.4614 17.6082 10.7684 16.9152C10.0754 16.2221 8.95152 16.2221 8.2585 16.9152C7.56547 17.6082 1.92969 25.7539 1.92969 25.7539Z" fill="url(#paint0_linear_206_13777)"/>
<path d="M19.7059 13.072L19.3455 12.5398C19.1117 12.6982 19.0086 12.9906 19.0914 13.2605C19.1743 13.5305 19.4235 13.7147 19.7059 13.7147V13.072ZM21.7349 11.406L22.1892 11.8607L22.1894 11.8605L21.7349 11.406ZM19.7066 13.072L20.3421 13.1677C20.37 12.9826 20.3158 12.7946 20.1937 12.6527C20.0716 12.5109 19.8937 12.4293 19.7066 12.4293V13.072ZM18.7527 19.4081L19.2072 19.8625C19.3043 19.7654 19.3678 19.6396 19.3882 19.5037L18.7527 19.4081ZM16.8976 21.2632L16.4431 21.7176C16.6941 21.9686 17.1011 21.9686 17.3521 21.7176L16.8976 21.2632ZM16.1703 20.5359L15.5337 20.6245C15.553 20.763 15.6169 20.8915 15.7158 20.9904L16.1703 20.5359ZM15.4213 15.1564L16.0579 15.0677C16.0315 14.8783 15.9221 14.7105 15.7595 14.6098C15.5969 14.5092 15.3979 14.4862 15.2166 14.5471L15.4213 15.1564ZM11.6597 16.0253L11.0197 15.9655C11.0019 16.156 11.0699 16.3445 11.2052 16.4798C11.3405 16.615 11.529 16.683 11.7195 16.6652L11.6597 16.0253ZM12.5286 12.2637L13.1379 12.4684C13.1988 12.2871 13.1758 12.0881 13.0752 11.9255C12.9745 11.7628 12.8067 11.6535 12.6172 11.6271L12.5286 12.2637ZM7.14909 11.5147L6.69461 11.9692C6.7935 12.068 6.92194 12.132 7.06045 12.1513L7.14909 11.5147ZM6.42181 10.7874L5.96733 10.3329C5.71632 10.5839 5.71632 10.9909 5.96732 11.2419L6.42181 10.7874ZM8.27691 8.93229L8.18122 8.29672C8.04534 8.31717 7.91959 8.38064 7.82242 8.47781L8.27691 8.93229ZM14.613 7.97839L14.7086 8.61396C14.8863 8.58721 15.0447 8.48731 15.1454 8.33847L14.613 7.97839ZM16.279 5.94938L16.7335 6.40386L16.279 5.94938ZM26.3549 1.33008L26.9948 1.38983C27.0126 1.19937 26.9446 1.01089 26.8094 0.875621C26.6741 0.740352 26.4857 0.672357 26.2952 0.690121L26.3549 1.33008ZM10.7684 19.4251L10.3139 18.9706V18.9706L10.7684 19.4251ZM1.92969 25.7539L1.40113 25.3882C1.22443 25.6436 1.25561 25.9888 1.47521 26.2084C1.6948 26.428 2.04 26.4592 2.29538 26.2825L1.92969 25.7539ZM8.2585 16.9152L8.71298 17.3697L8.2585 16.9152ZM20.0663 13.6042C20.8003 13.1071 21.5189 12.5302 22.1892 11.8607L21.2807 10.9513C20.6742 11.5571 20.02 12.083 19.3455 12.5398L20.0663 13.6042ZM19.7066 12.4293H19.7059V13.7147H19.7066V12.4293ZM19.3882 19.5037L20.3421 13.1677L19.071 12.9763L18.1171 19.3124L19.3882 19.5037ZM17.3521 21.7176L19.2072 19.8625L18.2982 18.9536L16.4431 20.8087L17.3521 21.7176ZM15.7158 20.9904L16.4431 21.7176L17.3521 20.8087L16.6248 20.0814L15.7158 20.9904ZM14.7847 15.245L15.5337 20.6245L16.8069 20.4472L16.0579 15.0677L14.7847 15.245ZM11.6597 16.0253C11.7195 16.6652 11.7196 16.6652 11.7197 16.6652C11.7198 16.6652 11.7199 16.6652 11.72 16.6652C11.7202 16.6652 11.7204 16.6651 11.7206 16.6651C11.7211 16.6651 11.7216 16.665 11.7223 16.665C11.7236 16.6648 11.7253 16.6647 11.7274 16.6645C11.7316 16.664 11.7374 16.6635 11.7447 16.6627C11.7594 16.6612 11.7801 16.659 11.8068 16.6559C11.86 16.6498 11.9367 16.6405 12.0346 16.6271C12.2304 16.6003 12.5114 16.5571 12.86 16.4911C13.5565 16.3591 14.526 16.1351 15.6259 15.7656L15.2166 14.5471C14.1828 14.8944 13.2715 15.1048 12.6207 15.2281C12.2956 15.2897 12.0363 15.3294 11.8602 15.3535C11.7721 15.3656 11.705 15.3737 11.6609 15.3788C11.6388 15.3813 11.6225 15.383 11.6122 15.3841C11.6071 15.3846 11.6035 15.385 11.6014 15.3852C11.6004 15.3853 11.5997 15.3853 11.5995 15.3854C11.5993 15.3854 11.5993 15.3854 11.5994 15.3854C11.5994 15.3854 11.5995 15.3854 11.5995 15.3854C11.5996 15.3854 11.5997 15.3853 11.5997 15.3853C11.5998 15.3853 11.5999 15.3853 11.6597 16.0253ZM11.9193 12.059C11.5499 13.1586 11.3258 14.1282 11.1939 14.8248C11.1278 15.1734 11.0847 15.4545 11.0579 15.6503C11.0445 15.7483 11.0351 15.825 11.029 15.8782C11.026 15.9048 11.0238 15.9256 11.0223 15.9402C11.0215 15.9476 11.0209 15.9533 11.0205 15.9576C11.0203 15.9597 11.0201 15.9614 11.02 15.9627C11.0199 15.9634 11.0199 15.9639 11.0198 15.9644C11.0198 15.9646 11.0198 15.9648 11.0198 15.965C11.0198 15.9651 11.0198 15.9652 11.0198 15.9653C11.0198 15.9654 11.0197 15.9655 11.6597 16.0253C12.2996 16.0851 12.2996 16.0852 12.2996 16.0853C12.2996 16.0853 12.2996 16.0854 12.2996 16.0854C12.2996 16.0855 12.2996 16.0855 12.2996 16.0856C12.2996 16.0856 12.2996 16.0856 12.2996 16.0855C12.2996 16.0852 12.2997 16.0846 12.2998 16.0835C12.3 16.0814 12.3004 16.0778 12.3009 16.0727C12.302 16.0624 12.3037 16.0461 12.3062 16.0241C12.3113 15.9799 12.3194 15.9127 12.3315 15.8247C12.3556 15.6485 12.3953 15.3892 12.4569 15.064C12.5802 14.4131 12.7906 13.5019 13.1379 12.4684L11.9193 12.059ZM7.06045 12.1513L12.44 12.9003L12.6172 11.6271L7.23773 10.8781L7.06045 12.1513ZM5.96732 11.2419L6.69461 11.9692L7.60357 11.0602L6.87629 10.3329L5.96732 11.2419ZM7.82242 8.47781L5.96733 10.3329L6.87629 11.2419L8.73139 9.38677L7.82242 8.47781ZM14.5173 7.34282L8.18122 8.29672L8.37259 9.56786L14.7086 8.61396L14.5173 7.34282ZM15.8245 5.49489C15.1541 6.16527 14.5772 6.88406 14.0806 7.61831L15.1454 8.33847C15.6013 7.66427 16.1272 7.01018 16.7335 6.40386L15.8245 5.49489ZM26.3549 1.33008C26.2952 0.690121 26.295 0.690141 26.2948 0.690163C26.2946 0.690173 26.2944 0.690197 26.2942 0.690218C26.2937 0.690259 26.2932 0.69031 26.2926 0.690369C26.2913 0.690488 26.2897 0.690643 26.2878 0.690836C26.2838 0.691222 26.2784 0.69176 26.2716 0.692461C26.258 0.693864 26.2387 0.695918 26.214 0.698717C26.1646 0.704312 26.0934 0.712884 26.0024 0.725159C25.8205 0.749703 25.5593 0.789089 25.2343 0.849159C24.585 0.969205 23.6786 1.1724 22.6418 1.50615C20.5753 2.17133 17.9517 3.36772 15.8245 5.49489L16.7335 6.40386C18.6643 4.47301 21.0786 3.35975 23.0356 2.72979C24.0105 2.41597 24.8622 2.22521 25.468 2.11321C25.7707 2.05725 26.0113 2.02109 26.1743 1.99908C26.2558 1.98809 26.3179 1.98064 26.3586 1.97603C26.379 1.97372 26.394 1.97213 26.4034 1.97116C26.4081 1.97068 26.4114 1.97035 26.4133 1.97016C26.4142 1.97007 26.4148 1.97002 26.415 1.97C26.4151 1.96999 26.4151 1.96998 26.4151 1.96999C26.415 1.96999 26.4149 1.97 26.4149 1.97001C26.4147 1.97002 26.4146 1.97004 26.3549 1.33008ZM22.1894 11.8605C24.3166 9.7333 25.5131 7.10965 26.1785 5.04325C26.5123 4.00644 26.7156 3.1 26.8357 2.45068C26.8958 2.12577 26.9352 1.86449 26.9598 1.6826C26.9721 1.59163 26.9806 1.52045 26.9862 1.47102C26.989 1.4463 26.9911 1.42701 26.9925 1.4134C26.9932 1.4066 26.9937 1.40121 26.9941 1.39727C26.9943 1.3953 26.9945 1.3937 26.9946 1.39246C26.9946 1.39184 26.9947 1.39131 26.9947 1.39087C26.9948 1.39065 26.9948 1.39039 26.9948 1.39028C26.9948 1.39005 26.9948 1.38983 26.3549 1.33008C25.7149 1.27032 25.715 1.27015 25.715 1.27001C25.715 1.26999 25.715 1.26987 25.715 1.26984C25.715 1.26977 25.715 1.26979 25.715 1.2699C25.715 1.27012 25.7149 1.2707 25.7148 1.27164C25.7146 1.27352 25.7143 1.27682 25.7138 1.28153C25.7128 1.29094 25.7112 1.30594 25.7089 1.32629C25.7043 1.36699 25.6969 1.42906 25.6859 1.51057C25.6638 1.67363 25.6276 1.91421 25.5717 2.21687C25.4596 2.82271 25.2688 3.67437 24.9549 4.64928C24.3247 6.60632 23.2113 9.02062 21.2804 10.9515L22.1894 11.8605ZM10.3139 18.9706C10.2637 19.0208 10.0978 19.1577 9.79991 19.3849C9.51656 19.601 9.14606 19.8747 8.71713 20.1864C7.85985 20.8094 6.7797 21.5767 5.71901 22.3239C4.65879 23.0708 3.61996 23.7962 2.84605 24.335C2.45914 24.6043 2.13853 24.827 1.91469 24.9823C1.80277 25.0599 1.71505 25.1207 1.65533 25.1621C1.62547 25.1828 1.60261 25.1986 1.58723 25.2093C1.57954 25.2146 1.57372 25.2186 1.56982 25.2213C1.56788 25.2227 1.56641 25.2237 1.56544 25.2243C1.56495 25.2247 1.56459 25.2249 1.56435 25.2251C1.56422 25.2252 1.56414 25.2252 1.56408 25.2253C1.56402 25.2253 1.56399 25.2253 1.92969 25.7539C2.29538 26.2825 2.29542 26.2824 2.29549 26.2824C2.29555 26.2823 2.29565 26.2823 2.29577 26.2822C2.29603 26.282 2.2964 26.2818 2.2969 26.2814C2.2979 26.2807 2.29939 26.2797 2.30136 26.2783C2.30531 26.2756 2.31118 26.2715 2.31892 26.2662C2.33441 26.2554 2.35737 26.2395 2.38734 26.2188C2.44728 26.1773 2.53524 26.1163 2.64741 26.0385C2.87175 25.8829 3.19294 25.6598 3.58051 25.39C4.35558 24.8504 5.39649 24.1235 6.45931 23.3748C7.52169 22.6264 8.6079 21.8549 9.47285 21.2263C9.90504 20.9122 10.2846 20.6319 10.5794 20.4071C10.8596 20.1934 11.0998 20.0026 11.2229 19.8796L10.3139 18.9706ZM10.3139 17.3697C10.756 17.8117 10.756 18.5286 10.3139 18.9706L11.2229 19.8796C12.1669 18.9355 12.1669 17.4047 11.2229 16.4607L10.3139 17.3697ZM8.71298 17.3697C9.155 16.9276 9.87191 16.9276 10.3139 17.3697L11.2229 16.4607C10.2789 15.5167 8.74804 15.5167 7.80401 16.4607L8.71298 17.3697ZM1.92969 25.7539C2.45825 26.1196 2.45826 26.1196 2.4583 26.1195C2.45835 26.1194 2.45841 26.1194 2.45849 26.1192C2.45866 26.119 2.45891 26.1186 2.45925 26.1181C2.45992 26.1172 2.46094 26.1157 2.46228 26.1138C2.46498 26.1099 2.46901 26.104 2.47433 26.0964C2.48498 26.081 2.50081 26.0581 2.52149 26.0283C2.56286 25.9685 2.62366 25.8808 2.7013 25.7689C2.85659 25.5451 3.07924 25.2244 3.3486 24.8375C3.88738 24.0636 4.61278 23.0248 5.35966 21.9646C6.10685 20.9039 6.87416 19.8237 7.49718 18.9665C7.8089 18.5375 8.0826 18.167 8.29867 17.8837C8.52587 17.5857 8.66277 17.4199 8.71298 17.3697L7.80401 16.4607C7.68097 16.5837 7.49015 16.824 7.27649 17.1042C7.05171 17.399 6.77141 17.7785 6.45732 18.2107C5.82872 19.0757 5.05714 20.1619 4.30876 21.2243C3.56006 22.2871 2.8332 23.328 2.29361 24.1031C2.02379 24.4906 1.80073 24.8118 1.6451 25.0362C1.56729 25.1483 1.50633 25.2363 1.46481 25.2962C1.44404 25.3262 1.42814 25.3492 1.41742 25.3647C1.41206 25.3724 1.408 25.3783 1.40527 25.3822C1.4039 25.3842 1.40287 25.3857 1.40218 25.3867C1.40184 25.3872 1.40157 25.3876 1.4014 25.3878C1.40131 25.3879 1.40124 25.388 1.4012 25.3881C1.40115 25.3882 1.40113 25.3882 1.92969 25.7539Z" fill="#2A2A2A" mask="url(#path-1-outside-1_206_13777)"/>
<defs>
<linearGradient id="paint0_linear_206_13777" x1="21.6854" y1="3.12595" x2="6.60028" y2="23.5997" gradientUnits="userSpaceOnUse">
<stop stop-color="#FFAD0F"/>
<stop offset="1" stop-color="#FFE926"/>
</linearGradient>
</defs>
</svg>
