<svg width="1440" height="1279" viewBox="0 0 1440 1279" fill="none" xmlns="http://www.w3.org/2000/svg">
<g clip-path="url(#clip0_521_38744)">
<rect width="1440" height="1279" fill="#020D20"/>
<mask id="mask0_521_38744" style="mask-type:alpha" maskUnits="userSpaceOnUse" x="0" y="0" width="1440" height="350">
<g clip-path="url(#clip1_521_38744)">
<path d="M49.5 0.5H0.5V49.5H49.5V0.5Z" stroke="black"/>
<path d="M98.5 0.5H50.5V49.5H98.5V0.5Z" stroke="black"/>
<path d="M148.5 0.5H99.5V49.5H148.5V0.5Z" stroke="black"/>
<path d="M198.5 0.5H149.5V49.5H198.5V0.5Z" stroke="black"/>
<path d="M247.5 0.5H199.5V49.5H247.5V0.5Z" stroke="black"/>
<path d="M297.5 0.5H248.5V49.5H297.5V0.5Z" stroke="black"/>
<path d="M347.5 0.5H298.5V49.5H347.5V0.5Z" stroke="black"/>
<path d="M396.5 0.5H348.5V49.5H396.5V0.5Z" stroke="black"/>
<path d="M446.5 0.5H397.5V49.5H446.5V0.5Z" stroke="black"/>
<path d="M496.5 0.5H447.5V49.5H496.5V0.5Z" stroke="black"/>
<path d="M545.5 0.5H497.5V49.5H545.5V0.5Z" stroke="black"/>
<path d="M595.5 0.5H546.5V49.5H595.5V0.5Z" stroke="black"/>
<path d="M645.5 0.5H596.5V49.5H645.5V0.5Z" stroke="black"/>
<path d="M694.5 0.5H646.5V49.5H694.5V0.5Z" stroke="black"/>
<path d="M744.5 0.5H695.5V49.5H744.5V0.5Z" stroke="black"/>
<path d="M793.5 0.5H745.5V49.5H793.5V0.5Z" stroke="black"/>
<path d="M843.5 0.5H794.5V49.5H843.5V0.5Z" stroke="black"/>
<path d="M893.5 0.5H844.5V49.5H893.5V0.5Z" stroke="black"/>
<path d="M942.5 0.5H894.5V49.5H942.5V0.5Z" stroke="black"/>
<path d="M992.5 0.5H943.5V49.5H992.5V0.5Z" stroke="black"/>
<path d="M1042.5 0.5H993.5V49.5H1042.5V0.5Z" stroke="black"/>
<path d="M1091.5 0.5H1043.5V49.5H1091.5V0.5Z" stroke="black"/>
<path d="M1141.5 0.5H1092.5V49.5H1141.5V0.5Z" stroke="black"/>
<path d="M1191.5 0.5H1142.5V49.5H1191.5V0.5Z" stroke="black"/>
<path d="M1240.5 0.5H1192.5V49.5H1240.5V0.5Z" stroke="black"/>
<path d="M1290.5 0.5H1241.5V49.5H1290.5V0.5Z" stroke="black"/>
<path d="M1340.5 0.5H1291.5V49.5H1340.5V0.5Z" stroke="black"/>
<path d="M1389.5 0.5H1341.5V49.5H1389.5V0.5Z" stroke="black"/>
<path d="M1439.5 0.5H1390.5V49.5H1439.5V0.5Z" stroke="black"/>
<path d="M49.5 50.5H0.5V99.5H49.5V50.5Z" stroke="black"/>
<path d="M98.5 50.5H50.5V99.5H98.5V50.5Z" stroke="black"/>
<path d="M148.5 50.5H99.5V99.5H148.5V50.5Z" stroke="black"/>
<path d="M198.5 50.5H149.5V99.5H198.5V50.5Z" stroke="black"/>
<path d="M247.5 50.5H199.5V99.5H247.5V50.5Z" stroke="black"/>
<path d="M297.5 50.5H248.5V99.5H297.5V50.5Z" stroke="black"/>
<path d="M347.5 50.5H298.5V99.5H347.5V50.5Z" stroke="black"/>
<path d="M396.5 50.5H348.5V99.5H396.5V50.5Z" stroke="black"/>
<path d="M446.5 50.5H397.5V99.5H446.5V50.5Z" stroke="black"/>
<path d="M496.5 50.5H447.5V99.5H496.5V50.5Z" stroke="black"/>
<path d="M545.5 50.5H497.5V99.5H545.5V50.5Z" stroke="black"/>
<path d="M595.5 50.5H546.5V99.5H595.5V50.5Z" stroke="black"/>
<path d="M645.5 50.5H596.5V99.5H645.5V50.5Z" stroke="black"/>
<path d="M694.5 50.5H646.5V99.5H694.5V50.5Z" stroke="black"/>
<path d="M744.5 50.5H695.5V99.5H744.5V50.5Z" stroke="black"/>
<path d="M793.5 50.5H745.5V99.5H793.5V50.5Z" stroke="black"/>
<path d="M843.5 50.5H794.5V99.5H843.5V50.5Z" stroke="black"/>
<path d="M893.5 50.5H844.5V99.5H893.5V50.5Z" stroke="black"/>
<path d="M942.5 50.5H894.5V99.5H942.5V50.5Z" stroke="black"/>
<path d="M992.5 50.5H943.5V99.5H992.5V50.5Z" stroke="black"/>
<path d="M1042.5 50.5H993.5V99.5H1042.5V50.5Z" stroke="black"/>
<path d="M1091.5 50.5H1043.5V99.5H1091.5V50.5Z" stroke="black"/>
<path d="M1141.5 50.5H1092.5V99.5H1141.5V50.5Z" stroke="black"/>
<path d="M1191.5 50.5H1142.5V99.5H1191.5V50.5Z" stroke="black"/>
<path d="M1240.5 50.5H1192.5V99.5H1240.5V50.5Z" stroke="black"/>
<path d="M1290.5 50.5H1241.5V99.5H1290.5V50.5Z" stroke="black"/>
<path d="M1340.5 50.5H1291.5V99.5H1340.5V50.5Z" stroke="black"/>
<path d="M1389.5 50.5H1341.5V99.5H1389.5V50.5Z" stroke="black"/>
<path d="M1439.5 50.5H1390.5V99.5H1439.5V50.5Z" stroke="black"/>
<path d="M49.5 100.5H0.5V149.5H49.5V100.5Z" stroke="black"/>
<path d="M98.5 100.5H50.5V149.5H98.5V100.5Z" stroke="black"/>
<path d="M148.5 100.5H99.5V149.5H148.5V100.5Z" stroke="black"/>
<path d="M198.5 100.5H149.5V149.5H198.5V100.5Z" stroke="black"/>
<path d="M247.5 100.5H199.5V149.5H247.5V100.5Z" stroke="black"/>
<path d="M297.5 100.5H248.5V149.5H297.5V100.5Z" stroke="black"/>
<path d="M347.5 100.5H298.5V149.5H347.5V100.5Z" stroke="black"/>
<path d="M396.5 100.5H348.5V149.5H396.5V100.5Z" stroke="black"/>
<path d="M446.5 100.5H397.5V149.5H446.5V100.5Z" stroke="black"/>
<path d="M496.5 100.5H447.5V149.5H496.5V100.5Z" stroke="black"/>
<path d="M545.5 100.5H497.5V149.5H545.5V100.5Z" stroke="black"/>
<path d="M595.5 100.5H546.5V149.5H595.5V100.5Z" stroke="black"/>
<path d="M645.5 100.5H596.5V149.5H645.5V100.5Z" stroke="black"/>
<path d="M694.5 100.5H646.5V149.5H694.5V100.5Z" stroke="black"/>
<path d="M744.5 100.5H695.5V149.5H744.5V100.5Z" stroke="black"/>
<path d="M793.5 100.5H745.5V149.5H793.5V100.5Z" stroke="black"/>
<path d="M843.5 100.5H794.5V149.5H843.5V100.5Z" stroke="black"/>
<path d="M893.5 100.5H844.5V149.5H893.5V100.5Z" stroke="black"/>
<path d="M942.5 100.5H894.5V149.5H942.5V100.5Z" stroke="black"/>
<path d="M992.5 100.5H943.5V149.5H992.5V100.5Z" stroke="black"/>
<path d="M1042.5 100.5H993.5V149.5H1042.5V100.5Z" stroke="black"/>
<path d="M1091.5 100.5H1043.5V149.5H1091.5V100.5Z" stroke="black"/>
<path d="M1141.5 100.5H1092.5V149.5H1141.5V100.5Z" stroke="black"/>
<path d="M1191.5 100.5H1142.5V149.5H1191.5V100.5Z" stroke="black"/>
<path d="M1240.5 100.5H1192.5V149.5H1240.5V100.5Z" stroke="black"/>
<path d="M1290.5 100.5H1241.5V149.5H1290.5V100.5Z" stroke="black"/>
<path d="M1340.5 100.5H1291.5V149.5H1340.5V100.5Z" stroke="black"/>
<path d="M1389.5 100.5H1341.5V149.5H1389.5V100.5Z" stroke="black"/>
<path d="M1439.5 100.5H1390.5V149.5H1439.5V100.5Z" stroke="black"/>
<path d="M49.5 150.5H0.5V199.5H49.5V150.5Z" stroke="black"/>
<path d="M98.5 150.5H50.5V199.5H98.5V150.5Z" stroke="black"/>
<path d="M148.5 150.5H99.5V199.5H148.5V150.5Z" stroke="black"/>
<path d="M198.5 150.5H149.5V199.5H198.5V150.5Z" stroke="black"/>
<path d="M247.5 150.5H199.5V199.5H247.5V150.5Z" stroke="black"/>
<path d="M297.5 150.5H248.5V199.5H297.5V150.5Z" stroke="black"/>
<path d="M347.5 150.5H298.5V199.5H347.5V150.5Z" stroke="black"/>
<path d="M396.5 150.5H348.5V199.5H396.5V150.5Z" stroke="black"/>
<path d="M446.5 150.5H397.5V199.5H446.5V150.5Z" stroke="black"/>
<path d="M496.5 150.5H447.5V199.5H496.5V150.5Z" stroke="black"/>
<path d="M545.5 150.5H497.5V199.5H545.5V150.5Z" stroke="black"/>
<path d="M595.5 150.5H546.5V199.5H595.5V150.5Z" stroke="black"/>
<path d="M645.5 150.5H596.5V199.5H645.5V150.5Z" stroke="black"/>
<path d="M694.5 150.5H646.5V199.5H694.5V150.5Z" stroke="black"/>
<path d="M744.5 150.5H695.5V199.5H744.5V150.5Z" stroke="black"/>
<path d="M793.5 150.5H745.5V199.5H793.5V150.5Z" stroke="black"/>
<path d="M843.5 150.5H794.5V199.5H843.5V150.5Z" stroke="black"/>
<path d="M893.5 150.5H844.5V199.5H893.5V150.5Z" stroke="black"/>
<path d="M942.5 150.5H894.5V199.5H942.5V150.5Z" stroke="black"/>
<path d="M992.5 150.5H943.5V199.5H992.5V150.5Z" stroke="black"/>
<path d="M1042.5 150.5H993.5V199.5H1042.5V150.5Z" stroke="black"/>
<path d="M1091.5 150.5H1043.5V199.5H1091.5V150.5Z" stroke="black"/>
<path d="M1141.5 150.5H1092.5V199.5H1141.5V150.5Z" stroke="black"/>
<path d="M1191.5 150.5H1142.5V199.5H1191.5V150.5Z" stroke="black"/>
<path d="M1240.5 150.5H1192.5V199.5H1240.5V150.5Z" stroke="black"/>
<path d="M1290.5 150.5H1241.5V199.5H1290.5V150.5Z" stroke="black"/>
<path d="M1340.5 150.5H1291.5V199.5H1340.5V150.5Z" stroke="black"/>
<path d="M1389.5 150.5H1341.5V199.5H1389.5V150.5Z" stroke="black"/>
<path d="M1439.5 150.5H1390.5V199.5H1439.5V150.5Z" stroke="black"/>
<path d="M49.5 200.5H0.5V249.5H49.5V200.5Z" stroke="black"/>
<path d="M98.5 200.5H50.5V249.5H98.5V200.5Z" stroke="black"/>
<path d="M148.5 200.5H99.5V249.5H148.5V200.5Z" stroke="black"/>
<path d="M198.5 200.5H149.5V249.5H198.5V200.5Z" stroke="black"/>
<path d="M247.5 200.5H199.5V249.5H247.5V200.5Z" stroke="black"/>
<path d="M297.5 200.5H248.5V249.5H297.5V200.5Z" stroke="black"/>
<path d="M347.5 200.5H298.5V249.5H347.5V200.5Z" stroke="black"/>
<path d="M396.5 200.5H348.5V249.5H396.5V200.5Z" stroke="black"/>
<path d="M446.5 200.5H397.5V249.5H446.5V200.5Z" stroke="black"/>
<path d="M496.5 200.5H447.5V249.5H496.5V200.5Z" stroke="black"/>
<path d="M545.5 200.5H497.5V249.5H545.5V200.5Z" stroke="black"/>
<path d="M595.5 200.5H546.5V249.5H595.5V200.5Z" stroke="black"/>
<path d="M645.5 200.5H596.5V249.5H645.5V200.5Z" stroke="black"/>
<path d="M694.5 200.5H646.5V249.5H694.5V200.5Z" stroke="black"/>
<path d="M744.5 200.5H695.5V249.5H744.5V200.5Z" stroke="black"/>
<path d="M793.5 200.5H745.5V249.5H793.5V200.5Z" stroke="black"/>
<path d="M843.5 200.5H794.5V249.5H843.5V200.5Z" stroke="black"/>
<path d="M893.5 200.5H844.5V249.5H893.5V200.5Z" stroke="black"/>
<path d="M942.5 200.5H894.5V249.5H942.5V200.5Z" stroke="black"/>
<path d="M992.5 200.5H943.5V249.5H992.5V200.5Z" stroke="black"/>
<path d="M1042.5 200.5H993.5V249.5H1042.5V200.5Z" stroke="black"/>
<path d="M1091.5 200.5H1043.5V249.5H1091.5V200.5Z" stroke="black"/>
<path d="M1141.5 200.5H1092.5V249.5H1141.5V200.5Z" stroke="black"/>
<path d="M1191.5 200.5H1142.5V249.5H1191.5V200.5Z" stroke="black"/>
<path d="M1240.5 200.5H1192.5V249.5H1240.5V200.5Z" stroke="black"/>
<path d="M1290.5 200.5H1241.5V249.5H1290.5V200.5Z" stroke="black"/>
<path d="M1340.5 200.5H1291.5V249.5H1340.5V200.5Z" stroke="black"/>
<path d="M1389.5 200.5H1341.5V249.5H1389.5V200.5Z" stroke="black"/>
<path d="M1439.5 200.5H1390.5V249.5H1439.5V200.5Z" stroke="black"/>
<path d="M49.5 250.5H0.5V299.5H49.5V250.5Z" stroke="black"/>
<path d="M98.5 250.5H50.5V299.5H98.5V250.5Z" stroke="black"/>
<path d="M148.5 250.5H99.5V299.5H148.5V250.5Z" stroke="black"/>
<path d="M198.5 250.5H149.5V299.5H198.5V250.5Z" stroke="black"/>
<path d="M247.5 250.5H199.5V299.5H247.5V250.5Z" stroke="black"/>
<path d="M297.5 250.5H248.5V299.5H297.5V250.5Z" stroke="black"/>
<path d="M347.5 250.5H298.5V299.5H347.5V250.5Z" stroke="black"/>
<path d="M396.5 250.5H348.5V299.5H396.5V250.5Z" stroke="black"/>
<path d="M446.5 250.5H397.5V299.5H446.5V250.5Z" stroke="black"/>
<path d="M496.5 250.5H447.5V299.5H496.5V250.5Z" stroke="black"/>
<path d="M545.5 250.5H497.5V299.5H545.5V250.5Z" stroke="black"/>
<path d="M595.5 250.5H546.5V299.5H595.5V250.5Z" stroke="black"/>
<path d="M645.5 250.5H596.5V299.5H645.5V250.5Z" stroke="black"/>
<path d="M694.5 250.5H646.5V299.5H694.5V250.5Z" stroke="black"/>
<path d="M744.5 250.5H695.5V299.5H744.5V250.5Z" stroke="black"/>
<path d="M793.5 250.5H745.5V299.5H793.5V250.5Z" stroke="black"/>
<path d="M843.5 250.5H794.5V299.5H843.5V250.5Z" stroke="black"/>
<path d="M893.5 250.5H844.5V299.5H893.5V250.5Z" stroke="black"/>
<path d="M942.5 250.5H894.5V299.5H942.5V250.5Z" stroke="black"/>
<path d="M992.5 250.5H943.5V299.5H992.5V250.5Z" stroke="black"/>
<path d="M1042.5 250.5H993.5V299.5H1042.5V250.5Z" stroke="black"/>
<path d="M1091.5 250.5H1043.5V299.5H1091.5V250.5Z" stroke="black"/>
<path d="M1141.5 250.5H1092.5V299.5H1141.5V250.5Z" stroke="black"/>
<path d="M1191.5 250.5H1142.5V299.5H1191.5V250.5Z" stroke="black"/>
<path d="M1240.5 250.5H1192.5V299.5H1240.5V250.5Z" stroke="black"/>
<path d="M1290.5 250.5H1241.5V299.5H1290.5V250.5Z" stroke="black"/>
<path d="M1340.5 250.5H1291.5V299.5H1340.5V250.5Z" stroke="black"/>
<path d="M1389.5 250.5H1341.5V299.5H1389.5V250.5Z" stroke="black"/>
<path d="M1439.5 250.5H1390.5V299.5H1439.5V250.5Z" stroke="black"/>
<path d="M49.5 300.5H0.5V349.5H49.5V300.5Z" stroke="black"/>
<path d="M98.5 300.5H50.5V349.5H98.5V300.5Z" stroke="black"/>
<path d="M148.5 300.5H99.5V349.5H148.5V300.5Z" stroke="black"/>
<path d="M198.5 300.5H149.5V349.5H198.5V300.5Z" stroke="black"/>
<path d="M247.5 300.5H199.5V349.5H247.5V300.5Z" stroke="black"/>
<path d="M297.5 300.5H248.5V349.5H297.5V300.5Z" stroke="black"/>
<path d="M347.5 300.5H298.5V349.5H347.5V300.5Z" stroke="black"/>
<path d="M396.5 300.5H348.5V349.5H396.5V300.5Z" stroke="black"/>
<path d="M446.5 300.5H397.5V349.5H446.5V300.5Z" stroke="black"/>
<path d="M496.5 300.5H447.5V349.5H496.5V300.5Z" stroke="black"/>
<path d="M545.5 300.5H497.5V349.5H545.5V300.5Z" stroke="black"/>
<path d="M595.5 300.5H546.5V349.5H595.5V300.5Z" stroke="black"/>
<path d="M645.5 300.5H596.5V349.5H645.5V300.5Z" stroke="black"/>
<path d="M694.5 300.5H646.5V349.5H694.5V300.5Z" stroke="black"/>
<path d="M744.5 300.5H695.5V349.5H744.5V300.5Z" stroke="black"/>
<path d="M793.5 300.5H745.5V349.5H793.5V300.5Z" stroke="black"/>
<path d="M843.5 300.5H794.5V349.5H843.5V300.5Z" stroke="black"/>
<path d="M893.5 300.5H844.5V349.5H893.5V300.5Z" stroke="black"/>
<path d="M942.5 300.5H894.5V349.5H942.5V300.5Z" stroke="black"/>
<path d="M992.5 300.5H943.5V349.5H992.5V300.5Z" stroke="black"/>
<path d="M1042.5 300.5H993.5V349.5H1042.5V300.5Z" stroke="black"/>
<path d="M1091.5 300.5H1043.5V349.5H1091.5V300.5Z" stroke="black"/>
<path d="M1141.5 300.5H1092.5V349.5H1141.5V300.5Z" stroke="black"/>
<path d="M1191.5 300.5H1142.5V349.5H1191.5V300.5Z" stroke="black"/>
<path d="M1240.5 300.5H1192.5V349.5H1240.5V300.5Z" stroke="black"/>
<path d="M1290.5 300.5H1241.5V349.5H1290.5V300.5Z" stroke="black"/>
<path d="M1340.5 300.5H1291.5V349.5H1340.5V300.5Z" stroke="black"/>
<path d="M1389.5 300.5H1341.5V349.5H1389.5V300.5Z" stroke="black"/>
<path d="M1439.5 300.5H1390.5V349.5H1439.5V300.5Z" stroke="black"/>
</g>
</mask>
<g mask="url(#mask0_521_38744)">
<rect width="1440" height="348" fill="url(#paint0_linear_521_38744)"/>
</g>
<mask id="mask1_521_38744" style="mask-type:alpha" maskUnits="userSpaceOnUse" x="0" y="930" width="1440" height="351">
<g clip-path="url(#clip2_521_38744)">
<path d="M49.5 1279.95H0.5V1230.95H49.5V1279.95Z" stroke="black"/>
<path d="M98.5 1279.95H50.5V1230.95H98.5V1279.95Z" stroke="black"/>
<path d="M148.5 1279.95H99.5V1230.95H148.5V1279.95Z" stroke="black"/>
<path d="M198.5 1279.95H149.5V1230.95H198.5V1279.95Z" stroke="black"/>
<path d="M247.5 1279.95H199.5V1230.95H247.5V1279.95Z" stroke="black"/>
<path d="M297.5 1279.95H248.5V1230.95H297.5V1279.95Z" stroke="black"/>
<path d="M347.5 1279.95H298.5V1230.95H347.5V1279.95Z" stroke="black"/>
<path d="M396.5 1279.95H348.5V1230.95H396.5V1279.95Z" stroke="black"/>
<path d="M446.5 1279.95H397.5V1230.95H446.5V1279.95Z" stroke="black"/>
<path d="M496.5 1279.95H447.5V1230.95H496.5V1279.95Z" stroke="black"/>
<path d="M545.5 1279.95H497.5V1230.95H545.5V1279.95Z" stroke="black"/>
<path d="M595.5 1279.95H546.5V1230.95H595.5V1279.95Z" stroke="black"/>
<path d="M645.5 1279.95H596.5V1230.95H645.5V1279.95Z" stroke="black"/>
<path d="M694.5 1279.95H646.5V1230.95H694.5V1279.95Z" stroke="black"/>
<path d="M744.5 1279.95H695.5V1230.95H744.5V1279.95Z" stroke="black"/>
<path d="M793.5 1279.95H745.5V1230.95H793.5V1279.95Z" stroke="black"/>
<path d="M843.5 1279.95H794.5V1230.95H843.5V1279.95Z" stroke="black"/>
<path d="M893.5 1279.95H844.5V1230.95H893.5V1279.95Z" stroke="black"/>
<path d="M942.5 1279.95H894.5V1230.95H942.5V1279.95Z" stroke="black"/>
<path d="M992.5 1279.95H943.5V1230.95H992.5V1279.95Z" stroke="black"/>
<path d="M1042.5 1279.95H993.5V1230.95H1042.5V1279.95Z" stroke="black"/>
<path d="M1091.5 1279.95H1043.5V1230.95H1091.5V1279.95Z" stroke="black"/>
<path d="M1141.5 1279.95H1092.5V1230.95H1141.5V1279.95Z" stroke="black"/>
<path d="M1191.5 1279.95H1142.5V1230.95H1191.5V1279.95Z" stroke="black"/>
<path d="M1240.5 1279.95H1192.5V1230.95H1240.5V1279.95Z" stroke="black"/>
<path d="M1290.5 1279.95H1241.5V1230.95H1290.5V1279.95Z" stroke="black"/>
<path d="M1340.5 1279.95H1291.5V1230.95H1340.5V1279.95Z" stroke="black"/>
<path d="M1389.5 1279.95H1341.5V1230.95H1389.5V1279.95Z" stroke="black"/>
<path d="M1439.5 1279.95H1390.5V1230.95H1439.5V1279.95Z" stroke="black"/>
<path d="M49.5 1229.95H0.5V1180.95H49.5V1229.95Z" stroke="black"/>
<path d="M98.5 1229.95H50.5V1180.95H98.5V1229.95Z" stroke="black"/>
<path d="M148.5 1229.95H99.5V1180.95H148.5V1229.95Z" stroke="black"/>
<path d="M198.5 1229.95H149.5V1180.95H198.5V1229.95Z" stroke="black"/>
<path d="M247.5 1229.95H199.5V1180.95H247.5V1229.95Z" stroke="black"/>
<path d="M297.5 1229.95H248.5V1180.95H297.5V1229.95Z" stroke="black"/>
<path d="M347.5 1229.95H298.5V1180.95H347.5V1229.95Z" stroke="black"/>
<path d="M396.5 1229.95H348.5V1180.95H396.5V1229.95Z" stroke="black"/>
<path d="M446.5 1229.95H397.5V1180.95H446.5V1229.95Z" stroke="black"/>
<path d="M496.5 1229.95H447.5V1180.95H496.5V1229.95Z" stroke="black"/>
<path d="M545.5 1229.95H497.5V1180.95H545.5V1229.95Z" stroke="black"/>
<path d="M595.5 1229.95H546.5V1180.95H595.5V1229.95Z" stroke="black"/>
<path d="M645.5 1229.95H596.5V1180.95H645.5V1229.95Z" stroke="black"/>
<path d="M694.5 1229.95H646.5V1180.95H694.5V1229.95Z" stroke="black"/>
<path d="M744.5 1229.95H695.5V1180.95H744.5V1229.95Z" stroke="black"/>
<path d="M793.5 1229.95H745.5V1180.95H793.5V1229.95Z" stroke="black"/>
<path d="M843.5 1229.95H794.5V1180.95H843.5V1229.95Z" stroke="black"/>
<path d="M893.5 1229.95H844.5V1180.95H893.5V1229.95Z" stroke="black"/>
<path d="M942.5 1229.95H894.5V1180.95H942.5V1229.95Z" stroke="black"/>
<path d="M992.5 1229.95H943.5V1180.95H992.5V1229.95Z" stroke="black"/>
<path d="M1042.5 1229.95H993.5V1180.95H1042.5V1229.95Z" stroke="black"/>
<path d="M1091.5 1229.95H1043.5V1180.95H1091.5V1229.95Z" stroke="black"/>
<path d="M1141.5 1229.95H1092.5V1180.95H1141.5V1229.95Z" stroke="black"/>
<path d="M1191.5 1229.95H1142.5V1180.95H1191.5V1229.95Z" stroke="black"/>
<path d="M1240.5 1229.95H1192.5V1180.95H1240.5V1229.95Z" stroke="black"/>
<path d="M1290.5 1229.95H1241.5V1180.95H1290.5V1229.95Z" stroke="black"/>
<path d="M1340.5 1229.95H1291.5V1180.95H1340.5V1229.95Z" stroke="black"/>
<path d="M1389.5 1229.95H1341.5V1180.95H1389.5V1229.95Z" stroke="black"/>
<path d="M1439.5 1229.95H1390.5V1180.95H1439.5V1229.95Z" stroke="black"/>
<path d="M49.5 1179.95H0.5V1130.95H49.5V1179.95Z" stroke="black"/>
<path d="M98.5 1179.95H50.5V1130.95H98.5V1179.95Z" stroke="black"/>
<path d="M148.5 1179.95H99.5V1130.95H148.5V1179.95Z" stroke="black"/>
<path d="M198.5 1179.95H149.5V1130.95H198.5V1179.95Z" stroke="black"/>
<path d="M247.5 1179.95H199.5V1130.95H247.5V1179.95Z" stroke="black"/>
<path d="M297.5 1179.95H248.5V1130.95H297.5V1179.95Z" stroke="black"/>
<path d="M347.5 1179.95H298.5V1130.95H347.5V1179.95Z" stroke="black"/>
<path d="M396.5 1179.95H348.5V1130.95H396.5V1179.95Z" stroke="black"/>
<path d="M446.5 1179.95H397.5V1130.95H446.5V1179.95Z" stroke="black"/>
<path d="M496.5 1179.95H447.5V1130.95H496.5V1179.95Z" stroke="black"/>
<path d="M545.5 1179.95H497.5V1130.95H545.5V1179.95Z" stroke="black"/>
<path d="M595.5 1179.95H546.5V1130.95H595.5V1179.95Z" stroke="black"/>
<path d="M645.5 1179.95H596.5V1130.95H645.5V1179.95Z" stroke="black"/>
<path d="M694.5 1179.95H646.5V1130.95H694.5V1179.95Z" stroke="black"/>
<path d="M744.5 1179.95H695.5V1130.95H744.5V1179.95Z" stroke="black"/>
<path d="M793.5 1179.95H745.5V1130.95H793.5V1179.95Z" stroke="black"/>
<path d="M843.5 1179.95H794.5V1130.95H843.5V1179.95Z" stroke="black"/>
<path d="M893.5 1179.95H844.5V1130.95H893.5V1179.95Z" stroke="black"/>
<path d="M942.5 1179.95H894.5V1130.95H942.5V1179.95Z" stroke="black"/>
<path d="M992.5 1179.95H943.5V1130.95H992.5V1179.95Z" stroke="black"/>
<path d="M1042.5 1179.95H993.5V1130.95H1042.5V1179.95Z" stroke="black"/>
<path d="M1091.5 1179.95H1043.5V1130.95H1091.5V1179.95Z" stroke="black"/>
<path d="M1141.5 1179.95H1092.5V1130.95H1141.5V1179.95Z" stroke="black"/>
<path d="M1191.5 1179.95H1142.5V1130.95H1191.5V1179.95Z" stroke="black"/>
<path d="M1240.5 1179.95H1192.5V1130.95H1240.5V1179.95Z" stroke="black"/>
<path d="M1290.5 1179.95H1241.5V1130.95H1290.5V1179.95Z" stroke="black"/>
<path d="M1340.5 1179.95H1291.5V1130.95H1340.5V1179.95Z" stroke="black"/>
<path d="M1389.5 1179.95H1341.5V1130.95H1389.5V1179.95Z" stroke="black"/>
<path d="M1439.5 1179.95H1390.5V1130.95H1439.5V1179.95Z" stroke="black"/>
<path d="M49.5 1129.95H0.5V1080.95H49.5V1129.95Z" stroke="black"/>
<path d="M98.5 1129.95H50.5V1080.95H98.5V1129.95Z" stroke="black"/>
<path d="M148.5 1129.95H99.5V1080.95H148.5V1129.95Z" stroke="black"/>
<path d="M198.5 1129.95H149.5V1080.95H198.5V1129.95Z" stroke="black"/>
<path d="M247.5 1129.95H199.5V1080.95H247.5V1129.95Z" stroke="black"/>
<path d="M297.5 1129.95H248.5V1080.95H297.5V1129.95Z" stroke="black"/>
<path d="M347.5 1129.95H298.5V1080.95H347.5V1129.95Z" stroke="black"/>
<path d="M396.5 1129.95H348.5V1080.95H396.5V1129.95Z" stroke="black"/>
<path d="M446.5 1129.95H397.5V1080.95H446.5V1129.95Z" stroke="black"/>
<path d="M496.5 1129.95H447.5V1080.95H496.5V1129.95Z" stroke="black"/>
<path d="M545.5 1129.95H497.5V1080.95H545.5V1129.95Z" stroke="black"/>
<path d="M595.5 1129.95H546.5V1080.95H595.5V1129.95Z" stroke="black"/>
<path d="M645.5 1129.95H596.5V1080.95H645.5V1129.95Z" stroke="black"/>
<path d="M694.5 1129.95H646.5V1080.95H694.5V1129.95Z" stroke="black"/>
<path d="M744.5 1129.95H695.5V1080.95H744.5V1129.95Z" stroke="black"/>
<path d="M793.5 1129.95H745.5V1080.95H793.5V1129.95Z" stroke="black"/>
<path d="M843.5 1129.95H794.5V1080.95H843.5V1129.95Z" stroke="black"/>
<path d="M893.5 1129.95H844.5V1080.95H893.5V1129.95Z" stroke="black"/>
<path d="M942.5 1129.95H894.5V1080.95H942.5V1129.95Z" stroke="black"/>
<path d="M992.5 1129.95H943.5V1080.95H992.5V1129.95Z" stroke="black"/>
<path d="M1042.5 1129.95H993.5V1080.95H1042.5V1129.95Z" stroke="black"/>
<path d="M1091.5 1129.95H1043.5V1080.95H1091.5V1129.95Z" stroke="black"/>
<path d="M1141.5 1129.95H1092.5V1080.95H1141.5V1129.95Z" stroke="black"/>
<path d="M1191.5 1129.95H1142.5V1080.95H1191.5V1129.95Z" stroke="black"/>
<path d="M1240.5 1129.95H1192.5V1080.95H1240.5V1129.95Z" stroke="black"/>
<path d="M1290.5 1129.95H1241.5V1080.95H1290.5V1129.95Z" stroke="black"/>
<path d="M1340.5 1129.95H1291.5V1080.95H1340.5V1129.95Z" stroke="black"/>
<path d="M1389.5 1129.95H1341.5V1080.95H1389.5V1129.95Z" stroke="black"/>
<path d="M1439.5 1129.95H1390.5V1080.95H1439.5V1129.95Z" stroke="black"/>
<path d="M49.5 1079.95H0.5V1030.95H49.5V1079.95Z" stroke="black"/>
<path d="M98.5 1079.95H50.5V1030.95H98.5V1079.95Z" stroke="black"/>
<path d="M148.5 1079.95H99.5V1030.95H148.5V1079.95Z" stroke="black"/>
<path d="M198.5 1079.95H149.5V1030.95H198.5V1079.95Z" stroke="black"/>
<path d="M247.5 1079.95H199.5V1030.95H247.5V1079.95Z" stroke="black"/>
<path d="M297.5 1079.95H248.5V1030.95H297.5V1079.95Z" stroke="black"/>
<path d="M347.5 1079.95H298.5V1030.95H347.5V1079.95Z" stroke="black"/>
<path d="M396.5 1079.95H348.5V1030.95H396.5V1079.95Z" stroke="black"/>
<path d="M446.5 1079.95H397.5V1030.95H446.5V1079.95Z" stroke="black"/>
<path d="M496.5 1079.95H447.5V1030.95H496.5V1079.95Z" stroke="black"/>
<path d="M545.5 1079.95H497.5V1030.95H545.5V1079.95Z" stroke="black"/>
<path d="M595.5 1079.95H546.5V1030.95H595.5V1079.95Z" stroke="black"/>
<path d="M645.5 1079.95H596.5V1030.95H645.5V1079.95Z" stroke="black"/>
<path d="M694.5 1079.95H646.5V1030.95H694.5V1079.95Z" stroke="black"/>
<path d="M744.5 1079.95H695.5V1030.95H744.5V1079.95Z" stroke="black"/>
<path d="M793.5 1079.95H745.5V1030.95H793.5V1079.95Z" stroke="black"/>
<path d="M843.5 1079.95H794.5V1030.95H843.5V1079.95Z" stroke="black"/>
<path d="M893.5 1079.95H844.5V1030.95H893.5V1079.95Z" stroke="black"/>
<path d="M942.5 1079.95H894.5V1030.95H942.5V1079.95Z" stroke="black"/>
<path d="M992.5 1079.95H943.5V1030.95H992.5V1079.95Z" stroke="black"/>
<path d="M1042.5 1079.95H993.5V1030.95H1042.5V1079.95Z" stroke="black"/>
<path d="M1091.5 1079.95H1043.5V1030.95H1091.5V1079.95Z" stroke="black"/>
<path d="M1141.5 1079.95H1092.5V1030.95H1141.5V1079.95Z" stroke="black"/>
<path d="M1191.5 1079.95H1142.5V1030.95H1191.5V1079.95Z" stroke="black"/>
<path d="M1240.5 1079.95H1192.5V1030.95H1240.5V1079.95Z" stroke="black"/>
<path d="M1290.5 1079.95H1241.5V1030.95H1290.5V1079.95Z" stroke="black"/>
<path d="M1340.5 1079.95H1291.5V1030.95H1340.5V1079.95Z" stroke="black"/>
<path d="M1389.5 1079.95H1341.5V1030.95H1389.5V1079.95Z" stroke="black"/>
<path d="M1439.5 1079.95H1390.5V1030.95H1439.5V1079.95Z" stroke="black"/>
<path d="M49.5 1029.95H0.5V980.946H49.5V1029.95Z" stroke="black"/>
<path d="M98.5 1029.95H50.5V980.946H98.5V1029.95Z" stroke="black"/>
<path d="M148.5 1029.95H99.5V980.946H148.5V1029.95Z" stroke="black"/>
<path d="M198.5 1029.95H149.5V980.946H198.5V1029.95Z" stroke="black"/>
<path d="M247.5 1029.95H199.5V980.946H247.5V1029.95Z" stroke="black"/>
<path d="M297.5 1029.95H248.5V980.946H297.5V1029.95Z" stroke="black"/>
<path d="M347.5 1029.95H298.5V980.946H347.5V1029.95Z" stroke="black"/>
<path d="M396.5 1029.95H348.5V980.946H396.5V1029.95Z" stroke="black"/>
<path d="M446.5 1029.95H397.5V980.946H446.5V1029.95Z" stroke="black"/>
<path d="M496.5 1029.95H447.5V980.946H496.5V1029.95Z" stroke="black"/>
<path d="M545.5 1029.95H497.5V980.946H545.5V1029.95Z" stroke="black"/>
<path d="M595.5 1029.95H546.5V980.946H595.5V1029.95Z" stroke="black"/>
<path d="M645.5 1029.95H596.5V980.946H645.5V1029.95Z" stroke="black"/>
<path d="M694.5 1029.95H646.5V980.946H694.5V1029.95Z" stroke="black"/>
<path d="M744.5 1029.95H695.5V980.946H744.5V1029.95Z" stroke="black"/>
<path d="M793.5 1029.95H745.5V980.946H793.5V1029.95Z" stroke="black"/>
<path d="M843.5 1029.95H794.5V980.946H843.5V1029.95Z" stroke="black"/>
<path d="M893.5 1029.95H844.5V980.946H893.5V1029.95Z" stroke="black"/>
<path d="M942.5 1029.95H894.5V980.946H942.5V1029.95Z" stroke="black"/>
<path d="M992.5 1029.95H943.5V980.946H992.5V1029.95Z" stroke="black"/>
<path d="M1042.5 1029.95H993.5V980.946H1042.5V1029.95Z" stroke="black"/>
<path d="M1091.5 1029.95H1043.5V980.946H1091.5V1029.95Z" stroke="black"/>
<path d="M1141.5 1029.95H1092.5V980.946H1141.5V1029.95Z" stroke="black"/>
<path d="M1191.5 1029.95H1142.5V980.946H1191.5V1029.95Z" stroke="black"/>
<path d="M1240.5 1029.95H1192.5V980.946H1240.5V1029.95Z" stroke="black"/>
<path d="M1290.5 1029.95H1241.5V980.946H1290.5V1029.95Z" stroke="black"/>
<path d="M1340.5 1029.95H1291.5V980.946H1340.5V1029.95Z" stroke="black"/>
<path d="M1389.5 1029.95H1341.5V980.946H1389.5V1029.95Z" stroke="black"/>
<path d="M1439.5 1029.95H1390.5V980.946H1439.5V1029.95Z" stroke="black"/>
<path d="M49.5 979.946H0.5V930.946H49.5V979.946Z" stroke="black"/>
<path d="M98.5 979.946H50.5V930.946H98.5V979.946Z" stroke="black"/>
<path d="M148.5 979.946H99.5V930.946H148.5V979.946Z" stroke="black"/>
<path d="M198.5 979.946H149.5V930.946H198.5V979.946Z" stroke="black"/>
<path d="M247.5 979.946H199.5V930.946H247.5V979.946Z" stroke="black"/>
<path d="M297.5 979.946H248.5V930.946H297.5V979.946Z" stroke="black"/>
<path d="M347.5 979.946H298.5V930.946H347.5V979.946Z" stroke="black"/>
<path d="M396.5 979.946H348.5V930.946H396.5V979.946Z" stroke="black"/>
<path d="M446.5 979.946H397.5V930.946H446.5V979.946Z" stroke="black"/>
<path d="M496.5 979.946H447.5V930.946H496.5V979.946Z" stroke="black"/>
<path d="M545.5 979.946H497.5V930.946H545.5V979.946Z" stroke="black"/>
<path d="M595.5 979.946H546.5V930.946H595.5V979.946Z" stroke="black"/>
<path d="M645.5 979.946H596.5V930.946H645.5V979.946Z" stroke="black"/>
<path d="M694.5 979.946H646.5V930.946H694.5V979.946Z" stroke="black"/>
<path d="M744.5 979.946H695.5V930.946H744.5V979.946Z" stroke="black"/>
<path d="M793.5 979.946H745.5V930.946H793.5V979.946Z" stroke="black"/>
<path d="M843.5 979.946H794.5V930.946H843.5V979.946Z" stroke="black"/>
<path d="M893.5 979.946H844.5V930.946H893.5V979.946Z" stroke="black"/>
<path d="M942.5 979.946H894.5V930.946H942.5V979.946Z" stroke="black"/>
<path d="M992.5 979.946H943.5V930.946H992.5V979.946Z" stroke="black"/>
<path d="M1042.5 979.946H993.5V930.946H1042.5V979.946Z" stroke="black"/>
<path d="M1091.5 979.946H1043.5V930.946H1091.5V979.946Z" stroke="black"/>
<path d="M1141.5 979.946H1092.5V930.946H1141.5V979.946Z" stroke="black"/>
<path d="M1191.5 979.946H1142.5V930.946H1191.5V979.946Z" stroke="black"/>
<path d="M1240.5 979.946H1192.5V930.946H1240.5V979.946Z" stroke="black"/>
<path d="M1290.5 979.946H1241.5V930.946H1290.5V979.946Z" stroke="black"/>
<path d="M1340.5 979.946H1291.5V930.946H1340.5V979.946Z" stroke="black"/>
<path d="M1389.5 979.946H1341.5V930.946H1389.5V979.946Z" stroke="black"/>
<path d="M1439.5 979.946H1390.5V930.946H1439.5V979.946Z" stroke="black"/>
</g>
</mask>
<g mask="url(#mask1_521_38744)">
<rect width="1440" height="348" transform="matrix(1 0 0 -1 0 1280.45)" fill="url(#paint1_linear_521_38744)"/>
</g>
<g opacity="0.35" filter="url(#filter0_f_521_38744)">
<ellipse cx="1293.74" cy="907.264" rx="477.682" ry="101.248" transform="rotate(-120.392 1293.74 907.264)" fill="url(#paint2_linear_521_38744)"/>
</g>
<g opacity="0.2" filter="url(#filter1_f_521_38744)">
<ellipse cx="1167.24" cy="1195.51" rx="259.813" ry="65.2824" transform="rotate(-120.392 1167.24 1195.51)" fill="#1364FF"/>
</g>
</g>
<defs>
<filter id="filter0_f_521_38744" x="836.704" y="292.007" width="914.064" height="1230.51" filterUnits="userSpaceOnUse" color-interpolation-filters="sRGB">
<feFlood flood-opacity="0" result="BackgroundImageFix"/>
<feBlend mode="normal" in="SourceGraphic" in2="BackgroundImageFix" result="shape"/>
<feGaussianBlur stdDeviation="100" result="effect1_foregroundBlur_521_38744"/>
</filter>
<filter id="filter1_f_521_38744" x="874.207" y="818.95" width="586.066" height="753.122" filterUnits="userSpaceOnUse" color-interpolation-filters="sRGB">
<feFlood flood-opacity="0" result="BackgroundImageFix"/>
<feBlend mode="normal" in="SourceGraphic" in2="BackgroundImageFix" result="shape"/>
<feGaussianBlur stdDeviation="75" result="effect1_foregroundBlur_521_38744"/>
</filter>
<linearGradient id="paint0_linear_521_38744" x1="720" y1="0" x2="720" y2="336" gradientUnits="userSpaceOnUse">
<stop stop-color="#111B2D"/>
<stop offset="1" stop-color="#111B2D" stop-opacity="0.3"/>
</linearGradient>
<linearGradient id="paint1_linear_521_38744" x1="720" y1="0" x2="720" y2="336" gradientUnits="userSpaceOnUse">
<stop stop-color="#111B2D"/>
<stop offset="1" stop-color="#111B2D" stop-opacity="0"/>
</linearGradient>
<linearGradient id="paint2_linear_521_38744" x1="816.054" y1="906.575" x2="1771.42" y2="906.575" gradientUnits="userSpaceOnUse">
<stop stop-color="#635BFF"/>
<stop offset="1" stop-color="#EA1C70"/>
</linearGradient>
<clipPath id="clip0_521_38744">
<rect width="1440" height="1279" fill="white"/>
</clipPath>
<clipPath id="clip1_521_38744">
<rect width="1440" height="350" fill="white"/>
</clipPath>
<clipPath id="clip2_521_38744">
<rect width="1440" height="350" fill="white" transform="matrix(1 0 0 -1 0 1280.45)"/>
</clipPath>
</defs>
</svg>
