<svg width="134" height="173" viewBox="0 0 134 173" fill="none" xmlns="http://www.w3.org/2000/svg">
<path d="M20.1744 34.7181L38.1282 91.1549H38.8174L56.8075 34.7181H74.2173L48.6104 109H28.3715L2.72826 34.7181H20.1744Z" fill="#272D37"/>
<path d="M113.789 86.0814C113.498 83.1556 112.253 80.8826 110.053 79.2626C107.852 77.6425 104.866 76.8324 101.094 76.8324C98.5308 76.8324 96.3667 77.1951 94.6015 77.9206C92.8364 78.6218 91.4823 79.6011 90.5392 80.8585C89.6204 82.1158 89.1609 83.5425 89.1609 85.1384C89.1126 86.4683 89.3907 87.6289 89.9952 88.6203C90.6239 89.6117 91.4823 90.4701 92.5704 91.1955C93.6585 91.8968 94.9159 92.5134 96.3425 93.0453C97.7691 93.5531 99.2925 93.9884 100.913 94.3511L107.586 95.947C110.827 96.6724 113.801 97.6396 116.509 98.8486C119.217 100.058 121.563 101.545 123.545 103.31C125.528 105.075 127.064 107.155 128.152 109.548C129.264 111.942 129.832 114.687 129.856 117.782C129.832 122.328 128.672 126.269 126.374 129.606C124.101 132.919 120.813 135.494 116.509 137.332C112.229 139.145 107.066 140.052 101.021 140.052C95.0247 140.052 89.8017 139.133 85.3525 137.295C80.9276 135.458 77.4698 132.737 74.9792 129.134C72.5128 125.507 71.2192 121.022 71.0983 115.678H86.2956C86.4648 118.169 87.1782 120.248 88.4355 121.917C89.7171 123.561 91.4218 124.806 93.5497 125.652C95.7017 126.475 98.1318 126.886 100.84 126.886C103.5 126.886 105.809 126.499 107.768 125.725C109.75 124.951 111.286 123.875 112.374 122.497C113.462 121.119 114.006 119.535 114.006 117.746C114.006 116.077 113.511 114.675 112.519 113.538C111.552 112.402 110.125 111.434 108.239 110.637C106.377 109.839 104.092 109.113 101.384 108.46L93.2958 106.429C87.0331 104.906 82.0882 102.524 78.4612 99.2839C74.8341 96.0437 73.0327 91.6791 73.0569 86.1902C73.0327 81.6927 74.2296 77.7634 76.6476 74.4023C79.0899 71.0413 82.4388 68.4177 86.6946 66.5316C90.9503 64.6456 95.7864 63.7025 101.203 63.7025C106.716 63.7025 111.528 64.6456 115.638 66.5316C119.773 68.4177 122.989 71.0413 125.286 74.4023C127.583 77.7634 128.768 81.6564 128.841 86.0814H113.789Z" fill="#272D37"/>
</svg>
