<svg width="134" height="414" viewBox="0 0 134 414" fill="none" xmlns="http://www.w3.org/2000/svg">
<path d="M20.1744 155.718L38.1282 212.155H38.8174L56.8075 155.718H74.2173L48.6104 230H28.3715L2.72826 155.718H20.1744Z" fill="#272D37"/>
<path d="M113.789 207.081C113.498 204.156 112.253 201.883 110.053 200.263C107.852 198.642 104.866 197.832 101.094 197.832C98.5308 197.832 96.3667 198.195 94.6015 198.921C92.8364 199.622 91.4823 200.601 90.5392 201.858C89.6204 203.116 89.1609 204.542 89.1609 206.138C89.1126 207.468 89.3907 208.629 89.9952 209.62C90.6239 210.612 91.4823 211.47 92.5704 212.196C93.6585 212.897 94.9159 213.513 96.3425 214.045C97.7691 214.553 99.2925 214.988 100.913 215.351L107.586 216.947C110.827 217.672 113.801 218.64 116.509 219.849C119.217 221.058 121.563 222.545 123.545 224.31C125.528 226.075 127.064 228.155 128.152 230.548C129.264 232.942 129.832 235.687 129.856 238.782C129.832 243.328 128.672 247.269 126.374 250.606C124.101 253.919 120.813 256.494 116.509 258.332C112.229 260.145 107.066 261.052 101.021 261.052C95.0247 261.052 89.8017 260.133 85.3525 258.295C80.9276 256.458 77.4698 253.737 74.9792 250.134C72.5128 246.507 71.2192 242.022 71.0983 236.678H86.2956C86.4648 239.169 87.1782 241.248 88.4355 242.917C89.7171 244.561 91.4218 245.806 93.5497 246.652C95.7017 247.475 98.1318 247.886 100.84 247.886C103.5 247.886 105.809 247.499 107.768 246.725C109.75 245.951 111.286 244.875 112.374 243.497C113.462 242.119 114.006 240.535 114.006 238.746C114.006 237.077 113.511 235.675 112.519 234.538C111.552 233.402 110.125 232.434 108.239 231.637C106.377 230.839 104.092 230.113 101.384 229.46L93.2958 227.429C87.0331 225.906 82.0882 223.524 78.4612 220.284C74.8341 217.044 73.0327 212.679 73.0569 207.19C73.0327 202.693 74.2296 198.763 76.6476 195.402C79.0899 192.041 82.4388 189.418 86.6946 187.532C90.9503 185.646 95.7864 184.703 101.203 184.703C106.716 184.703 111.528 185.646 115.638 187.532C119.773 189.418 122.989 192.041 125.286 195.402C127.583 198.763 128.768 202.656 128.841 207.081H113.789Z" fill="#272D37"/>
<path d="M67 294L67 414" stroke="#4D525A" stroke-width="1.5" stroke-dasharray="9.56 9.56"/>
<path d="M67 0L67 121" stroke="#4D525A" stroke-width="1.5" stroke-dasharray="9.56 9.56"/>
</svg>
