<svg width="46" height="46" viewBox="0 0 46 46" fill="none" xmlns="http://www.w3.org/2000/svg">
<rect width="46" height="46" rx="23" fill="url(#paint0_linear_2035_115)"/>
<path d="M34.0869 28.9902L28.0954 22.9994L34.085 17.0091C34.144 16.9501 34.1908 16.8801 34.2228 16.803C34.2547 16.7259 34.2712 16.6433 34.2712 16.5598C34.2712 16.4764 34.2547 16.3938 34.2228 16.3167C34.1908 16.2396 34.144 16.1695 34.085 16.1105L29.8891 11.9137C29.7699 11.7945 29.6082 11.7275 29.4397 11.7275C29.2711 11.7275 29.1094 11.7945 28.9902 11.9137L22.9997 17.9039L17.0101 11.9137C16.7718 11.6751 16.3498 11.6751 16.1112 11.9137L11.9143 16.1099C11.7953 16.2292 11.7284 16.3908 11.7284 16.5594C11.7284 16.7279 11.7953 16.8895 11.9143 17.0088L17.9048 22.9994L11.9133 28.9905C11.7944 29.1099 11.7276 29.2715 11.7276 29.44C11.7276 29.6085 11.7944 29.7701 11.9133 29.8895L16.1096 34.086C16.1686 34.1451 16.2386 34.192 16.3157 34.224C16.3929 34.2559 16.4755 34.2724 16.559 34.2724C16.6425 34.2724 16.7252 34.2559 16.8023 34.224C16.8794 34.192 16.9495 34.1451 17.0085 34.086L22.9997 28.0948L28.9912 34.0857C29.1154 34.2096 29.2774 34.2719 29.4406 34.2719C29.6039 34.2719 29.7661 34.2096 29.8904 34.0857L34.0873 29.8891C34.2064 29.7699 34.2733 29.6082 34.2733 29.4396C34.2732 29.271 34.2062 29.1094 34.0869 28.9902Z" fill="white"/>
<defs>
<linearGradient id="paint0_linear_2035_115" x1="5.43056" y1="8.30556" x2="42.8056" y2="38.0139" gradientUnits="userSpaceOnUse">
<stop stop-color="#D66850"/>
<stop offset="1" stop-color="#ED2B00"/>
</linearGradient>
</defs>
</svg>
