<svg width="296" height="295" viewBox="0 0 296 295" fill="none" xmlns="http://www.w3.org/2000/svg">
<mask id="path-1-outside-1_2004_140" maskUnits="userSpaceOnUse" x="-0.987488" y="0" width="297" height="295" fill="black">
<rect fill="white" x="-0.987488" width="297" height="295"/>
<path fill-rule="evenodd" clip-rule="evenodd" d="M233.785 123.449C226.572 130.629 218.815 136.837 210.858 142.207H210.866L200.087 213.548L179.126 234.435L170.908 226.246L162.444 165.676C138.334 173.746 119.941 175.46 119.941 175.46C119.941 175.46 121.66 157.124 129.759 133.106L68.9739 124.673L60.7561 116.484L81.7175 95.5966L153.311 84.8562C158.693 76.9271 164.923 69.1981 172.136 62.0107C217.989 16.3196 285.987 10 285.987 10C285.987 10 279.638 77.7578 233.785 123.449ZM10.0125 284.999C10.0125 284.999 102.054 221.543 109.885 213.74C117.715 205.937 117.715 193.283 109.885 185.48C102.054 177.677 89.3548 177.677 81.5241 185.48C73.6933 193.283 10.0125 284.999 10.0125 284.999Z"/>
</mask>
<path fill-rule="evenodd" clip-rule="evenodd" d="M233.785 123.449C226.572 130.629 218.815 136.837 210.858 142.207H210.866L200.087 213.548L179.126 234.435L170.908 226.246L162.444 165.676C138.334 173.746 119.941 175.46 119.941 175.46C119.941 175.46 121.66 157.124 129.759 133.106L68.9739 124.673L60.7561 116.484L81.7175 95.5966L153.311 84.8562C158.693 76.9271 164.923 69.1981 172.136 62.0107C217.989 16.3196 285.987 10 285.987 10C285.987 10 279.638 77.7578 233.785 123.449ZM10.0125 284.999C10.0125 284.999 102.054 221.543 109.885 213.74C117.715 205.937 117.715 193.283 109.885 185.48C102.054 177.677 89.3548 177.677 81.5241 185.48C73.6933 193.283 10.0125 284.999 10.0125 284.999Z" fill="url(#paint0_linear_2004_140)"/>
<path d="M210.858 142.207L205.264 133.918C201.62 136.378 200.01 140.928 201.295 145.132C202.581 149.336 206.462 152.207 210.858 152.207V142.207ZM233.785 123.449L240.84 130.536L240.843 130.532L233.785 123.449ZM210.866 142.207L220.753 143.701C221.189 140.821 220.346 137.894 218.446 135.686C216.547 133.478 213.779 132.207 210.866 132.207V142.207ZM200.087 213.548L207.146 220.631C208.663 219.119 209.655 217.16 209.975 215.042L200.087 213.548ZM179.126 234.435L172.067 241.519C175.97 245.407 182.282 245.407 186.184 241.519L179.126 234.435ZM170.908 226.246L161.004 227.63C161.306 229.79 162.305 231.791 163.849 233.33L170.908 226.246ZM162.444 165.676L172.348 164.292C171.937 161.348 170.237 158.74 167.709 157.174C165.182 155.609 162.089 155.25 159.27 156.193L162.444 165.676ZM119.941 175.46L109.985 174.526C109.707 177.49 110.763 180.423 112.868 182.528C114.972 184.634 117.905 185.693 120.868 185.416L119.941 175.46ZM129.759 133.106L139.235 136.302C140.187 133.479 139.831 130.38 138.264 127.847C136.698 125.314 134.083 123.611 131.133 123.201L129.759 133.106ZM68.9739 124.673L61.9154 131.756C63.4535 133.289 65.4488 134.279 67.5996 134.578L68.9739 124.673ZM60.7561 116.484L53.6975 109.4C51.8145 111.277 50.7561 113.826 50.7561 116.484C50.7561 119.142 51.8145 121.691 53.6975 123.568L60.7561 116.484ZM81.7175 95.5966L80.2339 85.7073C78.1239 86.0238 76.1704 87.007 74.659 88.513L81.7175 95.5966ZM153.311 84.8562L154.795 94.7456C157.555 94.3314 160.017 92.782 161.585 90.4722L153.311 84.8562ZM172.136 62.0107L165.077 54.9271V54.9271L172.136 62.0107ZM285.987 10L295.944 10.933C296.221 7.96981 295.165 5.03691 293.061 2.93163C290.957 0.826357 288.025 -0.232503 285.062 0.0429096L285.987 10ZM10.0125 284.999L1.79836 279.296C-0.957339 283.264 -0.481162 288.636 2.92974 292.058C6.34064 295.48 11.7106 295.974 15.6886 293.232L10.0125 284.999ZM109.885 185.48L116.943 178.396H116.943L109.885 185.48ZM81.5241 185.48L74.4655 178.396H74.4655L81.5241 185.48ZM216.452 150.496C224.872 144.814 233.129 138.211 240.84 130.536L226.73 116.362C220.014 123.047 212.759 128.861 205.264 133.918L216.452 150.496ZM210.866 132.207H210.858V152.207H210.866V132.207ZM209.975 215.042L220.753 143.701L200.978 140.714L190.199 212.054L209.975 215.042ZM186.184 241.519L207.146 220.631L193.029 206.464L172.067 227.352L186.184 241.519ZM163.849 233.33L172.067 241.519L186.184 227.352L177.966 219.163L163.849 233.33ZM152.541 167.06L161.004 227.63L180.812 224.863L172.348 164.292L152.541 167.06ZM119.941 175.46C120.868 185.416 120.87 185.416 120.872 185.416C120.872 185.416 120.874 185.416 120.875 185.416C120.878 185.416 120.881 185.415 120.884 185.415C120.89 185.414 120.898 185.414 120.906 185.413C120.924 185.411 120.945 185.409 120.971 185.407C121.023 185.401 121.093 185.395 121.181 185.385C121.355 185.367 121.599 185.341 121.909 185.306C122.53 185.235 123.416 185.128 124.544 184.974C126.798 184.666 130.019 184.173 134.006 183.421C141.973 181.917 153.051 179.366 165.618 175.159L159.27 156.193C147.728 160.057 137.554 162.397 130.296 163.768C126.672 164.452 123.788 164.892 121.839 165.158C120.866 165.29 120.127 165.38 119.647 165.434C119.408 165.462 119.233 165.48 119.126 165.491C119.073 165.497 119.036 165.5 119.018 165.502C119.008 165.503 119.003 165.504 119.002 165.504C119.002 165.504 119.003 165.504 119.004 165.504C119.005 165.503 119.007 165.503 119.008 165.503C119.009 165.503 119.01 165.503 119.011 165.503C119.012 165.503 119.013 165.503 119.941 175.46ZM120.283 129.911C116.06 142.435 113.499 153.479 111.989 161.422C111.233 165.398 110.738 168.61 110.429 170.858C110.275 171.983 110.167 172.867 110.096 173.486C110.06 173.796 110.034 174.039 110.016 174.214C110.007 174.301 110 174.371 109.995 174.423C109.992 174.449 109.99 174.471 109.988 174.488C109.987 174.496 109.987 174.504 109.986 174.51C109.986 174.513 109.985 174.516 109.985 174.519C109.985 174.52 109.985 174.522 109.985 174.523C109.985 174.524 109.985 174.526 119.941 175.46C129.897 176.393 129.897 176.395 129.897 176.396C129.897 176.397 129.897 176.398 129.897 176.399C129.897 176.4 129.896 176.401 129.896 176.402C129.896 176.404 129.896 176.405 129.896 176.405C129.896 176.404 129.897 176.399 129.898 176.39C129.899 176.371 129.903 176.335 129.909 176.282C129.92 176.176 129.938 176.002 129.966 175.763C130.02 175.286 130.11 174.55 130.243 173.581C130.51 171.64 130.951 168.767 131.637 165.157C133.011 157.928 135.359 147.795 139.235 136.302L120.283 129.911ZM67.5996 134.578L128.385 143.011L131.133 123.201L70.3482 114.768L67.5996 134.578ZM53.6975 123.568L61.9154 131.756L76.0325 117.589L67.8146 109.4L53.6975 123.568ZM74.659 88.513L53.6975 109.4L67.8146 123.568L88.7761 102.68L74.659 88.513ZM151.827 74.9669L80.2339 85.7073L83.2011 105.486L154.795 94.7456L151.827 74.9669ZM165.077 54.9271C157.365 62.612 150.736 70.8438 145.037 79.2403L161.585 90.4722C166.65 83.0103 172.481 75.7843 179.195 69.0943L165.077 54.9271ZM285.987 10C285.062 0.0429096 285.059 0.0432072 285.055 0.0435305C285.054 0.0436707 285.05 0.0440197 285.047 0.044302C285.041 0.0448675 285.034 0.0455341 285.026 0.0463047C285.01 0.0478458 284.989 0.0498018 284.965 0.0521879C284.916 0.0569611 284.851 0.0634575 284.77 0.071805C284.607 0.0885 284.38 0.112605 284.092 0.145146C283.515 0.210223 282.691 0.309088 281.643 0.449973C279.548 0.731657 276.553 1.18186 272.834 1.86686C265.406 3.23536 255.048 5.5493 243.202 9.34906C219.624 16.9121 189.533 30.5582 165.077 54.9271L179.195 69.0943C200.592 47.7721 227.427 35.4128 249.311 28.3933C260.196 24.9018 269.704 22.7801 276.458 21.5359C279.831 20.9145 282.506 20.514 284.309 20.2716C285.21 20.1504 285.892 20.0689 286.333 20.0191C286.554 19.9942 286.715 19.9773 286.812 19.9672C286.861 19.9622 286.894 19.959 286.911 19.9573C286.919 19.9565 286.924 19.9561 286.924 19.956C286.924 19.956 286.923 19.9561 286.921 19.9563C286.92 19.9564 286.918 19.9566 286.918 19.9566C286.915 19.9568 286.913 19.9571 285.987 10ZM240.843 130.532C265.301 106.161 279.001 76.1701 286.596 52.665C290.412 40.8567 292.736 30.5318 294.111 23.1262C294.799 19.4194 295.251 16.4326 295.534 14.3436C295.676 13.2988 295.775 12.4775 295.841 11.9019C295.874 11.6141 295.898 11.3876 295.915 11.2252C295.923 11.1441 295.93 11.0789 295.934 11.0301C295.937 11.0056 295.939 10.9853 295.94 10.9691C295.941 10.961 295.942 10.954 295.942 10.948C295.943 10.9449 295.943 10.9412 295.943 10.9397C295.943 10.9362 295.944 10.933 285.987 10C276.031 9.067 276.031 9.0643 276.031 9.06186C276.031 9.06138 276.032 9.05919 276.032 9.05824C276.032 9.05634 276.032 9.05546 276.032 9.0556C276.032 9.05586 276.032 9.06018 276.031 9.06852C276.029 9.08518 276.026 9.11789 276.021 9.16629C276.011 9.2631 275.994 9.42268 275.969 9.64229C275.919 10.0816 275.837 10.7606 275.716 11.6578C275.472 13.4528 275.07 16.1165 274.447 19.4759C273.198 26.2028 271.069 35.6731 267.565 46.5156C260.522 68.3122 248.122 95.0452 226.726 116.365L240.843 130.532ZM102.826 206.657C102.832 206.651 102.799 206.684 102.714 206.761C102.632 206.836 102.519 206.937 102.371 207.064C102.073 207.322 101.68 207.65 101.183 208.052C100.188 208.857 98.8854 209.871 97.2947 211.08C94.1174 213.495 89.9503 216.562 85.1106 220.067C75.4402 227.07 63.248 235.7 51.2666 244.111C39.2922 252.516 27.5586 260.681 18.8164 266.746C14.4459 269.777 10.8245 272.284 8.29631 274.031C7.03223 274.905 6.04152 275.589 5.36719 276.055C5.03003 276.287 4.77196 276.466 4.59838 276.585C4.51159 276.645 4.44592 276.69 4.40204 276.721C4.3801 276.736 4.36361 276.747 4.35265 276.755C4.34717 276.759 4.34307 276.761 4.34037 276.763C4.33902 276.764 4.33804 276.765 4.33736 276.765C4.33673 276.766 4.33645 276.766 10.0125 284.999C15.6886 293.232 15.689 293.232 15.6898 293.231C15.6905 293.231 15.6916 293.23 15.6931 293.229C15.696 293.227 15.7002 293.224 15.7059 293.22C15.7173 293.212 15.7341 293.201 15.7565 293.185C15.8011 293.154 15.8676 293.108 15.9552 293.048C16.1304 292.927 16.3901 292.748 16.729 292.514C17.4067 292.046 18.4011 291.359 19.6691 290.483C22.205 288.73 25.8355 286.218 30.2163 283.179C38.9765 277.101 50.7426 268.914 62.7573 260.48C74.7651 252.052 87.0515 243.355 96.8412 236.265C101.732 232.724 106.04 229.554 109.395 227.004C112.523 224.628 115.397 222.364 116.943 220.824L102.826 206.657ZM102.826 192.563C106.735 196.458 106.735 202.762 102.826 206.657L116.943 220.824C128.696 209.113 128.696 190.107 116.943 178.396L102.826 192.563ZM88.5826 192.563C92.511 188.649 98.8976 188.649 102.826 192.563L116.943 178.396C105.21 166.705 86.1987 166.705 74.4655 178.396L88.5826 192.563ZM10.0125 284.999C18.2267 290.702 18.2269 290.702 18.2273 290.701C18.2278 290.701 18.2284 290.7 18.2294 290.698C18.2312 290.696 18.2341 290.692 18.2379 290.686C18.2455 290.675 18.2569 290.659 18.272 290.637C18.3024 290.593 18.3479 290.528 18.408 290.441C18.5281 290.268 18.7068 290.011 18.9404 289.675C19.4075 289.003 20.0941 288.016 20.9711 286.756C22.7249 284.237 25.2399 280.629 28.2825 276.274C34.3686 267.562 42.5621 255.87 50.9973 243.938C59.4376 231.999 68.0985 219.85 75.1263 210.214C78.6434 205.392 81.7217 201.24 84.1444 198.074C85.3574 196.489 86.3752 195.191 87.183 194.2C87.5863 193.705 87.9151 193.314 88.1737 193.016C88.3018 192.869 88.4024 192.757 88.4776 192.675C88.5553 192.591 88.5883 192.558 88.5826 192.563L74.4655 178.396C72.9188 179.938 70.6468 182.802 68.2616 185.919C65.7029 189.263 62.5215 193.556 58.9673 198.429C51.8525 208.184 43.125 220.428 34.6662 232.393C26.2024 244.365 17.9862 256.09 11.8875 264.819C8.83767 269.184 6.31636 272.802 4.55712 275.329C3.67748 276.593 2.98831 277.583 2.5188 278.259C2.28404 278.597 2.10419 278.855 1.9829 279.03C1.92226 279.117 1.87626 279.183 1.84535 279.228C1.82989 279.25 1.81821 279.267 1.81036 279.278C1.80643 279.284 1.80347 279.288 1.80146 279.291C1.80046 279.293 1.79969 279.294 1.79918 279.294C1.79865 279.295 1.79836 279.296 10.0125 284.999Z" fill="#2A2A2A" mask="url(#path-1-outside-1_2004_140)"/>
<defs>
<linearGradient id="paint0_linear_2004_140" x1="233.227" y1="30.2206" x2="63.5539" y2="261.309" gradientUnits="userSpaceOnUse">
<stop stop-color="#FFAD0F"/>
<stop offset="1" stop-color="#FFE926"/>
</linearGradient>
</defs>
</svg>
